<?xml version="1.0" standalone="no"?>
<!DOCTYPE svg PUBLIC "-//W3C//DTD SVG 1.1//EN" "http://www.w3.org/Graphics/SVG/1.1/DTD/svg11.dtd" >
<svg>
<metadata>
Created by FontForge 20120731 at Tue Jul  2 21:34:54 2019
 By www
(c) 2015 Connary Fagen
</metadata>
<defs>
<font id="VisbyRoundCF-Bold" horiz-adv-x="602" >
  <font-face 
    font-family="Visby Round CF Bold"
    font-weight="700"
    font-stretch="normal"
    units-per-em="1000"
    panose-1="0 0 8 0 0 0 0 0 0 0"
    ascent="800"
    descent="-200"
    x-height="520"
    cap-height="700"
    bbox="-222.722 -239.333 1205 980"
    underline-thickness="50"
    underline-position="-100"
    unicode-range="U+0020-FB02"
  />
<missing-glyph horiz-adv-x="495" 
d="M406 800v-990h-314v990h314zM330 734h-164v-33h65v-37h-66v-32h165v32h-66v37h66v33zM264 606h-99v-103h165v34h-66v69zM231 572v-35h-33v35h33zM330 476h-165v-32h66v-37h-66v-33h99v70h66v32zM330 417h-33v-65h-132v-34h165v99zM330 296h-99v-55h33v22h33v-46h-99v79
h-33v-112h165v112zM330 125h-165v-112h165v112zM297 92v-46h-99v46h99zM330 -10h-165v-32h70l-70 -47v-33h165v33h-101l69 47h32v32z" />
    <glyph glyph-name="fl" unicode="fl" horiz-adv-x="614" 
d="M493 706q23 0 39.5 -16.5t16.5 -39.5v-600q0 -23 -16.5 -39.5t-39.5 -16.5t-39.5 16.5t-16.5 39.5v497q-1 1 -12 9.5t-17 12t-18.5 11.5t-23 12.5t-24.5 9.5t-29 7.5t-31 2.5q-44 0 -68 -21.5t-24 -57.5v-13h77q20 0 34 -14t14 -33q0 -20 -14 -34t-34 -14h-77v-376
q0 -23 -16 -39t-39 -16t-39 16t-16 39v376h-18q-20 0 -34 14t-14 34q0 19 14 33t34 14h18v18q0 42 14 74t35 49.5t50 28t53 14t50 3.5q79 0 155 -50q3 21 18.5 35t37.5 14z" />
    <glyph glyph-name="f_f" unicode="ff" horiz-adv-x="806" 
d="M367 671q20 -13 20 -38q0 -19 -13.5 -32t-32.5 -13q-12 0 -21 5q-36 19 -72 19q-34 0 -46 -18t-12 -51v-23h77q20 0 34 -14t14 -33q0 -20 -14 -34t-34 -14h-77v-376q0 -23 -16 -39t-39 -16t-39 16t-16 39v376h-18q-20 0 -34 14t-14 34q0 19 14 33t34 14h18v28
q0 48 16.5 82t44 49.5t53 21.5t54.5 6q64 0 119 -36zM770 671q20 -13 20 -38q0 -19 -13.5 -32t-32.5 -13q-12 0 -21 5q-36 19 -72 19q-34 0 -46 -18t-12 -51v-23h77q20 0 34 -14t14 -33q0 -20 -14 -34t-34 -14h-77v-376q0 -23 -16.5 -39t-38.5 -16t-38.5 16t-16.5 39v376
h-18q-20 0 -34 14t-14 34q0 19 14 33t34 14h18v28q0 48 16.5 82t44 49.5t53 21.5t54.5 6q64 0 119 -36z" />
    <glyph glyph-name="f_t" unicode="ft" horiz-adv-x="744" 
d="M664 90q17 2 32 -10.5t15 -33.5q0 -54 -102 -54q-58 0 -91.5 30t-33.5 110v293h-294v-376q0 -23 -16 -39t-39 -16t-39 16t-16 39v376h-18q-20 0 -34 14t-14 34q0 19 14 33t34 14h18v28q0 48 16.5 82t44 49.5t53 21.5t54.5 6q64 0 119 -36q20 -13 20 -38q0 -19 -13.5 -32
t-32.5 -13q-12 0 -21 5q-36 19 -72 19q-34 0 -46 -18t-12 -51v-23h294v41q0 23 16 39t39 16t39 -16t16 -39v-41h67q20 0 34 -14t14 -33q0 -20 -14 -34t-34 -14h-67v-295q0 -43 33 -43q17 0 37 3z" />
    <glyph glyph-name=".notdef" horiz-adv-x="495" 
d="M406 800v-990h-314v990h314zM330 734h-164v-33h65v-37h-66v-32h165v32h-66v37h66v33zM264 606h-99v-103h165v34h-66v69zM231 572v-35h-33v35h33zM330 476h-165v-32h66v-37h-66v-33h99v70h66v32zM330 417h-33v-65h-132v-34h165v99zM330 296h-99v-55h33v22h33v-46h-99v79
h-33v-112h165v112zM330 125h-165v-112h165v112zM297 92v-46h-99v46h99zM330 -10h-165v-32h70l-70 -47v-33h165v33h-101l69 47h32v32z" />
    <glyph glyph-name=".null" horiz-adv-x="0" 
 />
    <glyph glyph-name="nonmarkingreturn" horiz-adv-x="333" 
 />
    <glyph glyph-name="space" unicode=" " horiz-adv-x="280" 
 />
    <glyph glyph-name="exclam" unicode="!" horiz-adv-x="274" 
d="M138 703q25 0 43 -18.5t18 -43.5v-375q0 -25 -18 -43.5t-43 -18.5q-26 0 -44 18t-18 44v375q0 25 18 43.5t44 18.5zM138 -3q-27 0 -46 19t-19 46q0 26 19 45t46 19q26 0 45 -19t19 -45q0 -27 -19 -46t-45 -19z" />
    <glyph glyph-name="quotedbl" unicode="&#x22;" horiz-adv-x="407" 
d="M95 706q23 0 39 -16t16 -39v-77q0 -22 -16 -38.5t-39 -16.5t-39 16.5t-16 38.5v77q0 23 16 39t39 16zM302 706q22 0 38.5 -16t16.5 -39v-77q0 -22 -16.5 -38.5t-38.5 -16.5t-38.5 16.5t-16.5 38.5v77q0 23 16.5 39t38.5 16z" />
    <glyph glyph-name="numbersign" unicode="#" horiz-adv-x="562" 
d="M469 275q20 0 34 -14t14 -33q0 -20 -14 -34t-34 -14h-42l-10 -135q-1 -22 -17 -36.5t-37 -14.5q-24 0 -40.5 18t-14.5 41l9 127h-102l-10 -135q-1 -22 -17 -36.5t-37 -14.5q-24 0 -40.5 18t-14.5 41l9 127h-12q-20 0 -34 14t-14 34q0 19 14 33t34 14h19l11 150h-30
q-20 0 -34 14t-14 34q0 19 14 33t34 14h36l10 135q1 22 17 36.5t37 14.5q24 0 40.5 -18t14.5 -41l-9 -127h102l10 135q1 22 17 36.5t37 14.5q24 0 40.5 -18t14.5 -41l-9 -127h18q20 0 34 -14t14 -33q0 -20 -14 -34t-34 -14h-25l-11 -150h36zM221 275h103l11 150h-103z" />
    <glyph glyph-name="dollar" unicode="$" horiz-adv-x="570" 
d="M525 191q0 -77 -56.5 -127.5t-135.5 -65.5v-3v-43q0 -20 -14 -34t-33 -14q-20 0 -34 14t-14 34v43v1q-118 17 -184 111q-9 13 -9 29q0 21 15 36t36 15q28 0 42 -22q23 -35 61.5 -55t81.5 -20q53 0 92.5 26t39.5 75q0 45 -30.5 72.5t-93.5 48.5l-52 17q-87 29 -135 75.5
t-48 120.5q0 70 52.5 119t131.5 60v44q0 20 14 34t34 14q19 0 33 -14t14 -34v-46q87 -17 145 -86q10 -13 10 -31q0 -20 -14 -34t-34 -14q-26 0 -40 20q-39 54 -121 54q-48 0 -80.5 -24t-32.5 -62q0 -35 22.5 -56t75.5 -41l47 -16q110 -38 162 -91t52 -130z" />
    <glyph glyph-name="percent" unicode="%" horiz-adv-x="698" 
d="M158 705q52 0 88 -35.5t36 -87.5q0 -51 -36 -87t-88 -36q-51 0 -87 36t-36 87q0 52 36 87.5t87 35.5zM493 665q16 23 43 23q21 0 36 -15t15 -36q0 -15 -9 -29l-383 -571q-16 -23 -43 -23q-21 0 -36 15t-15 36q0 16 8 29zM158 620q-17 0 -28.5 -11t-11.5 -27t11.5 -27.5
t28.5 -11.5q15 0 26 11.5t11 27.5t-11 27t-26 11zM539 241q52 0 88 -35.5t36 -87.5q0 -51 -36 -87t-88 -36q-51 0 -87 36t-36 87q0 52 36 87.5t87 35.5zM539 156q-17 0 -28.5 -11t-11.5 -27t11.5 -27.5t28.5 -11.5q15 0 26 11.5t11 27.5t-11 27t-26 11z" />
    <glyph glyph-name="ampersand" unicode="&#x26;" horiz-adv-x="745" 
d="M667 93q19 3 33.5 -11.5t14.5 -35.5q0 -51 -83 -51q-52 0 -79.5 27.5t-27.5 77.5v14q-31 -58 -84.5 -90.5t-122.5 -32.5q-102 0 -177.5 61t-75.5 159q0 86 50.5 143t122.5 65l-101 173q-23 40 -1.5 74t67.5 34h296q20 0 34 -14t14 -33q0 -20 -14 -34t-34 -14h-264
l110 -192q16 -24 8.5 -46.5t-39.5 -22.5q-66 0 -102.5 -39t-36.5 -94q0 -53 39.5 -89t103.5 -36q73 0 122.5 36t49.5 104v128q0 27 17.5 44.5t44.5 17.5h75q20 0 34 -14t14 -33q0 -20 -14 -34t-34 -14h-27v-176q0 -37 15.5 -47.5t51.5 -4.5z" />
    <glyph glyph-name="quotesingle" unicode="'" horiz-adv-x="190" 
d="M95 706q23 0 39 -16t16 -39v-77q0 -22 -16 -38.5t-39 -16.5t-39 16.5t-16 38.5v77q0 23 16 39t39 16z" />
    <glyph glyph-name="parenleft" unicode="(" horiz-adv-x="264" 
d="M180 751q20 0 34.5 -14.5t14.5 -34.5q0 -6 -4 -18q-69 -163 -69 -364q0 -216 70 -389q3 -7 3 -18q0 -20 -14 -34.5t-34 -14.5q-31 0 -44 27q-92 187 -92 429q0 230 92 405q13 26 43 26z" />
    <glyph glyph-name="parenright" unicode=")" horiz-adv-x="264" 
d="M127 725q92 -175 92 -405q0 -242 -92 -429q-13 -27 -44 -27q-20 0 -34 14.5t-14 34.5q0 11 3 18q70 173 70 389q0 201 -69 364q-4 12 -4 18q0 20 14.5 34.5t34.5 14.5q30 0 43 -26z" />
    <glyph glyph-name="asterisk" unicode="*" horiz-adv-x="490" 
d="M200 688q-1 18 12.5 32t31.5 14q19 0 32 -13.5t13 -31.5l-1 -75l78 20q19 5 34 -9.5t15 -35.5q0 -16 -10 -28t-24 -16l-64 -18l42 -56q9 -11 9 -27q0 -19 -13 -32.5t-32 -13.5q-23 0 -37 19l-41 58l-41 -58q-14 -19 -37 -19q-19 0 -32 13.5t-13 32.5q0 16 9 27l42 56
l-64 18q-14 4 -24 16t-10 28q0 21 15 35.5t34 9.5l78 -20z" />
    <glyph glyph-name="plus" unicode="+" horiz-adv-x="438" 
d="M344 322q20 0 34.5 -13t14.5 -32t-14.5 -32t-34.5 -13h-80v-82q0 -20 -13 -34.5t-32 -14.5t-32 14.5t-13 34.5v82h-81q-20 0 -34 13t-14 32t14 32t34 13h81v79q0 20 13 34t32 14t32 -14t13 -34v-79h80z" />
    <glyph glyph-name="comma" unicode="," horiz-adv-x="199" 
d="M66 -135q-23 0 -34 13.5t-4 36.5l25 85q12 39 49 39h47q27 0 36 -14.5t-4 -39.5l-48 -88q-17 -32 -53 -32h-14z" />
    <glyph glyph-name="hyphen" unicode="-" horiz-adv-x="412" 
d="M322 322q18 0 31.5 -13t13.5 -32t-13.5 -32t-31.5 -13h-232q-18 0 -31.5 13t-13.5 32t13.5 32t31.5 13h232z" />
    <glyph glyph-name="period" unicode="." horiz-adv-x="205" 
d="M103 -3q-27 0 -46 19t-19 46q0 26 19 45t46 19q26 0 45 -19t19 -45q0 -27 -19 -46t-45 -19z" />
    <glyph glyph-name="slash" unicode="/" horiz-adv-x="498" 
d="M401 751q28 0 43 -24t6 -47l-304 -782q-13 -34 -49 -34q-28 0 -43 24t-6 47l304 782q13 34 49 34z" />
    <glyph glyph-name="zero" unicode="0" horiz-adv-x="674" 
d="M337 707q124 0 208 -91t84 -253v-24q0 -162 -83.5 -253t-208.5 -91q-124 0 -208 91t-84 253v24q0 161 84 252.5t208 91.5zM337 612q-62 0 -104 -36.5t-60 -91t-18 -121.5v-24q0 -105 45.5 -177t136.5 -72t136.5 72t45.5 177v24q0 67 -18 121.5t-60 91t-104 36.5z" />
    <glyph glyph-name="one" unicode="1" horiz-adv-x="344" 
d="M207 700q27 0 44.5 -17.5t17.5 -44.5v-588q0 -22 -16.5 -38.5t-38.5 -16.5t-38.5 16.5t-16.5 38.5v555h-66q-20 0 -34 14t-14 34q0 19 14 33t34 14h114z" />
    <glyph glyph-name="two" unicode="2" horiz-adv-x="553" 
d="M271 707q99 0 164.5 -63t65.5 -145q0 -14 -2 -27.5t-4.5 -24.5t-10 -25t-12 -22.5t-17 -24t-19 -23.5t-24.5 -27t-26.5 -27.5t-32 -31.5t-34.5 -34l-136 -137h277q20 0 34 -14t14 -33q0 -20 -14 -34t-34 -14h-322q-59 0 -81.5 47.5t18.5 89.5l129 129q21 21 50 49.5
t43 42t32.5 33.5t27 31t17.5 25.5t12 26.5t3 25q0 56 -35.5 83.5t-82.5 27.5q-39 0 -72.5 -21.5t-45.5 -66.5q-5 -17 -19.5 -29t-33.5 -12q-28 0 -44 22.5t-8 49.5q21 68 80.5 111t142.5 43z" />
    <glyph glyph-name="three" unicode="3" horiz-adv-x="582" 
d="M427 700q50 0 73 -38.5t-8 -76.5l-140 -168q73 -14 129 -67.5t56 -135.5q0 -98 -74.5 -161t-177.5 -63q-86 0 -149 41.5t-87 110.5q-10 25 6.5 48.5t44.5 23.5q40 0 52 -39q13 -43 52 -66.5t81 -23.5q52 0 97 31.5t45 97.5q0 59 -41.5 87t-106.5 42q-41 9 -41 47
q0 24 21 49l133 166h-278q-20 0 -34 14t-14 34q0 19 14 33t34 14h313z" />
    <glyph glyph-name="four" unicode="4" horiz-adv-x="558" 
d="M442 291h33q20 0 34 -14t14 -33q0 -20 -14 -34t-34 -14h-33v-147q0 -23 -16 -39t-39 -16t-39 16t-16 39v147h-212q-52 0 -69.5 35.5t12.5 73.5l266 361q21 29 48 34t46 -13t19 -50v-346zM332 497l-147 -206h147v206z" />
    <glyph glyph-name="five" unicode="5" horiz-adv-x="555" 
d="M402 700q20 0 34 -14t14 -33q0 -20 -14 -34t-34 -14h-221l-19 -157q5 1 17 6t21.5 8t27.5 6t38 3q99 0 171.5 -67.5t72.5 -172.5q0 -103 -71.5 -172t-172.5 -69q-134 0 -211 97q-10 13 -10 31q0 21 14.5 36t35.5 15q25 0 40 -20q50 -64 131 -64q48 0 91 38.5t43 107.5
q0 72 -42.5 108.5t-91.5 36.5q-61 0 -102 -28q-18 -13 -41 -13q-32 0 -53.5 24.5t-17.5 56.5l29 232q3 23 19.5 37.5t39.5 14.5h262z" />
    <glyph glyph-name="six" unicode="6" horiz-adv-x="555" 
d="M355 706q21 0 35.5 -14.5t14.5 -34.5q0 -16 -10 -29l-140 -192q13 3 24 3q88 0 159.5 -68.5t71.5 -158.5q0 -92 -70.5 -157t-160.5 -65q-91 0 -162.5 65t-71.5 157q0 30 6.5 59t14 49.5t26 51t29 45t37 50t36.5 49.5l121 169q15 21 40 21zM278 337q-58 0 -93.5 -36
t-35.5 -89t38.5 -89.5t90.5 -36.5t89.5 36.5t37.5 89.5q0 51 -38 88t-89 37z" />
    <glyph glyph-name="seven" unicode="7" horiz-adv-x="553" 
d="M444 700q43 0 63.5 -32t2.5 -71l-262 -572q-14 -31 -47 -31q-22 0 -37.5 15.5t-15.5 37.5q0 12 5 22l252 536h-322q-20 0 -34 14t-14 34q0 19 14 33t34 14h361z" />
    <glyph glyph-name="eight" unicode="8" horiz-adv-x="545" 
d="M413 396q92 -63 92 -182q0 -96 -71.5 -158.5t-160.5 -62.5t-161 62t-72 159q0 119 92 182q-52 54 -52 126q0 78 53.5 131.5t139.5 53.5t139 -53.5t53 -131.5q0 -71 -52 -126zM189 522q0 -34 24.5 -60t59.5 -26t59.5 26t24.5 60q0 35 -24 61t-60 26t-60 -26t-24 -61z
M273 92q46 0 81 35t35 87q0 56 -34.5 89.5t-81.5 33.5q-43 0 -79 -34t-36 -89q0 -53 33.5 -87.5t81.5 -34.5z" />
    <glyph glyph-name="nine" unicode="9" horiz-adv-x="555" 
d="M200 -7q-21 0 -35.5 14.5t-14.5 34.5q0 16 10 29l140 192q-13 -3 -24 -3q-88 0 -159.5 68.5t-71.5 158.5q0 92 70.5 157t160.5 65q91 0 162.5 -65t71.5 -157q0 -30 -6.5 -59t-14 -49.5t-26 -51t-29 -45t-37 -50t-36.5 -49.5l-121 -169q-15 -21 -40 -21zM277 362
q58 0 93.5 36t35.5 89t-38.5 89.5t-90.5 36.5t-89.5 -36.5t-37.5 -89.5q0 -51 38 -88t89 -37z" />
    <glyph glyph-name="colon" unicode=":" horiz-adv-x="236" 
d="M108 391q-27 0 -46 19t-19 46q0 26 19 45t46 19q26 0 45 -19t19 -45q0 -27 -19 -46t-45 -19zM108 -3q-27 0 -46 19t-19 46q0 26 19 45t46 19q26 0 45 -19t19 -45q0 -27 -19 -46t-45 -19z" />
    <glyph glyph-name="semicolon" unicode=";" horiz-adv-x="265" 
d="M127 451q-27 0 -46 19t-19 46q0 26 19 45t46 19q26 0 45 -19t19 -45q0 -27 -19 -46t-45 -19zM36 -135q-23 0 -34 13.5t-4 36.5l25 85q12 39 49 39h47q27 0 36 -14.5t-4 -39.5l-48 -88q-17 -32 -53 -32h-14z" />
    <glyph glyph-name="less" unicode="&#x3c;" horiz-adv-x="455" 
d="M353 449q9 5 21 5q19 0 32.5 -13.5t13.5 -32.5q0 -26 -25 -40l-245 -128l245 -126q25 -12 25 -41q0 -19 -13.5 -32.5t-32.5 -13.5q-12 0 -22 6l-261 138q-46 24 -46 69t46 69z" />
    <glyph glyph-name="equal" unicode="=" horiz-adv-x="426" 
d="M345 402q20 0 34.5 -13t14.5 -32t-14.5 -32t-34.5 -13h-251q-20 0 -34 13t-14 32t14 32t34 13h251zM345 242q20 0 34.5 -13t14.5 -32t-14.5 -32t-34.5 -13h-251q-20 0 -34 13t-14 32t14 32t34 13h251z" />
    <glyph glyph-name="greater" unicode="&#x3e;" horiz-adv-x="497" 
d="M144 449l262 -140q46 -24 46 -69t-46 -69l-261 -138q-11 -6 -22 -6q-19 0 -32.5 13.5t-13.5 32.5q0 29 25 41l245 126l-245 128q-25 14 -25 40q0 19 13.5 32.5t32.5 13.5q12 0 21 -5z" />
    <glyph glyph-name="question" unicode="?" horiz-adv-x="543" 
d="M274 707q92 0 158 -57t66 -149q0 -40 -15.5 -71.5t-37 -53t-43.5 -42t-37.5 -50t-15.5 -66.5v-11h-114v11q0 44 16 80t38.5 59.5t44.5 44t38 45.5t16 54q0 46 -26.5 78.5t-87.5 32.5q-58 0 -88.5 -36t-30.5 -90h-110q0 101 68.5 161t160.5 60zM291 -3q-27 0 -46 19
t-19 46q0 26 19 45t46 19q26 0 45 -19t19 -45q0 -27 -19 -46t-45 -19z" />
    <glyph glyph-name="at" unicode="@" horiz-adv-x="803" 
d="M519 525q18 0 29.5 -12t11.5 -29v-170q0 -32 10 -45.5t33 -13.5q44 0 44 92q0 116 -71.5 188.5t-170.5 72.5q-103 0 -176 -72.5t-73 -189.5q0 -112 73.5 -183.5t175.5 -71.5q61 0 115 36q12 9 28 9q21 0 36 -15t15 -36q0 -27 -24 -42q-79 -50 -170 -50q-66 0 -130 26.5
t-113.5 72t-80.5 112.5t-31 142q0 155 108.5 258t246.5 103q139 0 243.5 -102.5t104.5 -258.5q0 -88 -42.5 -138t-105.5 -50q-15 0 -28 2.5t-21 5t-17.5 8.5t-13.5 9.5t-12.5 12l-11.5 11.5q-52 -52 -111 -52q-64 0 -115.5 51.5t-51.5 140.5q0 86 52 136.5t115 50.5
q27 0 58 -17t35 -36v10q0 13 10 23.5t26 10.5zM391 434q-34 0 -54.5 -26t-20.5 -61q0 -37 20.5 -64.5t54.5 -27.5q35 0 56 27.5t21 64.5q0 35 -21 61t-56 26z" />
    <glyph glyph-name="A" unicode="A" horiz-adv-x="716" 
d="M358 703q27 0 45 -39l263 -592q5 -12 5 -23q0 -23 -16.5 -39t-38.5 -16q-36 0 -50 33l-75 169h-266l-75 -169q-14 -33 -50 -33q-22 0 -38.5 16t-16.5 39q0 11 5 23l263 592q18 39 45 39zM358 514l-97 -222h194z" />
    <glyph glyph-name="B" unicode="B" horiz-adv-x="616" 
d="M437 387q134 -52 134 -181q0 -97 -66.5 -151.5t-191.5 -54.5h-181q-27 0 -44.5 17.5t-17.5 44.5v576q0 27 17.5 44.5t44.5 17.5h173q100 0 160 -47t60 -135q0 -94 -88 -131zM182 604v-180h123q54 0 82 25.5t28 68.5q0 40 -30.5 63t-79.5 23h-123zM313 96q75 0 111.5 29.5
t36.5 80.5q0 54 -37 88t-111 34h-131v-232h131z" />
    <glyph glyph-name="C" unicode="C" horiz-adv-x="634" 
d="M392 707q93 0 177 -53q25 -17 25 -46q0 -23 -16 -39t-39 -16q-18 0 -30 9q-58 38 -115 38q-92 0 -161.5 -72.5t-69.5 -177.5q0 -106 69.5 -178t161.5 -72q58 0 114 38q12 9 31 9q23 0 39 -16t16 -39q0 -29 -25 -46q-82 -53 -177 -53q-136 0 -241.5 102t-105.5 254
q0 102 50.5 185.5t129.5 128t167 44.5z" />
    <glyph glyph-name="D" unicode="D" horiz-adv-x="695" 
d="M295 700q144 0 247 -102t103 -246q0 -147 -102.5 -249.5t-247.5 -102.5h-163q-27 0 -44.5 17.5t-17.5 44.5v576q0 27 17.5 44.5t44.5 17.5h163zM295 96q106 0 171.5 73t65.5 183q0 108 -66 180t-171 72h-112v-508h112z" />
    <glyph glyph-name="E" unicode="E" horiz-adv-x="590" 
d="M181 99h309q20 0 35 -14.5t15 -34.5q0 -21 -15 -35.5t-35 -14.5h-363q-27 0 -44.5 17.5t-17.5 44.5v576q0 27 17.5 44.5t44.5 17.5h353q20 0 35 -14.5t15 -34.5q0 -21 -15 -35.5t-35 -14.5h-299v-200h199q20 0 35 -14.5t15 -34.5q0 -21 -15 -35.5t-35 -14.5h-199v-203z
" />
    <glyph glyph-name="F" unicode="F" horiz-adv-x="569" 
d="M529 651q0 -21 -15 -35.5t-35 -14.5h-299v-205h239q20 0 35 -14.5t15 -35.5t-15 -35.5t-35 -14.5h-239v-244q0 -23 -17 -40.5t-40 -17.5q-24 0 -41 17.5t-17 40.5v586q0 27 17.5 44.5t44.5 17.5h352q20 0 35 -14.5t15 -34.5z" />
    <glyph glyph-name="G" unicode="G" horiz-adv-x="750" 
d="M641 342q32 0 49.5 -19.5t13.5 -48.5q-20 -127 -106.5 -204t-205.5 -77q-87 0 -166 44.5t-130 127.5t-51 185t51 185t130 127.5t166 44.5q120 0 204 -60q23 -18 23 -44q0 -23 -15.5 -38.5t-38.5 -15.5q-18 0 -31 10q-59 41 -140 41q-88 0 -160 -72.5t-72 -176.5
t72.5 -177.5t159.5 -73.5q64 0 114.5 38.5t73.5 103.5h-77q-20 0 -35 14.5t-15 35.5t15 35.5t35 14.5h136z" />
    <glyph glyph-name="H" unicode="H" horiz-adv-x="698" 
d="M520 646q0 23 16.5 40t40.5 17q23 0 39.5 -17t16.5 -40v-592q0 -23 -16.5 -40t-39.5 -17q-24 0 -40.5 17t-16.5 40v244h-342v-244q0 -23 -16.5 -40t-39.5 -17q-24 0 -40.5 17t-16.5 40v592q0 23 16.5 40t40.5 17q23 0 39.5 -17t16.5 -40v-251h342v251z" />
    <glyph glyph-name="I" unicode="I" horiz-adv-x="245" 
d="M123 703q23 0 40 -17.5t17 -40.5v-593q0 -23 -17 -40.5t-40 -17.5q-24 0 -41 17.5t-17 40.5v593q0 23 17 40.5t41 17.5z" />
    <glyph glyph-name="J" unicode="J" horiz-adv-x="550" 
d="M430 703q22 0 38.5 -16.5t16.5 -38.5v-383q0 -140 -69.5 -206t-175.5 -66q-88 0 -155 46q-22 17 -22 42q0 21 15 36t37 15q17 0 30 -10q40 -29 94 -29q31 0 52.5 6.5t42 25.5t31 59t10.5 102v362q0 22 16.5 38.5t38.5 16.5z" />
    <glyph glyph-name="K" unicode="K" horiz-adv-x="690" 
d="M569 706q21 0 36 -15t15 -36q0 -18 -12 -33l-226 -267l250 -277q13 -15 13 -34q0 -20 -15 -35t-36 -15q-22 0 -37 17l-240 266l-133 -157v-69q0 -23 -17 -40t-40 -17t-40 17t-17 40v598q0 23 17 40t40 17t40 -17t17 -40v-373l345 411q16 19 40 19z" />
    <glyph glyph-name="L" unicode="L" horiz-adv-x="574" 
d="M183 95h303q20 0 34 -14t14 -33q0 -20 -14 -34t-34 -14h-354q-27 0 -44.5 17.5t-17.5 44.5v583q0 24 16.5 41t40.5 17q23 0 39.5 -17t16.5 -41v-550z" />
    <glyph glyph-name="M" unicode="M" horiz-adv-x="888" 
d="M768 703q20 0 35 -14t15 -38v-596q0 -23 -17 -40.5t-41 -17.5q-23 0 -40 17.5t-17 40.5v377l-208 -374q-18 -32 -51 -32t-51 32l-208 374v-377q0 -23 -17 -40.5t-40 -17.5q-24 0 -41 17.5t-17 40.5v596q0 24 15 38t35 14q38 0 60 -38l264 -472l264 472q22 38 60 38z" />
    <glyph glyph-name="N" unicode="N" horiz-adv-x="687" 
d="M565 703q23 0 40 -17.5t17 -40.5v-599q0 -24 -13.5 -38t-31.5 -14q-37 0 -61 34l-336 458v-433q0 -23 -17 -40.5t-40 -17.5q-24 0 -41 17.5t-17 40.5v598q0 24 15 38t35 14q36 0 60 -33l332 -456v431q0 23 17 40.5t41 17.5z" />
    <glyph glyph-name="O" unicode="O" horiz-adv-x="796" 
d="M398 707q88 0 167.5 -44.5t130 -127.5t50.5 -185t-50.5 -185t-130 -127.5t-167.5 -44.5t-167.5 44.5t-130 127.5t-50.5 185t50.5 185t130 127.5t167.5 44.5zM398 600q-93 0 -161.5 -70.5t-68.5 -179.5t68.5 -179.5t161.5 -70.5t161.5 70.5t68.5 179.5t-68 179.5
t-162 70.5z" />
    <glyph glyph-name="P" unicode="P" horiz-adv-x="620" 
d="M315 700q115 0 185 -60.5t70 -153.5q0 -95 -69.5 -154.5t-185.5 -59.5h-132v-221q0 -23 -16.5 -40t-39.5 -17q-24 0 -40.5 17t-16.5 40v587q0 27 17.5 44.5t44.5 17.5h183zM310 369q150 0 150 117q0 59 -40 88t-110 29h-127v-234h127z" />
    <glyph glyph-name="Q" unicode="Q" horiz-adv-x="794" 
d="M644 99l26 -26q13 -15 13 -32q0 -19 -13.5 -33t-33.5 -14q-21 0 -33 14l-32 33q-82 -48 -173 -48q-88 0 -167.5 44.5t-130 127.5t-50.5 185t50.5 185t130 127.5t167.5 44.5t167.5 -44.5t130 -127.5t50.5 -185q0 -147 -102 -251zM398 100q48 0 95 22l-58 59q-14 16 -14 32
q0 19 13.5 33t33.5 14q21 0 33 -14l66 -67q61 71 61 171q0 109 -68 179.5t-162 70.5q-93 0 -161.5 -70.5t-68.5 -179.5t68.5 -179.5t161.5 -70.5z" />
    <glyph glyph-name="R" unicode="R" horiz-adv-x="625" 
d="M391 280l166 -197q13 -16 13 -35q0 -22 -16 -38t-38 -16q-27 0 -43 21l-209 257h-81v-221q0 -23 -16.5 -40t-39.5 -17q-24 0 -40.5 17t-16.5 40v587q0 27 17.5 44.5t44.5 17.5h183q115 0 185 -60.5t70 -153.5q0 -77 -48 -132.5t-131 -73.5zM183 603v-234h127
q150 0 150 117q0 59 -40 88t-110 29h-127z" />
    <glyph glyph-name="S" unicode="S" horiz-adv-x="570" 
d="M279 707q125 0 199 -91q10 -13 10 -31q0 -20 -14 -34t-34 -14q-26 0 -40 20q-39 54 -121 54q-48 0 -80.5 -24t-32.5 -62q0 -35 22.5 -56t75.5 -41l47 -16q110 -38 162 -91t52 -130q0 -61 -39 -108t-93.5 -68.5t-111.5 -21.5q-70 0 -129.5 30t-97.5 84q-9 13 -9 29
q0 21 15 36t36 15q28 0 42 -22q23 -35 61.5 -55t81.5 -20q53 0 92.5 26t39.5 75q0 45 -30.5 72.5t-93.5 48.5l-52 17q-87 29 -135 75.5t-48 120.5q0 80 66 131t159 51z" />
    <glyph glyph-name="T" unicode="T" horiz-adv-x="630" 
d="M535 700q20 0 35 -14.5t15 -35.5t-15 -35.5t-35 -14.5h-160v-546q0 -24 -17.5 -42t-41.5 -18q-25 0 -42.5 18t-17.5 42v546h-161q-20 0 -35 14.5t-15 35.5t15 35.5t35 14.5h440z" />
    <glyph glyph-name="U" unicode="U" horiz-adv-x="686" 
d="M566 703q22 0 38.5 -16.5t16.5 -38.5v-393q0 -118 -81 -190t-197 -72q-117 0 -197.5 72t-80.5 190v393q0 22 16.5 38.5t38.5 16.5t38.5 -16.5t16.5 -38.5v-392q0 -83 47.5 -125.5t120.5 -42.5t120.5 42.5t47.5 125.5v392q0 22 16.5 38.5t38.5 16.5z" />
    <glyph glyph-name="V" unicode="V" horiz-adv-x="714" 
d="M623 703q23 0 39.5 -16.5t16.5 -39.5q0 -9 -6 -23l-270 -587q-19 -42 -46 -42t-47 42l-269 587q-6 14 -6 23q0 23 16.5 39.5t39.5 16.5q36 0 50 -33l216 -492l216 492q14 33 50 33z" />
    <glyph glyph-name="W" unicode="W" horiz-adv-x="1147" 
d="M1036 706q23 0 39.5 -16.5t16.5 -39.5q0 -9 -6 -23l-230 -590q-16 -42 -46 -42t-47 42l-190 468l-190 -468q-17 -42 -46 -42q-31 0 -47 42l-229 590q-6 14 -6 23q0 23 16.5 39.5t39.5 16.5q16 0 30.5 -9.5t19.5 -23.5l176 -495l185 495q12 33 51 33q38 0 50 -33l187 -495
l176 495q5 14 19.5 23.5t30.5 9.5z" />
    <glyph glyph-name="X" unicode="X" horiz-adv-x="629" 
d="M574 79q10 -13 10 -31q0 -22 -16 -38t-38 -16q-28 0 -44 23l-172 246l-173 -246q-16 -23 -43 -23q-22 0 -37.5 15.5t-15.5 37.5q0 18 9 30l194 278l-184 263q-10 13 -10 31q0 23 16 38.5t38 15.5q28 0 44 -23l162 -231l161 231q16 23 44 23q23 0 38.5 -15.5t15.5 -38.5
q0 -18 -10 -31l-184 -262z" />
    <glyph glyph-name="Y" unicode="Y" horiz-adv-x="634" 
d="M548 703q21 0 36 -15t15 -36q0 -16 -9 -30l-218 -299v-274q0 -23 -16 -39t-39 -16t-39 16t-16 39v274l-218 299q-9 14 -9 30q0 21 15 36t36 15q27 0 43 -22l188 -257l188 257q16 22 43 22z" />
    <glyph glyph-name="Z" unicode="Z" horiz-adv-x="642" 
d="M500 700q51 0 73.5 -40t-8.5 -80l-387 -485h366q20 0 34 -14t14 -33q0 -20 -14 -34t-34 -14h-405q-51 0 -73.5 40t8.5 80l387 485h-363q-20 0 -34 14t-14 34q0 19 14 33t34 14h402z" />
    <glyph glyph-name="bracketleft" unicode="[" horiz-adv-x="280" 
d="M185 745q50 0 50 -47q0 -48 -50 -48h-30v-685h30q50 0 50 -48q0 -47 -50 -47h-75q-65 0 -65 65v745q0 65 65 65h75z" />
    <glyph glyph-name="backslash" unicode="\" horiz-adv-x="542" 
d="M141 751q36 0 49 -34l304 -782q9 -23 -6 -47t-43 -24q-36 0 -49 34l-304 782q-9 23 6 47t43 24z" />
    <glyph glyph-name="bracketright" unicode="]" horiz-adv-x="280" 
d="M95 745h75q65 0 65 -65v-745q0 -65 -65 -65h-75q-50 0 -50 47q0 48 50 48h30v685h-30q-50 0 -50 48q0 47 50 47z" />
    <glyph glyph-name="asciicircum" unicode="^" horiz-adv-x="437" 
d="M386 521q6 -9 6 -19q0 -14 -10 -23.5t-23 -9.5t-23 10l-117 125l-118 -125q-10 -10 -23 -10q-14 0 -23.5 9.5t-9.5 23.5q0 10 6 19l113 154q22 30 55.5 29.5t54.5 -29.5z" />
    <glyph glyph-name="underscore" unicode="_" 
d="M509 0q20 0 34 -14t14 -34q0 -19 -14 -33t-34 -14h-416q-20 0 -34 14t-14 33q0 20 14 34t34 14h416z" />
    <glyph glyph-name="grave" unicode="`" horiz-adv-x="209" 
d="M98 773q38 0 54 -38l49 -121q9 -21 -2.5 -36t-32.5 -15q-18 0 -30 15l-83 101q-13 16 -13 36q0 24 17 41t41 17z" />
    <glyph glyph-name="a" unicode="a" horiz-adv-x="612" 
d="M285 526q109 0 157 -73v18q0 23 16 39t39 16t39 -16t16 -39v-422q0 -23 -16 -39t-39 -16t-39 16t-16 39v35q-3 -33 -50 -62t-107 -29q-43 0 -85 17t-78.5 48.5t-59 84t-22.5 117.5q0 64 22.5 116.5t59 84t78.5 48.5t85 17zM299 431q-58 0 -103.5 -46t-45.5 -125
t45.5 -125.5t103.5 -46.5q61 0 104.5 43.5t43.5 128.5q0 86 -43.5 128.5t-104.5 42.5z" />
    <glyph glyph-name="b" unicode="b" 
d="M327 526q43 0 85 -17t78.5 -48.5t59 -84t22.5 -116.5q0 -65 -22.5 -117.5t-59 -84t-78.5 -48.5t-85 -17q-60 0 -107 29t-50 62v-35q0 -23 -16 -39t-39 -16t-39 16t-16 39v602q0 23 16 39t39 16t39 -16t16 -39v-198q48 73 157 73zM313 88q58 0 103.5 46.5t45.5 125.5
t-45.5 125t-103.5 46q-61 0 -104.5 -42.5t-43.5 -128.5q0 -85 43.5 -128.5t104.5 -43.5z" />
    <glyph glyph-name="c" unicode="c" horiz-adv-x="542" 
d="M305 526q94 0 160 -58q27 -22 27 -44q0 -21 -14.5 -35.5t-35.5 -14.5t-35 14q-41 42 -102 42q-59 0 -104.5 -45t-45.5 -126q0 -80 45.5 -125t104.5 -45q61 0 102 41q15 15 35 15q21 0 35.5 -14.5t14.5 -35.5q0 -22 -26 -43q-67 -59 -161 -59q-95 0 -177 71t-83 195
q0 65 24.5 117.5t64 84t84 48.5t87.5 17z" />
    <glyph glyph-name="d" unicode="d" horiz-adv-x="607" 
d="M280 526q109 0 157 -73v198q0 23 16.5 39t38.5 16t38.5 -16t16.5 -39v-602q0 -23 -16.5 -39t-38.5 -16t-38.5 16t-16.5 39v35q-3 -33 -50 -62t-107 -29q-43 0 -85 17t-78.5 48.5t-59 84t-22.5 117.5q0 64 22.5 116.5t59 84t78.5 48.5t85 17zM294 88q61 0 104.5 43.5
t43.5 128.5q0 86 -43.5 128.5t-104.5 42.5q-58 0 -103.5 -46t-45.5 -125t45.5 -125.5t103.5 -46.5z" />
    <glyph glyph-name="e" unicode="e" 
d="M305 526q91 0 171.5 -69.5t80.5 -181.5q0 -58 -65 -58h-333q8 -60 52.5 -94t95.5 -34q61 0 102 30q18 12 33 12q22 0 35 -13.5t13 -35.5q0 -28 -24 -43q-67 -46 -160 -46q-43 0 -87 16.5t-84 48t-65 84t-25 117.5q0 64 25 117t64.5 84.5t83.5 48.5t87 17zM305 430
q-49 0 -92 -32t-53 -90h287q-10 58 -52 90t-90 32z" />
    <glyph glyph-name="f" unicode="f" horiz-adv-x="403" 
d="M367 671q20 -13 20 -38q0 -19 -13.5 -32t-32.5 -13q-12 0 -21 5q-36 19 -72 19q-34 0 -46 -18t-12 -51v-23h77q20 0 34 -14t14 -33q0 -20 -14 -34t-34 -14h-77v-376q0 -23 -16 -39t-39 -16t-39 16t-16 39v376h-18q-20 0 -34 14t-14 34q0 19 14 33t34 14h18v28
q0 48 16.5 82t44 49.5t53 21.5t54.5 6q64 0 119 -36z" />
    <glyph glyph-name="g" unicode="g" horiz-adv-x="592" 
d="M492 526q22 0 38.5 -16t16.5 -39v-471q0 -55 -24 -96.5t-62 -64t-78 -33.5t-78 -11q-69 0 -134 28q-26 12 -26 41q0 19 13 32t32 13q9 0 14 -2q48 -17 101 -17q59 0 95.5 30.5t36.5 79.5v84q-3 -33 -50 -62t-107 -29q-43 0 -85 17t-78.5 48.5t-59 84t-22.5 117.5
q0 64 22.5 116.5t59 84t78.5 48.5t85 17q109 0 157 -73v18q0 23 16.5 39t38.5 16zM294 88q61 0 104.5 43.5t43.5 128.5q0 86 -43.5 128.5t-104.5 42.5q-58 0 -103.5 -46t-45.5 -125t45.5 -125.5t103.5 -46.5z" />
    <glyph glyph-name="h" unicode="h" horiz-adv-x="603" 
d="M336 525q92 0 152 -56.5t60 -171.5v-247q0 -22 -16 -38.5t-39 -16.5t-39 16.5t-16 38.5v241q0 139 -116 139q-60 0 -102.5 -46t-49.5 -85v-250q0 -23 -16 -39t-39 -16t-39 16t-16 39v602q0 23 16 39t39 16t39 -16t16 -39v-242q5 36 50 76t116 40z" />
    <glyph glyph-name="i" unicode="i" horiz-adv-x="242" 
d="M121 592q-23 0 -40 17t-17 40t17 40t40 17t40 -17t17 -40t-17 -40t-40 -17zM121 523q23 0 39.5 -16.5t16.5 -39.5v-417q0 -23 -16.5 -39.5t-39.5 -16.5t-39.5 16.5t-16.5 39.5v417q0 23 16.5 39.5t39.5 16.5z" />
    <glyph glyph-name="j" unicode="j" horiz-adv-x="253" 
d="M130 592q-23 0 -40 17t-17 40t17 40t40 17t40 -17t17 -40t-17 -40t-40 -17zM128 523q22 0 38.5 -16.5t16.5 -38.5v-523q0 -150 -141 -150q-30 0 -71 12q-16 5 -26.5 19t-10.5 31q0 26 20 42t45 10q13 -4 30 -4q44 0 44 70v493q0 22 16.5 38.5t38.5 16.5z" />
    <glyph glyph-name="k" unicode="k" horiz-adv-x="598" 
d="M507 42q0 -20 -14 -34t-34 -14q-22 0 -35 15l-196 202l-55 -57v-105q0 -23 -16.5 -39t-38.5 -16t-38.5 16t-16.5 39v602q0 23 16.5 39t38.5 16t38.5 -16t16.5 -39v-354l201 213q16 16 36 16q21 0 35.5 -15t14.5 -35q0 -19 -14 -35l-153 -161l200 -204q14 -14 14 -34z" />
    <glyph glyph-name="l" unicode="l" horiz-adv-x="242" 
d="M121 706q23 0 39.5 -16.5t16.5 -39.5v-600q0 -23 -16.5 -39.5t-39.5 -16.5t-39.5 16.5t-16.5 39.5v600q0 23 16.5 39.5t39.5 16.5z" />
    <glyph glyph-name="m" unicode="m" horiz-adv-x="966" 
d="M696 525q94 0 154.5 -58t60.5 -184v-232q0 -23 -16.5 -39.5t-38.5 -16.5q-23 0 -39.5 16.5t-16.5 39.5v233q0 72 -32.5 109.5t-82.5 37.5q-110 0 -144 -137v-243q0 -23 -16.5 -39.5t-38.5 -16.5q-23 0 -39.5 16.5t-16.5 39.5v233q0 72 -33 109.5t-84 37.5
q-107 0 -142 -137v-243q0 -23 -16.5 -39.5t-38.5 -16.5q-23 0 -39.5 16.5t-16.5 39.5v416q0 23 16.5 39.5t39.5 16.5q22 0 38.5 -16.5t16.5 -39.5v-64q0 38 43.5 80t111.5 42q65 0 117 -29.5t77 -92.5q12 46 59.5 84t116.5 38z" />
    <glyph glyph-name="n" unicode="n" horiz-adv-x="603" 
d="M336 525q92 0 152 -56.5t60 -171.5v-247q0 -22 -16 -38.5t-39 -16.5t-39 16.5t-16 38.5v241q0 139 -116 139q-60 0 -102.5 -46t-49.5 -85v-249q0 -22 -16 -38.5t-39 -16.5t-39 16.5t-16 38.5v418q0 22 16 38.5t39 16.5t39 -16.5t16 -38.5v-59q5 36 50 76t116 40z" />
    <glyph glyph-name="o" unicode="o" horiz-adv-x="600" 
d="M300 526q43 0 87 -17t83.5 -48.5t64.5 -84.5t25 -117q0 -65 -25 -117.5t-64.5 -84t-83.5 -48t-87 -16.5t-87 16.5t-83.5 48t-64.5 84t-25 117.5q0 64 25 117t64.5 84.5t83.5 48.5t87 17zM300 430q-58 0 -104 -45t-46 -126q0 -80 46 -125t104 -45t104 45t46 125
q0 81 -46 126t-104 45z" />
    <glyph glyph-name="p" unicode="p" 
d="M327 526q43 0 85 -17t78.5 -48.5t59 -84t22.5 -116.5q0 -65 -22.5 -117.5t-59 -84t-78.5 -48.5t-85 -17q-60 0 -107 29t-50 62v-225q0 -23 -16 -39t-39 -16t-39 16t-16 39v612q0 23 16 39t39 16t39 -16t16 -39v-18q48 73 157 73zM313 88q58 0 103.5 46.5t45.5 125.5
t-45.5 125t-103.5 46q-61 0 -104.5 -42.5t-43.5 -128.5q0 -85 43.5 -128.5t104.5 -43.5z" />
    <glyph glyph-name="q" unicode="q" horiz-adv-x="617" 
d="M497 526q23 0 39 -16t16 -39v-612q0 -23 -16 -39t-39 -16t-39 16t-16 39v225q-3 -33 -50 -62t-107 -29q-43 0 -85 17t-78.5 48.5t-59 84t-22.5 117.5q0 64 22.5 116.5t59 84t78.5 48.5t85 17q109 0 157 -73v18q0 23 16 39t39 16zM299 88q61 0 104.5 43.5t43.5 128.5
q0 86 -43.5 128.5t-104.5 42.5q-58 0 -103.5 -46t-45.5 -125t45.5 -125.5t103.5 -46.5z" />
    <glyph glyph-name="r" unicode="r" horiz-adv-x="435" 
d="M351 525q27 0 43 -14.5t16 -36.5t-16 -37t-40 -15h-17q-122 0 -167 -114v-259q0 -23 -16 -39t-39 -16t-39 16t-16 39v419q0 22 16 38.5t39 16.5t39 -16.5t16 -38.5v-43q32 44 79.5 72t101.5 28z" />
    <glyph glyph-name="s" unicode="s" horiz-adv-x="479" 
d="M233 526q62 0 98.5 -15t65.5 -47q14 -16 14 -35q0 -21 -15 -36t-37 -15q-23 0 -40 19q-31 35 -83 35q-33 0 -54 -16t-21 -38q0 -42 55 -57l72 -20q73 -20 112 -54t39 -101q0 -68 -63 -110.5t-141 -42.5q-56 0 -103 19.5t-74 52.5q-18 21 -18 44q0 19 14 33.5t36 14.5
q26 0 41 -20q39 -50 107 -50q37 0 62 17t25 42q0 46 -61 64l-72 20q-75 21 -109.5 56t-34.5 93q0 64 56 105.5t129 41.5z" />
    <glyph glyph-name="t" unicode="t" horiz-adv-x="365" 
d="M285 90q17 2 32 -10.5t15 -33.5q0 -54 -102 -54q-58 0 -91.5 30t-33.5 110v293h-28q-20 0 -34 14t-14 34q0 19 14 33t34 14h28v41q0 23 16.5 39t38.5 16t38.5 -16t16.5 -39v-41h67q20 0 34 -14t14 -33q0 -20 -14 -34t-34 -14h-67v-295q0 -43 33 -43q18 0 37 3z" />
    <glyph glyph-name="u" unicode="u" horiz-adv-x="597" 
d="M427 468q0 22 16.5 38.5t38.5 16.5t38.5 -16.5t16.5 -38.5v-418q0 -22 -16.5 -38.5t-38.5 -16.5t-38.5 16.5t-16.5 38.5v66q-10 -39 -56.5 -80.5t-113.5 -41.5q-88 0 -145 55t-57 169v250q0 22 16.5 38.5t38.5 16.5t38.5 -16.5t16.5 -38.5v-244q0 -69 28.5 -102t74.5 -33
q60 0 105.5 48.5t53.5 96.5v234z" />
    <glyph glyph-name="v" unicode="v" horiz-adv-x="574" 
d="M487 523q22 0 37 -15t15 -37q0 -9 -6 -23l-201 -408q-21 -42 -45 -42t-45 42l-201 408q-6 14 -6 23q0 22 15 37t37 15q33 0 46 -30l154 -333l154 333q13 30 46 30z" />
    <glyph glyph-name="w" unicode="w" horiz-adv-x="870" 
d="M783 523q22 0 37 -15t15 -37q0 -4 -7 -25l-149 -406q-16 -42 -49 -42q-32 0 -51 42l-144 317l-144 -317q-19 -42 -51 -42q-33 0 -49 42l-149 406q-7 21 -7 25q0 22 15 37t37 15q15 0 28.5 -8.5t17.5 -21.5l114 -333l139 329q14 34 49 34t49 -34l139 -329l114 333
q4 13 17.5 21.5t28.5 8.5z" />
    <glyph glyph-name="x" unicode="x" horiz-adv-x="562" 
d="M493 72q9 -12 9 -29q0 -20 -14 -34.5t-34 -14.5q-24 0 -39 20l-134 169l-134 -169q-15 -20 -39 -20q-20 0 -34 14.5t-14 34.5q0 17 9 29l150 189l-148 187q-9 10 -9 29q0 20 14 34.5t34 14.5q24 0 39 -20l132 -167l132 167q16 20 39 20q20 0 34 -14.5t14 -34.5
q0 -17 -9 -29l-148 -187z" />
    <glyph glyph-name="y" unicode="y" horiz-adv-x="577" 
d="M445 494q13 32 46 32q21 0 36 -15t15 -36q0 -7 -4 -19l-262 -621q-14 -31 -46 -31q-21 0 -35.5 15t-14.5 35q0 7 4 19l57 142l-202 441q-4 8 -4 20q0 20 14.5 35t35.5 15q32 0 46 -30l162 -352z" />
    <glyph glyph-name="z" unicode="z" horiz-adv-x="501" 
d="M378 520q53 0 74.5 -41.5t-15.5 -83.5l-273 -300h249q20 0 34 -14t14 -33q0 -20 -14 -34t-34 -14h-291q-52 0 -72.5 41.5t16.5 84.5l272 299h-250q-20 0 -34 14t-14 34q0 19 14 33t34 14h290z" />
    <glyph glyph-name="braceleft" unicode="{" horiz-adv-x="331" 
d="M238 745q20 0 34 -14t14 -33q0 -20 -14 -34t-34 -14h-13q-35 0 -35 -32v-228q0 -16 -9 -29l-41 -55l40 -53q10 -13 10 -29v-227q0 -32 35 -32h13q20 0 34 -14t14 -34q0 -19 -14 -33t-34 -14h-60q-40 0 -69 23t-29 76v266l-27 42q-18 29 0 58l27 44v267q0 52 29.5 75.5
t68.5 23.5h60z" />
    <glyph glyph-name="bar" unicode="|" horiz-adv-x="245" 
d="M123 806q19 0 33 -14t14 -34v-906q0 -20 -14 -34t-33 -14q-20 0 -34 14t-14 34v906q0 20 14 34t34 14z" />
    <glyph glyph-name="braceright" unicode="}" horiz-adv-x="315" 
d="M77 745h60q39 0 68.5 -23.5t29.5 -75.5v-267l27 -44q18 -29 0 -58l-27 -42v-266q0 -53 -29 -76t-69 -23h-60q-20 0 -34 14t-14 33q0 20 14 34t34 14h13q35 0 35 32v227q0 16 10 29l40 53l-41 55q-9 13 -9 29v228q0 32 -35 32h-13q-20 0 -34 14t-14 34q0 19 14 33t34 14z
" />
    <glyph glyph-name="asciitilde" unicode="~" horiz-adv-x="504" 
d="M164 364q45 0 104.5 -34.5t87.5 -34.5q34 0 50 14q2 1 7 6.5t6.5 6.5t5.5 2.5t9 1.5q29 0 24 -26q-8 -42 -38 -66.5t-78 -24.5q-44 0 -105 38.5t-92 38.5q-35 0 -51 -20q-5 -8 -7.5 -11t-7.5 -5.5t-12 -2.5q-26 0 -21 23q7 43 37.5 68.5t80.5 25.5z" />
    <glyph glyph-name="exclamdown" unicode="&#xa1;" horiz-adv-x="226" 
d="M138 523q26 0 45 -19t19 -46q0 -26 -19 -45t-45 -19q-27 0 -46 19t-19 45q0 27 19 46t46 19zM138 -183q-26 0 -44 18.5t-18 43.5v375q0 26 18 44t44 18q25 0 43 -18.5t18 -43.5v-375q0 -25 -18 -43.5t-43 -18.5z" />
    <glyph glyph-name="cent" unicode="&#xa2;" horiz-adv-x="542" 
d="M442 217q21 0 35.5 -14t14.5 -35t-26 -42q-52 -44 -127 -56v-68q0 -20 -14 -34t-33 -14q-20 0 -34 14t-14 34v74q-82 21 -140 86t-59 167t57.5 167t141.5 86v76q0 20 14 34t34 14q19 0 33 -14t14 -34v-70q76 -10 126 -54q27 -22 27 -43t-14.5 -35t-35.5 -14q-22 0 -35 13
q-27 28 -68 37v-326q39 8 68 36q15 15 35 15zM155 329q0 -57 25 -96t64 -57v307q-89 -42 -89 -154z" />
    <glyph glyph-name="sterling" unicode="&#xa3;" horiz-adv-x="580" 
d="M487 95q20 0 34 -14t14 -33q0 -20 -14 -34t-34 -14h-394q-13 0 -29 2q-17 3 -18.5 18t10.5 30q61 76 81 116t20 80q0 14 -4 36h-41q-17 0 -29.5 12.5t-12.5 29.5t12.5 29.5t29.5 12.5h3q-41 72 -41 134q0 92 70.5 149.5t162.5 57.5q77 0 140 -43.5t84 -121.5
q5 -27 -10.5 -47.5t-42.5 -20.5q-19 0 -34 13t-19 31q-18 94 -118 94q-61 0 -90.5 -31.5t-29.5 -80.5q0 -58 44 -134h97q17 0 29.5 -12.5t12.5 -29.5t-12.5 -29.5t-29.5 -12.5h-61q4 -15 4 -36q0 -74 -61 -151h277z" />
    <glyph glyph-name="currency" unicode="&#xa4;" horiz-adv-x="541" 
d="M468 476q0 -59 -28 -109l46 -46l-71 -70l-42 42q-57 -41 -129 -41q-69 0 -127 40l-41 -41l-71 70l44 44q-29 53 -29 111q0 62 31 113l-46 46l71 70l43 -43q57 38 125 38q71 0 127 -39l44 44l71 -70l-48 -48q30 -51 30 -111zM244 343q62 0 98 42.5t36 90.5t-36 90.5
t-98 42.5t-97.5 -42.5t-35.5 -90.5t35.5 -90.5t97.5 -42.5z" />
    <glyph glyph-name="yen" unicode="&#xa5;" horiz-adv-x="664" 
d="M590 622l-218 -299v-13h68q17 0 29.5 -12.5t12.5 -29.5t-12.5 -29.5t-29.5 -12.5h-68v-47h68q17 0 29.5 -12.5t12.5 -29.5t-12.5 -29.5t-29.5 -12.5h-68v-46q0 -23 -16 -39t-39 -16t-39 16t-16 39v46h-38q-17 0 -29.5 12.5t-12.5 29.5t12.5 29.5t29.5 12.5h38v47h-38
q-17 0 -29.5 12.5t-12.5 29.5t12.5 29.5t29.5 12.5h38v13l-218 299q-9 14 -9 30q0 21 15 36t36 15q27 0 43 -22l188 -257l188 257q16 22 43 22q21 0 36 -15t15 -36q0 -16 -9 -30z" />
    <glyph glyph-name="brokenbar" unicode="&#xa6;" horiz-adv-x="245" 
d="M123 806q19 0 33 -14t14 -34v-196q0 -20 -14 -34t-33 -14q-20 0 -34 14t-14 34v196q0 20 14 34t34 14zM123 96q19 0 33 -14t14 -34v-196q0 -20 -14 -34t-33 -14q-20 0 -34 14t-14 34v196q0 20 14 34t34 14z" />
    <glyph glyph-name="section" unicode="&#xa7;" horiz-adv-x="588" 
d="M293 744q79 0 139 -37t91 -96q15 -30 5 -50.5t-40 -29.5q-27 -8 -41.5 2t-32.5 39q-39 61 -121 61q-50 0 -80.5 -23.5t-30.5 -60.5q0 -35 21 -56t65 -35l73 -25q202 -63 202 -219q0 -52 -32 -98q32 -48 32 -108q0 -61 -39 -108.5t-96 -71t-118 -23.5q-78 0 -140.5 39.5
t-96.5 106.5q-13 30 -3.5 51t37.5 30q26 8 43 -2.5t34 -40.5q41 -73 126 -73q56 0 95.5 25t39.5 67q0 43 -26.5 67t-73.5 40l-90 30q-171 55 -171 194q0 51 33 103q-33 50 -33 107q0 84 67.5 139.5t161.5 55.5zM188 371q-6 -13 -6 -32q0 -65 86 -89l73 -25q53 -17 84 -34v23
q0 76 -100 110l-90 28q-15 5 -47 19z" />
    <glyph glyph-name="dieresis" unicode="&#xa8;" horiz-adv-x="368" 
d="M60 591q-25 0 -42.5 17.5t-17.5 42.5q0 24 17.5 41.5t42.5 17.5t42.5 -17.5t17.5 -41.5q0 -25 -17.5 -42.5t-42.5 -17.5zM308 591q-25 0 -42.5 17.5t-17.5 42.5q0 24 17.5 41.5t42.5 17.5t42.5 -17.5t17.5 -41.5q0 -25 -17.5 -42.5t-42.5 -17.5z" />
    <glyph glyph-name="copyright" unicode="&#xa9;" horiz-adv-x="809" 
d="M405 707q138 0 246 -102t108 -255t-108 -255t-246 -102q-90 0 -170.5 44.5t-132.5 127.5t-52 185t52 185t132.5 127.5t170.5 44.5zM405 598q-95 0 -164.5 -70t-69.5 -178t69.5 -178t164.5 -70t164.5 70t69.5 178t-69.5 178t-164.5 70zM406 548q50 0 87 -18t37 -50
q0 -20 -14.5 -34.5t-33.5 -14.5q-16 0 -25 5q-20 11 -42 11q-34 0 -60.5 -28t-26.5 -69q0 -42 26 -70t61 -28q20 0 42 12q11 6 25 6q19 0 33.5 -15t14.5 -35q0 -32 -37.5 -50t-86.5 -18q-77 0 -131 56t-54 142q0 85 54.5 141.5t130.5 56.5z" />
    <glyph glyph-name="ordfeminine" unicode="&#xaa;" horiz-adv-x="402" 
d="M191 712q142 0 142 -154v-96q0 -30 5 -44q7 -21 1.5 -29.5t-23.5 -8.5q-38 0 -45 20q-3 10 -6 22q-36 -44 -95 -44t-94.5 26t-35.5 77q0 47 38 73.5t95 31.5l81 7q0 27 -18 40.5t-45 13.5q-37 0 -70 -24q-27 -20 -48 1q-25 23 -6 43q48 45 124 45zM254 529q-22 -4 -81 -9
q-28 -2 -42.5 -12.5t-14.5 -26.5t13.5 -27.5t40.5 -11.5q31 0 53 17.5t31 38.5v31z" />
    <glyph glyph-name="guillemotleft" unicode="&#xab;" horiz-adv-x="433" 
d="M25 350q0 36 31 54l70 41q23 13 38.5 5.5t15.5 -33.5q0 -32 -24 -55l-80 -76l80 -76q24 -23 24 -55q0 -26 -15.5 -33.5t-38.5 5.5l-70 41q-31 18 -31 54v128zM233 350q0 36 31 54l70 41q23 13 38.5 5.5t15.5 -33.5q0 -32 -24 -55l-80 -76l80 -76q24 -23 24 -55
q0 -26 -15.5 -33.5t-38.5 5.5l-70 41q-31 18 -31 54v128z" />
    <glyph glyph-name="logicalnot" unicode="&#xac;" horiz-adv-x="511" 
d="M404 302q27 0 44.5 -17.5t17.5 -44.5v-53q0 -23 -16 -39t-39 -16t-39 16t-16 39v25h-266q-18 0 -31.5 13t-13.5 32t13.5 32t31.5 13h314z" />
    <glyph glyph-name="uni00AD" unicode="&#xad;" horiz-adv-x="400" 
d="M322 322q18 0 31.5 -13t13.5 -32t-13.5 -32t-31.5 -13h-232q-18 0 -31.5 13t-13.5 32t13.5 32t31.5 13h232z" />
    <glyph glyph-name="registered" unicode="&#xae;" horiz-adv-x="798" 
d="M399 707q138 0 243.5 -102t105.5 -255t-105.5 -255t-243.5 -102q-135 0 -242 102.5t-107 254.5t107 254.5t242 102.5zM400 597q-91 0 -159 -69.5t-68 -177.5t68 -177.5t159 -69.5q96 0 161 68.5t65 178.5t-65 178.5t-161 68.5zM390 534q61 0 100 -31.5t39 -80.5
q0 -92 -85 -111l97 -138h-100l-83 136h-3v-136h-85v361h120zM395 462h-41v-79h41q47 0 47 39q0 18 -12.5 29t-34.5 11z" />
    <glyph glyph-name="macron" unicode="&#xaf;" horiz-adv-x="384" 
d="M336 700q20 0 34 -14t14 -33q0 -20 -14 -34t-34 -14h-288q-20 0 -34 14t-14 34q0 19 14 33t34 14h288z" />
    <glyph glyph-name="degree" unicode="&#xb0;" horiz-adv-x="386" 
d="M193 719q61 0 104.5 -43t43.5 -103q0 -61 -43.5 -104.5t-104.5 -43.5t-104.5 43.5t-43.5 104.5q0 60 43.5 103t104.5 43zM193 639q-32 0 -49 -21.5t-17 -44.5q0 -24 17 -46t49 -22t49 22t17 46q0 23 -17 44.5t-49 21.5z" />
    <glyph glyph-name="plusminus" unicode="&#xb1;" horiz-adv-x="425" 
d="M93 242q-20 0 -34 13t-14 32t14 32t34 13h81v79q0 20 13 34t32 14t32 -14t13 -34v-79h80q20 0 34.5 -13t14.5 -32t-14.5 -32t-34.5 -13h-80v-82q0 -20 -13 -34.5t-32 -14.5t-32 14.5t-13 34.5v82h-81zM344 91q20 0 34.5 -13t14.5 -32t-14.5 -32t-34.5 -13h-251
q-20 0 -34 13t-14 32t14 32t34 13h251z" />
    <glyph glyph-name="uni00B2" unicode="&#xb2;" horiz-adv-x="261" 
d="M129 704q34 0 59 -22.5t25 -52.5q0 -26 -14.5 -47t-53.5 -61l-47 -49h118v-32h-168v32l68 69q28 29 36.5 38.5t15.5 22.5t7 27q0 18 -14 31t-32 13q-19 0 -33 -13t-14 -37v-14h-37v14q0 35 24.5 58t59.5 23z" />
    <glyph glyph-name="uni00B3" unicode="&#xb3;" horiz-adv-x="273" 
d="M136 703q32 0 56 -20.5t24 -47.5q0 -32 -30 -53q42 -18 42 -66q0 -34 -27.5 -57t-64.5 -23q-41 0 -67.5 27t-23.5 64h38q-4 -23 12 -41t41 -18q22 0 38 13.5t16 34.5q0 55 -74 45v31q63 3 63 43q0 15 -12.5 26t-30.5 11q-22 0 -35 -15.5t-11 -41.5h-38q-3 38 22 63t62 25
z" />
    <glyph glyph-name="acute" unicode="&#xb4;" horiz-adv-x="174" 
d="M111 773q24 0 41 -17t17 -41q0 -20 -13 -36l-83 -101q-12 -15 -30 -15q-21 0 -32.5 15t-2.5 36l49 121q16 38 54 38z" />
    <glyph glyph-name="uni00B5" unicode="&#xb5;" horiz-adv-x="597" 
d="M482 523q22 0 38.5 -16.5t16.5 -38.5v-418q0 -22 -16.5 -38.5t-38.5 -16.5t-38.5 16.5t-16.5 38.5v66q-10 -39 -56.5 -80.5t-113.5 -41.5q-50 0 -92 18v-153q0 -23 -16.5 -39t-38.5 -16t-38.5 16t-16.5 39v609q0 22 16.5 38.5t38.5 16.5t38.5 -16.5t16.5 -38.5v-244
q0 -69 28.5 -102t74.5 -33q60 0 105.5 48.5t53.5 96.5v234q0 22 16.5 38.5t38.5 16.5z" />
    <glyph glyph-name="paragraph" unicode="&#xb6;" horiz-adv-x="840" 
d="M715 706q23 0 39 -16t16 -39v-602q0 -23 -16 -39t-39 -16t-39 16t-16 39v602q0 23 16 39t39 16zM322 700h183q27 0 44.5 -17.5t17.5 -44.5v-587q0 -23 -16.5 -40t-40.5 -17q-23 0 -39.5 17t-16.5 40v221h-132q-116 0 -185.5 59.5t-69.5 154.5q0 93 70 153.5t185 60.5z
M327 369h127v234h-127q-70 0 -110 -29t-40 -88q0 -117 150 -117z" />
    <glyph glyph-name="periodcentered" unicode="&#xb7;" horiz-adv-x="226" 
d="M103 216q-27 0 -46 19t-19 46q0 26 19 45t46 19q26 0 45 -19t19 -45q0 -27 -19 -46t-45 -19z" />
    <glyph glyph-name="cedilla" unicode="&#xb8;" horiz-adv-x="187" 
d="M98 -51q38 -6 63.5 -31.5t25.5 -61.5q0 -49 -46 -73t-118 -21q-13 0 -19 6t-3 14q7 18 27 19q72 9 72 55q0 20 -15 32t-34 4q-11 -5 -19 -3t-16 15q-12 20 -2 37l36 60h97z" />
    <glyph glyph-name="uni00B9" unicode="&#xb9;" horiz-adv-x="202" 
d="M127 701v-261h-37v221l-17 -11l-18 31l35 20h37z" />
    <glyph glyph-name="ordmasculine" unicode="&#xba;" horiz-adv-x="408" 
d="M204 705q58 0 106 -44.5t48 -117.5t-48 -118t-106 -45t-106 45t-48 118t48 117.5t106 44.5zM204 631q-31 0 -56 -25t-25 -62q0 -38 25 -63.5t56 -25.5q30 0 55 25t25 64q0 37 -25 62t-55 25z" />
    <glyph glyph-name="guillemotright" unicode="&#xbb;" horiz-adv-x="433" 
d="M200 350v-128q0 -36 -31 -54l-70 -41q-23 -13 -38.5 -5.5t-15.5 33.5q0 32 24 55l80 76l-80 76q-24 23 -24 55q0 26 15.5 33.5t38.5 -5.5l70 -41q31 -18 31 -54zM408 350v-128q0 -36 -31 -54l-70 -41q-23 -13 -38.5 -5.5t-15.5 33.5q0 32 24 55l80 76l-80 76
q-24 23 -24 55q0 26 15.5 33.5t38.5 -5.5l70 -41q31 -18 31 -54z" />
    <glyph glyph-name="onequarter" unicode="&#xbc;" horiz-adv-x="569" 
d="M100 701v-261h-37v221l-17 -11l-18 31l35 20h37zM503 700l-430 -700h-48l436 700h42zM517 261v-154h27v-31h-27v-76h-37v76h-132l132 185h37zM480 202l-65 -95h65v95z" />
    <glyph glyph-name="onehalf" unicode="&#xbd;" horiz-adv-x="544" 
d="M100 701v-261h-37v221l-17 -11l-18 31l35 20h37zM503 700l-430 -700h-48l436 700h42zM432 264q34 0 59 -22.5t25 -52.5q0 -26 -14.5 -47t-53.5 -61l-47 -49h118v-32h-168v32l68 69q28 29 36.5 38.5t15.5 22.5t7 27q0 18 -14 31t-32 13q-19 0 -33 -13t-14 -37v-14h-37v14
q0 35 24.5 58t59.5 23z" />
    <glyph glyph-name="threequarters" unicode="&#xbe;" horiz-adv-x="587" 
d="M116 703q32 0 56 -20.5t24 -47.5q0 -32 -30 -53q42 -18 42 -66q0 -34 -27.5 -57t-64.5 -23q-41 0 -67.5 27t-23.5 64h38q-4 -23 12 -41t41 -18q22 0 38 13.5t16 34.5q0 55 -74 45v31q63 3 63 43q0 15 -12.5 26t-30.5 11q-22 0 -35 -15.5t-11 -41.5h-38q-3 38 22 63t62 25
zM531 700l-430 -700h-48l436 700h42zM535 261v-154h27v-31h-27v-76h-37v76h-132l132 185h37zM498 202l-65 -95h65v95z" />
    <glyph glyph-name="questiondown" unicode="&#xbf;" horiz-adv-x="543" 
d="M252 523q27 0 46 -19t19 -46q0 -26 -19 -45t-46 -19q-26 0 -45 19t-19 45q0 27 19 46t45 19zM269 -187q-92 0 -158 57t-66 149q0 40 15.5 71.5t37 53t43.5 42t37.5 50t15.5 66.5v11h114v-11q0 -44 -16 -80t-38.5 -59.5t-44.5 -44t-38 -45.5t-16 -54q0 -46 26.5 -78.5
t87.5 -32.5q58 0 88.5 36t30.5 90h110q0 -101 -68.5 -161t-160.5 -60z" />
    <glyph glyph-name="Agrave" unicode="&#xc0;" horiz-adv-x="716" 
d="M300 953q38 0 54 -38l49 -121q9 -21 -2.5 -36t-32.5 -15q-18 0 -30 15l-83 101q-13 16 -13 36q0 24 17 41t41 17zM358 703q27 0 45 -39l263 -592q5 -12 5 -23q0 -23 -16.5 -39t-38.5 -16q-36 0 -50 33l-75 169h-266l-75 -169q-14 -33 -50 -33q-22 0 -38.5 16t-16.5 39
q0 11 5 23l263 592q18 39 45 39zM358 514l-97 -222h194z" />
    <glyph glyph-name="Aacute" unicode="&#xc1;" horiz-adv-x="716" 
d="M406 953q24 0 41 -17t17 -41q0 -20 -13 -36l-83 -101q-12 -15 -30 -15q-21 0 -32.5 15t-2.5 36l49 121q16 38 54 38zM358 703q27 0 45 -39l263 -592q5 -12 5 -23q0 -23 -16.5 -39t-38.5 -16q-36 0 -50 33l-75 169h-266l-75 -169q-14 -33 -50 -33q-22 0 -38.5 16t-16.5 39
q0 11 5 23l263 592q18 39 45 39zM358 514l-97 -222h194z" />
    <glyph glyph-name="Acircumflex" unicode="&#xc2;" horiz-adv-x="716" 
d="M420 947q36 0 54 -31l41 -70q13 -23 5.5 -38.5t-33.5 -15.5q-32 0 -55 24l-76 80l-76 -80q-23 -24 -55 -24q-26 0 -33.5 15.5t5.5 38.5l41 70q18 31 54 31h128zM358 703q27 0 45 -39l263 -592q5 -12 5 -23q0 -23 -16.5 -39t-38.5 -16q-36 0 -50 33l-75 169h-266l-75 -169
q-14 -33 -50 -33q-22 0 -38.5 16t-16.5 39q0 11 5 23l263 592q18 39 45 39zM358 514l-97 -222h194z" />
    <glyph glyph-name="Atilde" unicode="&#xc3;" horiz-adv-x="716" 
d="M280 918q40 0 94.5 -33.5t77.5 -33.5q34 0 45 20q8 15 26 15q14 0 23 -11t5 -25q-10 -40 -41 -63.5t-72 -23.5q-39 0 -95 37.5t-82 37.5q-34 0 -44 -26q-7 -17 -26 -17q-14 0 -22 10.5t-5 23.5q10 40 41.5 64.5t74.5 24.5zM358 703q27 0 45 -39l263 -592q5 -12 5 -23
q0 -23 -16.5 -39t-38.5 -16q-36 0 -50 33l-75 169h-266l-75 -169q-14 -33 -50 -33q-22 0 -38.5 16t-16.5 39q0 11 5 23l263 592q18 39 45 39zM358 514l-97 -222h194z" />
    <glyph glyph-name="Adieresis" unicode="&#xc4;" horiz-adv-x="716" 
d="M234 771q-25 0 -42.5 17.5t-17.5 42.5q0 24 17.5 41.5t42.5 17.5t42.5 -17.5t17.5 -41.5q0 -25 -17.5 -42.5t-42.5 -17.5zM482 771q-25 0 -42.5 17.5t-17.5 42.5q0 24 17.5 41.5t42.5 17.5t42.5 -17.5t17.5 -41.5q0 -25 -17.5 -42.5t-42.5 -17.5zM358 703q27 0 45 -39
l263 -592q5 -12 5 -23q0 -23 -16.5 -39t-38.5 -16q-36 0 -50 33l-75 169h-266l-75 -169q-14 -33 -50 -33q-22 0 -38.5 16t-16.5 39q0 11 5 23l263 592q18 39 45 39zM358 514l-97 -222h194z" />
    <glyph glyph-name="Aring" unicode="&#xc5;" horiz-adv-x="716" 
d="M359 980q41 0 70.5 -30t29.5 -71t-29.5 -70.5t-70.5 -29.5q-43 0 -73 29.5t-30 70.5q0 42 30 71.5t73 29.5zM357 912q-13 0 -22 -9.5t-9 -22.5t9 -22t22 -9t22.5 9t9.5 22t-9.5 22.5t-22.5 9.5zM358 703q27 0 45 -39l263 -592q5 -12 5 -23q0 -23 -16.5 -39t-38.5 -16
q-36 0 -50 33l-75 169h-266l-75 -169q-14 -33 -50 -33q-22 0 -38.5 16t-16.5 39q0 11 5 23l263 592q18 39 45 39zM358 514l-97 -222h194z" />
    <glyph glyph-name="AE" unicode="&#xc6;" horiz-adv-x="1033" 
d="M944 99q20 0 35 -14.5t15 -34.5q0 -21 -15 -35.5t-35 -14.5h-363q-27 0 -44.5 17.5t-17.5 44.5v139h-229l-137 -201h-123l479 700h425q20 0 35 -14.5t15 -34.5q0 -21 -15 -35.5t-35 -14.5h-299v-200h199q20 0 35 -14.5t15 -34.5q0 -21 -15 -35.5t-35 -14.5h-199v-203h309
zM355 296h164v240z" />
    <glyph glyph-name="Ccedilla" unicode="&#xc7;" horiz-adv-x="634" 
d="M539 147q23 0 39 -16t16 -39q0 -29 -25 -46q-66 -43 -144 -51l-43 -46q38 -6 63.5 -31.5t25.5 -61.5q0 -49 -46 -73t-118 -21q-13 0 -19 6t-3 14q7 18 27 19q72 9 72 55q0 20 -15 32t-34 4q-11 -5 -19 -3t-16 15q-12 20 -2 37l35 58q-119 22 -203.5 118.5t-84.5 231.5
q0 102 50.5 185.5t129.5 128t167 44.5q93 0 177 -53q25 -17 25 -46q0 -23 -16 -39t-39 -16q-18 0 -30 9q-58 38 -115 38q-92 0 -161.5 -72.5t-69.5 -177.5q0 -106 69.5 -178t161.5 -72q58 0 114 38q12 9 31 9z" />
    <glyph glyph-name="Egrave" unicode="&#xc8;" horiz-adv-x="590" 
d="M247 953q38 0 54 -38l49 -121q9 -21 -2.5 -36t-32.5 -15q-18 0 -30 15l-83 101q-13 16 -13 36q0 24 17 41t41 17zM181 99h309q20 0 35 -14.5t15 -34.5q0 -21 -15 -35.5t-35 -14.5h-363q-27 0 -44.5 17.5t-17.5 44.5v576q0 27 17.5 44.5t44.5 17.5h353q20 0 35 -14.5
t15 -34.5q0 -21 -15 -35.5t-35 -14.5h-299v-200h199q20 0 35 -14.5t15 -34.5q0 -21 -15 -35.5t-35 -14.5h-199v-203z" />
    <glyph glyph-name="Eacute" unicode="&#xc9;" horiz-adv-x="590" 
d="M353 953q24 0 41 -17t17 -41q0 -20 -13 -36l-83 -101q-12 -15 -30 -15q-21 0 -32.5 15t-2.5 36l49 121q16 38 54 38zM181 99h309q20 0 35 -14.5t15 -34.5q0 -21 -15 -35.5t-35 -14.5h-363q-27 0 -44.5 17.5t-17.5 44.5v576q0 27 17.5 44.5t44.5 17.5h353q20 0 35 -14.5
t15 -34.5q0 -21 -15 -35.5t-35 -14.5h-299v-200h199q20 0 35 -14.5t15 -34.5q0 -21 -15 -35.5t-35 -14.5h-199v-203z" />
    <glyph glyph-name="Ecircumflex" unicode="&#xca;" horiz-adv-x="590" 
d="M367 947q36 0 54 -31l41 -70q13 -23 5.5 -38.5t-33.5 -15.5q-32 0 -55 24l-76 80l-76 -80q-23 -24 -55 -24q-26 0 -33.5 15.5t5.5 38.5l41 70q18 31 54 31h128zM181 99h309q20 0 35 -14.5t15 -34.5q0 -21 -15 -35.5t-35 -14.5h-363q-27 0 -44.5 17.5t-17.5 44.5v576
q0 27 17.5 44.5t44.5 17.5h353q20 0 35 -14.5t15 -34.5q0 -21 -15 -35.5t-35 -14.5h-299v-200h199q20 0 35 -14.5t15 -34.5q0 -21 -15 -35.5t-35 -14.5h-199v-203z" />
    <glyph glyph-name="Edieresis" unicode="&#xcb;" horiz-adv-x="590" 
d="M181 771q-25 0 -42.5 17.5t-17.5 42.5q0 24 17.5 41.5t42.5 17.5t42.5 -17.5t17.5 -41.5q0 -25 -17.5 -42.5t-42.5 -17.5zM429 771q-25 0 -42.5 17.5t-17.5 42.5q0 24 17.5 41.5t42.5 17.5t42.5 -17.5t17.5 -41.5q0 -25 -17.5 -42.5t-42.5 -17.5zM181 99h309
q20 0 35 -14.5t15 -34.5q0 -21 -15 -35.5t-35 -14.5h-363q-27 0 -44.5 17.5t-17.5 44.5v576q0 27 17.5 44.5t44.5 17.5h353q20 0 35 -14.5t15 -34.5q0 -21 -15 -35.5t-35 -14.5h-299v-200h199q20 0 35 -14.5t15 -34.5q0 -21 -15 -35.5t-35 -14.5h-199v-203z" />
    <glyph glyph-name="Igrave" unicode="&#xcc;" horiz-adv-x="245" 
d="M65 953q38 0 54 -38l49 -121q9 -21 -2.5 -36t-32.5 -15q-18 0 -30 15l-83 101q-13 16 -13 36q0 24 17 41t41 17zM123 703q23 0 40 -17.5t17 -40.5v-593q0 -23 -17 -40.5t-40 -17.5q-24 0 -41 17.5t-17 40.5v593q0 23 17 40.5t41 17.5z" />
    <glyph glyph-name="Iacute" unicode="&#xcd;" horiz-adv-x="245" 
d="M171 953q24 0 41 -17t17 -41q0 -20 -13 -36l-83 -101q-12 -15 -30 -15q-21 0 -32.5 15t-2.5 36l49 121q16 38 54 38zM123 703q23 0 40 -17.5t17 -40.5v-593q0 -23 -17 -40.5t-40 -17.5q-24 0 -41 17.5t-17 40.5v593q0 23 17 40.5t41 17.5z" />
    <glyph glyph-name="Icircumflex" unicode="&#xce;" horiz-adv-x="245" 
d="M185 947q36 0 54 -31l41 -70q13 -23 5.5 -38.5t-33.5 -15.5q-32 0 -55 24l-76 80l-76 -80q-23 -24 -55 -24q-26 0 -33.5 15.5t5.5 38.5l41 70q18 31 54 31h128zM123 703q23 0 40 -17.5t17 -40.5v-593q0 -23 -17 -40.5t-40 -17.5q-24 0 -41 17.5t-17 40.5v593
q0 23 17 40.5t41 17.5z" />
    <glyph glyph-name="Idieresis" unicode="&#xcf;" horiz-adv-x="245" 
d="M-1 771q-25 0 -42.5 17.5t-17.5 42.5q0 24 17.5 41.5t42.5 17.5t42.5 -17.5t17.5 -41.5q0 -25 -17.5 -42.5t-42.5 -17.5zM247 771q-25 0 -42.5 17.5t-17.5 42.5q0 24 17.5 41.5t42.5 17.5t42.5 -17.5t17.5 -41.5q0 -25 -17.5 -42.5t-42.5 -17.5zM123 703q23 0 40 -17.5
t17 -40.5v-593q0 -23 -17 -40.5t-40 -17.5q-24 0 -41 17.5t-17 40.5v593q0 23 17 40.5t41 17.5z" />
    <glyph glyph-name="Eth" unicode="&#xd0;" horiz-adv-x="792" 
d="M368 700q144 0 247 -102t103 -246q0 -147 -102.5 -249.5t-247.5 -102.5h-163q-27 0 -44.5 17.5t-17.5 44.5v238h-23q-18 0 -31.5 13t-13.5 32t13.5 32t31.5 13h23v248q0 27 17.5 44.5t44.5 17.5h163zM368 96q106 0 171.5 73t65.5 183q0 108 -66 180t-171 72h-112v-214h96
q18 0 31.5 -13t13.5 -32t-13.5 -32t-31.5 -13h-96v-204h112z" />
    <glyph glyph-name="Ntilde" unicode="&#xd1;" horiz-adv-x="687" 
d="M266 918q40 0 94.5 -33.5t77.5 -33.5q34 0 45 20q8 15 26 15q14 0 23 -11t5 -25q-10 -40 -41 -63.5t-72 -23.5q-39 0 -95 37.5t-82 37.5q-34 0 -44 -26q-7 -17 -26 -17q-14 0 -22 10.5t-5 23.5q10 40 41.5 64.5t74.5 24.5zM565 703q23 0 40 -17.5t17 -40.5v-599
q0 -24 -13.5 -38t-31.5 -14q-37 0 -61 34l-336 458v-433q0 -23 -17 -40.5t-40 -17.5q-24 0 -41 17.5t-17 40.5v598q0 24 15 38t35 14q36 0 60 -33l332 -456v431q0 23 17 40.5t41 17.5z" />
    <glyph glyph-name="Ograve" unicode="&#xd2;" horiz-adv-x="796" 
d="M340 953q38 0 54 -38l49 -121q9 -21 -2.5 -36t-32.5 -15q-18 0 -30 15l-83 101q-13 16 -13 36q0 24 17 41t41 17zM398 707q88 0 167.5 -44.5t130 -127.5t50.5 -185t-50.5 -185t-130 -127.5t-167.5 -44.5t-167.5 44.5t-130 127.5t-50.5 185t50.5 185t130 127.5t167.5 44.5
zM398 600q-93 0 -161.5 -70.5t-68.5 -179.5t68.5 -179.5t161.5 -70.5t161.5 70.5t68.5 179.5t-68 179.5t-162 70.5z" />
    <glyph glyph-name="Oacute" unicode="&#xd3;" horiz-adv-x="796" 
d="M446 953q24 0 41 -17t17 -41q0 -20 -13 -36l-83 -101q-12 -15 -30 -15q-21 0 -32.5 15t-2.5 36l49 121q16 38 54 38zM398 707q88 0 167.5 -44.5t130 -127.5t50.5 -185t-50.5 -185t-130 -127.5t-167.5 -44.5t-167.5 44.5t-130 127.5t-50.5 185t50.5 185t130 127.5
t167.5 44.5zM398 600q-93 0 -161.5 -70.5t-68.5 -179.5t68.5 -179.5t161.5 -70.5t161.5 70.5t68.5 179.5t-68 179.5t-162 70.5z" />
    <glyph glyph-name="Ocircumflex" unicode="&#xd4;" horiz-adv-x="796" 
d="M460 947q36 0 54 -31l41 -70q13 -23 5.5 -38.5t-33.5 -15.5q-32 0 -55 24l-76 80l-76 -80q-23 -24 -55 -24q-26 0 -33.5 15.5t5.5 38.5l41 70q18 31 54 31h128zM398 707q88 0 167.5 -44.5t130 -127.5t50.5 -185t-50.5 -185t-130 -127.5t-167.5 -44.5t-167.5 44.5
t-130 127.5t-50.5 185t50.5 185t130 127.5t167.5 44.5zM398 600q-93 0 -161.5 -70.5t-68.5 -179.5t68.5 -179.5t161.5 -70.5t161.5 70.5t68.5 179.5t-68 179.5t-162 70.5z" />
    <glyph glyph-name="Otilde" unicode="&#xd5;" horiz-adv-x="796" 
d="M320 918q40 0 94.5 -33.5t77.5 -33.5q34 0 45 20q8 15 26 15q14 0 23 -11t5 -25q-10 -40 -41 -63.5t-72 -23.5q-39 0 -95 37.5t-82 37.5q-34 0 -44 -26q-7 -17 -26 -17q-14 0 -22 10.5t-5 23.5q10 40 41.5 64.5t74.5 24.5zM398 707q88 0 167.5 -44.5t130 -127.5
t50.5 -185t-50.5 -185t-130 -127.5t-167.5 -44.5t-167.5 44.5t-130 127.5t-50.5 185t50.5 185t130 127.5t167.5 44.5zM398 600q-93 0 -161.5 -70.5t-68.5 -179.5t68.5 -179.5t161.5 -70.5t161.5 70.5t68.5 179.5t-68 179.5t-162 70.5z" />
    <glyph glyph-name="Odieresis" unicode="&#xd6;" horiz-adv-x="796" 
d="M274 771q-25 0 -42.5 17.5t-17.5 42.5q0 24 17.5 41.5t42.5 17.5t42.5 -17.5t17.5 -41.5q0 -25 -17.5 -42.5t-42.5 -17.5zM522 771q-25 0 -42.5 17.5t-17.5 42.5q0 24 17.5 41.5t42.5 17.5t42.5 -17.5t17.5 -41.5q0 -25 -17.5 -42.5t-42.5 -17.5zM398 707
q88 0 167.5 -44.5t130 -127.5t50.5 -185t-50.5 -185t-130 -127.5t-167.5 -44.5t-167.5 44.5t-130 127.5t-50.5 185t50.5 185t130 127.5t167.5 44.5zM398 600q-93 0 -161.5 -70.5t-68.5 -179.5t68.5 -179.5t161.5 -70.5t161.5 70.5t68.5 179.5t-68 179.5t-162 70.5z" />
    <glyph glyph-name="multiply" unicode="&#xd7;" horiz-adv-x="391" 
d="M320 217q14 -14 15 -33t-12 -33q-14 -13 -33.5 -12t-33.5 15l-56 56l-59 -58q-14 -14 -33 -15t-33 12q-13 14 -12 33.5t15 33.5l58 58l-57 57q-14 14 -15 33.5t12 32.5q14 13 33.5 12.5t33.5 -14.5l57 -57l55 55q14 14 33.5 15t32.5 -12q13 -14 12.5 -33.5t-14.5 -33.5
l-55 -55z" />
    <glyph glyph-name="Oslash" unicode="&#xd8;" horiz-adv-x="796" 
d="M592 645q70 -48 112 -125t42 -170q0 -102 -50.5 -185t-130 -127.5t-167.5 -44.5q-58 0 -109 19l-17 -36q-16 -32 -49 -32q-23 0 -39 16t-16 39q0 12 5 24l19 40q-65 49 -103.5 123.5t-38.5 163.5q0 102 50.5 185t130 127.5t167.5 44.5q47 0 95 -14l13 26q16 32 49 32
q23 0 39 -16t16 -39q0 -12 -5 -24zM168 350q0 -111 73 -184l205 429q-25 5 -48 5q-93 0 -161.5 -70.5t-68.5 -179.5zM398 100q93 0 161.5 70.5t68.5 179.5q0 119 -84 195l-208 -436q30 -9 62 -9z" />
    <glyph glyph-name="Ugrave" unicode="&#xd9;" horiz-adv-x="686" 
d="M285 953q38 0 54 -38l49 -121q9 -21 -2.5 -36t-32.5 -15q-18 0 -30 15l-83 101q-13 16 -13 36q0 24 17 41t41 17zM566 703q22 0 38.5 -16.5t16.5 -38.5v-393q0 -118 -81 -190t-197 -72q-117 0 -197.5 72t-80.5 190v393q0 22 16.5 38.5t38.5 16.5t38.5 -16.5t16.5 -38.5
v-392q0 -83 47.5 -125.5t120.5 -42.5t120.5 42.5t47.5 125.5v392q0 22 16.5 38.5t38.5 16.5z" />
    <glyph glyph-name="Uacute" unicode="&#xda;" horiz-adv-x="686" 
d="M391 953q24 0 41 -17t17 -41q0 -20 -13 -36l-83 -101q-12 -15 -30 -15q-21 0 -32.5 15t-2.5 36l49 121q16 38 54 38zM566 703q22 0 38.5 -16.5t16.5 -38.5v-393q0 -118 -81 -190t-197 -72q-117 0 -197.5 72t-80.5 190v393q0 22 16.5 38.5t38.5 16.5t38.5 -16.5
t16.5 -38.5v-392q0 -83 47.5 -125.5t120.5 -42.5t120.5 42.5t47.5 125.5v392q0 22 16.5 38.5t38.5 16.5z" />
    <glyph glyph-name="Ucircumflex" unicode="&#xdb;" horiz-adv-x="686" 
d="M405 947q36 0 54 -31l41 -70q13 -23 5.5 -38.5t-33.5 -15.5q-32 0 -55 24l-76 80l-76 -80q-23 -24 -55 -24q-26 0 -33.5 15.5t5.5 38.5l41 70q18 31 54 31h128zM566 703q22 0 38.5 -16.5t16.5 -38.5v-393q0 -118 -81 -190t-197 -72q-117 0 -197.5 72t-80.5 190v393
q0 22 16.5 38.5t38.5 16.5t38.5 -16.5t16.5 -38.5v-392q0 -83 47.5 -125.5t120.5 -42.5t120.5 42.5t47.5 125.5v392q0 22 16.5 38.5t38.5 16.5z" />
    <glyph glyph-name="Udieresis" unicode="&#xdc;" horiz-adv-x="686" 
d="M219 771q-25 0 -42.5 17.5t-17.5 42.5q0 24 17.5 41.5t42.5 17.5t42.5 -17.5t17.5 -41.5q0 -25 -17.5 -42.5t-42.5 -17.5zM467 771q-25 0 -42.5 17.5t-17.5 42.5q0 24 17.5 41.5t42.5 17.5t42.5 -17.5t17.5 -41.5q0 -25 -17.5 -42.5t-42.5 -17.5zM566 703
q22 0 38.5 -16.5t16.5 -38.5v-393q0 -118 -81 -190t-197 -72q-117 0 -197.5 72t-80.5 190v393q0 22 16.5 38.5t38.5 16.5t38.5 -16.5t16.5 -38.5v-392q0 -83 47.5 -125.5t120.5 -42.5t120.5 42.5t47.5 125.5v392q0 22 16.5 38.5t38.5 16.5z" />
    <glyph glyph-name="Yacute" unicode="&#xdd;" horiz-adv-x="634" 
d="M365 953q24 0 41 -17t17 -41q0 -20 -13 -36l-83 -101q-12 -15 -30 -15q-21 0 -32.5 15t-2.5 36l49 121q16 38 54 38zM548 703q21 0 36 -15t15 -36q0 -16 -9 -30l-218 -299v-274q0 -23 -16 -39t-39 -16t-39 16t-16 39v274l-218 299q-9 14 -9 30q0 21 15 36t36 15
q27 0 43 -22l188 -257l188 257q16 22 43 22z" />
    <glyph glyph-name="Thorn" unicode="&#xde;" horiz-adv-x="672" 
d="M335 565q124 0 198 -59t74 -154q0 -101 -73 -157t-199 -56h-150v-139h-110v700h110v-135h150zM337 234q38 0 63 3.5t49.5 15t36 36t11.5 63.5q0 67 -42 92.5t-118 25.5h-152v-236h152z" />
    <glyph glyph-name="germandbls" unicode="&#xdf;" horiz-adv-x="647" 
d="M313 700q103 0 176 -51t73 -134q0 -53 -32.5 -89.5t-76.5 -41.5q63 -8 106 -57.5t43 -113.5q0 -107 -64.5 -160t-182.5 -53h-49q-56 0 -56 49t56 49h49q65 0 101 25.5t36 89.5q0 60 -39 87t-98 27h-49q-56 0 -56 49t56 49h49q53 0 75 20.5t22 69.5q0 44 -38 67t-101 23
q-68 0 -100.5 -28t-32.5 -91v-430q0 -56 -55 -56t-55 56v430q0 98 68.5 156t174.5 58z" />
    <glyph glyph-name="agrave" unicode="&#xe0;" horiz-adv-x="612" 
d="M265 773q38 0 54 -38l49 -121q9 -21 -2.5 -36t-32.5 -15q-18 0 -30 15l-83 101q-13 16 -13 36q0 24 17 41t41 17zM285 526q109 0 157 -73v18q0 23 16 39t39 16t39 -16t16 -39v-422q0 -23 -16 -39t-39 -16t-39 16t-16 39v35q-3 -33 -50 -62t-107 -29q-43 0 -85 17
t-78.5 48.5t-59 84t-22.5 117.5q0 64 22.5 116.5t59 84t78.5 48.5t85 17zM299 431q-58 0 -103.5 -46t-45.5 -125t45.5 -125.5t103.5 -46.5q61 0 104.5 43.5t43.5 128.5q0 86 -43.5 128.5t-104.5 42.5z" />
    <glyph glyph-name="aacute" unicode="&#xe1;" horiz-adv-x="612" 
d="M371 773q24 0 41 -17t17 -41q0 -20 -13 -36l-83 -101q-12 -15 -30 -15q-21 0 -32.5 15t-2.5 36l49 121q16 38 54 38zM285 526q109 0 157 -73v18q0 23 16 39t39 16t39 -16t16 -39v-422q0 -23 -16 -39t-39 -16t-39 16t-16 39v35q-3 -33 -50 -62t-107 -29q-43 0 -85 17
t-78.5 48.5t-59 84t-22.5 117.5q0 64 22.5 116.5t59 84t78.5 48.5t85 17zM299 431q-58 0 -103.5 -46t-45.5 -125t45.5 -125.5t103.5 -46.5q61 0 104.5 43.5t43.5 128.5q0 86 -43.5 128.5t-104.5 42.5z" />
    <glyph glyph-name="acircumflex" unicode="&#xe2;" horiz-adv-x="612" 
d="M385 767q36 0 54 -31l41 -70q13 -23 5.5 -38.5t-33.5 -15.5q-32 0 -55 24l-76 80l-76 -80q-23 -24 -55 -24q-26 0 -33.5 15.5t5.5 38.5l41 70q18 31 54 31h128zM285 526q109 0 157 -73v18q0 23 16 39t39 16t39 -16t16 -39v-422q0 -23 -16 -39t-39 -16t-39 16t-16 39v35
q-3 -33 -50 -62t-107 -29q-43 0 -85 17t-78.5 48.5t-59 84t-22.5 117.5q0 64 22.5 116.5t59 84t78.5 48.5t85 17zM299 431q-58 0 -103.5 -46t-45.5 -125t45.5 -125.5t103.5 -46.5q61 0 104.5 43.5t43.5 128.5q0 86 -43.5 128.5t-104.5 42.5z" />
    <glyph glyph-name="atilde" unicode="&#xe3;" horiz-adv-x="612" 
d="M245 738q40 0 94.5 -33.5t77.5 -33.5q34 0 45 20q8 15 26 15q14 0 23 -11t5 -25q-10 -40 -41 -63.5t-72 -23.5q-39 0 -95 37.5t-82 37.5q-34 0 -44 -26q-7 -17 -26 -17q-14 0 -22 10.5t-5 23.5q10 40 41.5 64.5t74.5 24.5zM285 526q109 0 157 -73v18q0 23 16 39t39 16
t39 -16t16 -39v-422q0 -23 -16 -39t-39 -16t-39 16t-16 39v35q-3 -33 -50 -62t-107 -29q-43 0 -85 17t-78.5 48.5t-59 84t-22.5 117.5q0 64 22.5 116.5t59 84t78.5 48.5t85 17zM299 431q-58 0 -103.5 -46t-45.5 -125t45.5 -125.5t103.5 -46.5q61 0 104.5 43.5t43.5 128.5
q0 86 -43.5 128.5t-104.5 42.5z" />
    <glyph glyph-name="adieresis" unicode="&#xe4;" horiz-adv-x="612" 
d="M199 591q-25 0 -42.5 17.5t-17.5 42.5q0 24 17.5 41.5t42.5 17.5t42.5 -17.5t17.5 -41.5q0 -25 -17.5 -42.5t-42.5 -17.5zM447 591q-25 0 -42.5 17.5t-17.5 42.5q0 24 17.5 41.5t42.5 17.5t42.5 -17.5t17.5 -41.5q0 -25 -17.5 -42.5t-42.5 -17.5zM285 526q109 0 157 -73
v18q0 23 16 39t39 16t39 -16t16 -39v-422q0 -23 -16 -39t-39 -16t-39 16t-16 39v35q-3 -33 -50 -62t-107 -29q-43 0 -85 17t-78.5 48.5t-59 84t-22.5 117.5q0 64 22.5 116.5t59 84t78.5 48.5t85 17zM299 431q-58 0 -103.5 -46t-45.5 -125t45.5 -125.5t103.5 -46.5
q61 0 104.5 43.5t43.5 128.5q0 86 -43.5 128.5t-104.5 42.5z" />
    <glyph glyph-name="aring" unicode="&#xe5;" horiz-adv-x="612" 
d="M324 800q41 0 70.5 -30t29.5 -71t-30 -70.5t-70 -29.5q-43 0 -73 29.5t-30 70.5q0 42 30 71.5t73 29.5zM322 732q-13 0 -22 -9.5t-9 -22.5t9 -22t22 -9t22.5 9t9.5 22t-9.5 22.5t-22.5 9.5zM285 526q109 0 157 -73v18q0 23 16 39t39 16t39 -16t16 -39v-422q0 -23 -16 -39
t-39 -16t-39 16t-16 39v35q-3 -33 -50 -62t-107 -29q-43 0 -85 17t-78.5 48.5t-59 84t-22.5 117.5q0 64 22.5 116.5t59 84t78.5 48.5t85 17zM299 431q-58 0 -103.5 -46t-45.5 -125t45.5 -125.5t103.5 -46.5q61 0 104.5 43.5t43.5 128.5q0 86 -43.5 128.5t-104.5 42.5z" />
    <glyph glyph-name="ae" unicode="&#xe6;" horiz-adv-x="1005" 
d="M708 526q91 0 171.5 -69.5t80.5 -181.5q0 -58 -65 -58h-333q8 -60 52.5 -94t95.5 -34q62 0 102 30q18 12 33 12q22 0 35 -13.5t13 -35.5q0 -28 -24 -43q-67 -46 -160 -46q-83 0 -157 54q-1 -22 -17 -37.5t-38 -15.5q-23 0 -39 16t-16 39v35q-3 -33 -50 -62t-107 -29
q-43 0 -85 17t-78.5 48.5t-59 84t-22.5 117.5q0 64 22.5 116.5t59 84t78.5 48.5t85 17q109 0 157 -73v18q0 23 16 39t39 16q22 0 38 -15.5t17 -38.5q74 54 156 54zM299 88q61 0 104.5 43.5t43.5 128.5q0 86 -43.5 128.5t-104.5 42.5q-58 0 -103.5 -46t-45.5 -125
t45.5 -125.5t103.5 -46.5zM563 308h287q-10 58 -52 90t-90 32q-49 0 -92 -32t-53 -90z" />
    <glyph glyph-name="ccedilla" unicode="&#xe7;" horiz-adv-x="542" 
d="M442 145q21 0 35.5 -14.5t14.5 -35.5q0 -22 -26 -43q-50 -44 -119 -55l-45 -48q38 -6 63.5 -31.5t25.5 -61.5q0 -49 -46 -73t-118 -21q-13 0 -19 6t-3 14q7 18 27 19q72 9 72 55q0 20 -15 32t-34 4q-11 -5 -19 -3t-16 15q-12 20 -2 37l35 58q-84 19 -145.5 86t-62.5 174
q0 65 24.5 117.5t64 84t84 48.5t87.5 17q94 0 160 -58q27 -22 27 -44q0 -21 -14.5 -35.5t-35.5 -14.5t-35 14q-41 42 -102 42q-59 0 -104.5 -45t-45.5 -126q0 -80 45.5 -125t104.5 -45q61 0 102 41q15 15 35 15z" />
    <glyph glyph-name="egrave" unicode="&#xe8;" 
d="M245 773q38 0 54 -38l49 -121q9 -21 -2.5 -36t-32.5 -15q-18 0 -30 15l-83 101q-13 16 -13 36q0 24 17 41t41 17zM305 526q91 0 171.5 -69.5t80.5 -181.5q0 -58 -65 -58h-333q8 -60 52.5 -94t95.5 -34q61 0 102 30q18 12 33 12q22 0 35 -13.5t13 -35.5q0 -28 -24 -43
q-67 -46 -160 -46q-43 0 -87 16.5t-84 48t-65 84t-25 117.5q0 64 25 117t64.5 84.5t83.5 48.5t87 17zM305 430q-49 0 -92 -32t-53 -90h287q-10 58 -52 90t-90 32z" />
    <glyph glyph-name="eacute" unicode="&#xe9;" 
d="M351 773q24 0 41 -17t17 -41q0 -20 -13 -36l-83 -101q-12 -15 -30 -15q-21 0 -32.5 15t-2.5 36l49 121q16 38 54 38zM305 526q91 0 171.5 -69.5t80.5 -181.5q0 -58 -65 -58h-333q8 -60 52.5 -94t95.5 -34q61 0 102 30q18 12 33 12q22 0 35 -13.5t13 -35.5q0 -28 -24 -43
q-67 -46 -160 -46q-43 0 -87 16.5t-84 48t-65 84t-25 117.5q0 64 25 117t64.5 84.5t83.5 48.5t87 17zM305 430q-49 0 -92 -32t-53 -90h287q-10 58 -52 90t-90 32z" />
    <glyph glyph-name="ecircumflex" unicode="&#xea;" 
d="M365 767q36 0 54 -31l41 -70q13 -23 5.5 -38.5t-33.5 -15.5q-32 0 -55 24l-76 80l-76 -80q-23 -24 -55 -24q-26 0 -33.5 15.5t5.5 38.5l41 70q18 31 54 31h128zM305 526q91 0 171.5 -69.5t80.5 -181.5q0 -58 -65 -58h-333q8 -60 52.5 -94t95.5 -34q61 0 102 30
q18 12 33 12q22 0 35 -13.5t13 -35.5q0 -28 -24 -43q-67 -46 -160 -46q-43 0 -87 16.5t-84 48t-65 84t-25 117.5q0 64 25 117t64.5 84.5t83.5 48.5t87 17zM305 430q-49 0 -92 -32t-53 -90h287q-10 58 -52 90t-90 32z" />
    <glyph glyph-name="edieresis" unicode="&#xeb;" 
d="M179 591q-25 0 -42.5 17.5t-17.5 42.5q0 24 17.5 41.5t42.5 17.5t42.5 -17.5t17.5 -41.5q0 -25 -17.5 -42.5t-42.5 -17.5zM427 591q-25 0 -42.5 17.5t-17.5 42.5q0 24 17.5 41.5t42.5 17.5t42.5 -17.5t17.5 -41.5q0 -25 -17.5 -42.5t-42.5 -17.5zM305 526
q91 0 171.5 -69.5t80.5 -181.5q0 -58 -65 -58h-333q8 -60 52.5 -94t95.5 -34q61 0 102 30q18 12 33 12q22 0 35 -13.5t13 -35.5q0 -28 -24 -43q-67 -46 -160 -46q-43 0 -87 16.5t-84 48t-65 84t-25 117.5q0 64 25 117t64.5 84.5t83.5 48.5t87 17zM305 430q-49 0 -92 -32
t-53 -90h287q-10 58 -52 90t-90 32z" />
    <glyph glyph-name="igrave" unicode="&#xec;" horiz-adv-x="260" 
d="M72 773q38 0 54 -38l49 -121q9 -21 -2.5 -36t-32.5 -15q-18 0 -30 15l-83 101q-13 16 -13 36q0 24 17 41t41 17zM130 523q22 0 38.5 -16.5t16.5 -38.5v-418q0 -22 -16.5 -38.5t-38.5 -16.5t-38.5 16.5t-16.5 38.5v418q0 22 16.5 38.5t38.5 16.5z" />
    <glyph glyph-name="iacute" unicode="&#xed;" horiz-adv-x="260" 
d="M178 773q24 0 41 -17t17 -41q0 -20 -13 -36l-83 -101q-12 -15 -30 -15q-21 0 -32.5 15t-2.5 36l49 121q16 38 54 38zM130 523q22 0 38.5 -16.5t16.5 -38.5v-418q0 -22 -16.5 -38.5t-38.5 -16.5t-38.5 16.5t-16.5 38.5v418q0 22 16.5 38.5t38.5 16.5z" />
    <glyph glyph-name="icircumflex" unicode="&#xee;" horiz-adv-x="260" 
d="M192 767q36 0 54 -31l41 -70q13 -23 5.5 -38.5t-33.5 -15.5q-32 0 -55 24l-76 80l-76 -80q-23 -24 -55 -24q-26 0 -33.5 15.5t5.5 38.5l41 70q18 31 54 31h128zM130 523q22 0 38.5 -16.5t16.5 -38.5v-418q0 -22 -16.5 -38.5t-38.5 -16.5t-38.5 16.5t-16.5 38.5v418
q0 22 16.5 38.5t38.5 16.5z" />
    <glyph glyph-name="idieresis" unicode="&#xef;" horiz-adv-x="260" 
d="M6 591q-25 0 -42.5 17.5t-17.5 42.5q0 24 17.5 41.5t42.5 17.5t42.5 -17.5t17.5 -41.5q0 -25 -17.5 -42.5t-42.5 -17.5zM254 591q-25 0 -42.5 17.5t-17.5 42.5q0 24 17.5 41.5t42.5 17.5t42.5 -17.5t17.5 -41.5q0 -25 -17.5 -42.5t-42.5 -17.5zM130 523q22 0 38.5 -16.5
t16.5 -38.5v-418q0 -22 -16.5 -38.5t-38.5 -16.5t-38.5 16.5t-16.5 38.5v418q0 22 16.5 38.5t38.5 16.5z" />
    <glyph glyph-name="eth" unicode="&#xf0;" horiz-adv-x="594" 
d="M435 569q53 -79 76 -153t23 -164q0 -125 -73 -193.5t-182 -68.5q-101 0 -172.5 68.5t-71.5 193.5q0 129 66 198.5t178 69.5q61 0 87 -23l-39 53l-48 -6q-20 -3 -36.5 11t-16.5 35q0 17 11 30t28 16q-5 10 -5 21q0 20 14.5 34.5t34.5 14.5q24 0 39 -20l27 -35l31 4
q20 3 36.5 -11t16.5 -35q0 -26 -24 -40zM279 85q56 0 100.5 42.5t44.5 124.5q0 89 -39 130.5t-106 41.5q-61 0 -97.5 -41.5t-36.5 -130.5q0 -81 43 -124t91 -43z" />
    <glyph glyph-name="ntilde" unicode="&#xf1;" horiz-adv-x="603" 
d="M225 738q40 0 94.5 -33.5t77.5 -33.5q34 0 45 20q8 15 26 15q14 0 23 -11t5 -25q-10 -40 -41 -63.5t-72 -23.5q-39 0 -95 37.5t-82 37.5q-34 0 -44 -26q-7 -17 -26 -17q-14 0 -22 10.5t-5 23.5q10 40 41.5 64.5t74.5 24.5zM336 525q92 0 152 -56.5t60 -171.5v-247
q0 -22 -16 -38.5t-39 -16.5t-39 16.5t-16 38.5v241q0 139 -116 139q-60 0 -102.5 -46t-49.5 -85v-249q0 -22 -16 -38.5t-39 -16.5t-39 16.5t-16 38.5v418q0 22 16 38.5t39 16.5t39 -16.5t16 -38.5v-59q5 36 50 76t116 40z" />
    <glyph glyph-name="ograve" unicode="&#xf2;" horiz-adv-x="600" 
d="M242 773q38 0 54 -38l49 -121q9 -21 -2.5 -36t-32.5 -15q-18 0 -30 15l-83 101q-13 16 -13 36q0 24 17 41t41 17zM300 526q43 0 87 -17t83.5 -48.5t64.5 -84.5t25 -117q0 -65 -25 -117.5t-64.5 -84t-83.5 -48t-87 -16.5t-87 16.5t-83.5 48t-64.5 84t-25 117.5
q0 64 25 117t64.5 84.5t83.5 48.5t87 17zM300 430q-58 0 -104 -45t-46 -126q0 -80 46 -125t104 -45t104 45t46 125q0 81 -46 126t-104 45z" />
    <glyph glyph-name="oacute" unicode="&#xf3;" horiz-adv-x="600" 
d="M348 773q24 0 41 -17t17 -41q0 -20 -13 -36l-83 -101q-12 -15 -30 -15q-21 0 -32.5 15t-2.5 36l49 121q16 38 54 38zM300 526q43 0 87 -17t83.5 -48.5t64.5 -84.5t25 -117q0 -65 -25 -117.5t-64.5 -84t-83.5 -48t-87 -16.5t-87 16.5t-83.5 48t-64.5 84t-25 117.5
q0 64 25 117t64.5 84.5t83.5 48.5t87 17zM300 430q-58 0 -104 -45t-46 -126q0 -80 46 -125t104 -45t104 45t46 125q0 81 -46 126t-104 45z" />
    <glyph glyph-name="ocircumflex" unicode="&#xf4;" horiz-adv-x="600" 
d="M362 767q36 0 54 -31l41 -70q13 -23 5.5 -38.5t-33.5 -15.5q-32 0 -55 24l-76 80l-76 -80q-23 -24 -55 -24q-26 0 -33.5 15.5t5.5 38.5l41 70q18 31 54 31h128zM300 526q43 0 87 -17t83.5 -48.5t64.5 -84.5t25 -117q0 -65 -25 -117.5t-64.5 -84t-83.5 -48t-87 -16.5
t-87 16.5t-83.5 48t-64.5 84t-25 117.5q0 64 25 117t64.5 84.5t83.5 48.5t87 17zM300 430q-58 0 -104 -45t-46 -126q0 -80 46 -125t104 -45t104 45t46 125q0 81 -46 126t-104 45z" />
    <glyph glyph-name="otilde" unicode="&#xf5;" horiz-adv-x="600" 
d="M222 738q40 0 94.5 -33.5t77.5 -33.5q34 0 45 20q8 15 26 15q14 0 23 -11t5 -25q-10 -40 -41 -63.5t-72 -23.5q-39 0 -95 37.5t-82 37.5q-34 0 -44 -26q-7 -17 -26 -17q-14 0 -22 10.5t-5 23.5q10 40 41.5 64.5t74.5 24.5zM300 526q43 0 87 -17t83.5 -48.5t64.5 -84.5
t25 -117q0 -65 -25 -117.5t-64.5 -84t-83.5 -48t-87 -16.5t-87 16.5t-83.5 48t-64.5 84t-25 117.5q0 64 25 117t64.5 84.5t83.5 48.5t87 17zM300 430q-58 0 -104 -45t-46 -126q0 -80 46 -125t104 -45t104 45t46 125q0 81 -46 126t-104 45z" />
    <glyph glyph-name="odieresis" unicode="&#xf6;" horiz-adv-x="600" 
d="M176 591q-25 0 -42.5 17.5t-17.5 42.5q0 24 17.5 41.5t42.5 17.5t42.5 -17.5t17.5 -41.5q0 -25 -17.5 -42.5t-42.5 -17.5zM424 591q-25 0 -42.5 17.5t-17.5 42.5q0 24 17.5 41.5t42.5 17.5t42.5 -17.5t17.5 -41.5q0 -25 -17.5 -42.5t-42.5 -17.5zM300 526q43 0 87 -17
t83.5 -48.5t64.5 -84.5t25 -117q0 -65 -25 -117.5t-64.5 -84t-83.5 -48t-87 -16.5t-87 16.5t-83.5 48t-64.5 84t-25 117.5q0 64 25 117t64.5 84.5t83.5 48.5t87 17zM300 430q-58 0 -104 -45t-46 -126q0 -80 46 -125t104 -45t104 45t46 125q0 81 -46 126t-104 45z" />
    <glyph glyph-name="divide" unicode="&#xf7;" horiz-adv-x="425" 
d="M213 369q-27 0 -46 19t-19 46q0 26 19 45t46 19q26 0 45 -19t19 -45q0 -27 -19 -46t-45 -19zM344 322q20 0 34.5 -13t14.5 -32t-14.5 -32t-34.5 -13h-251q-20 0 -34 13t-14 32t14 32t34 13h251zM213 62q-27 0 -46 19t-19 46q0 26 19 45t46 19q26 0 45 -19t19 -45
q0 -27 -19 -46t-45 -19z" />
    <glyph glyph-name="oslash" unicode="&#xf8;" horiz-adv-x="600" 
d="M455 472q105 -75 105 -213q0 -65 -25 -117.5t-64.5 -84t-83.5 -48t-87 -16.5q-36 0 -69 10l-15 -30q-14 -29 -46 -29q-20 0 -35 15t-15 36q0 12 5 22l15 32q-100 77 -100 210q0 64 25 117t64.5 84.5t83.5 48.5t87 17q30 0 65 -9l18 38q14 29 46 29q20 0 35 -15t15 -36
q0 -12 -5 -22zM150 259q0 -68 36 -114l136 283q-14 2 -22 2q-58 0 -104 -45t-46 -126zM300 89q58 0 104 45t46 125q0 72 -40 119l-137 -286q13 -3 27 -3z" />
    <glyph glyph-name="ugrave" unicode="&#xf9;" horiz-adv-x="597" 
d="M238 773q38 0 54 -38l49 -121q9 -21 -2.5 -36t-32.5 -15q-18 0 -30 15l-83 101q-13 16 -13 36q0 24 17 41t41 17zM427 468q0 22 16.5 38.5t38.5 16.5t38.5 -16.5t16.5 -38.5v-418q0 -22 -16.5 -38.5t-38.5 -16.5t-38.5 16.5t-16.5 38.5v66q-10 -39 -56.5 -80.5
t-113.5 -41.5q-88 0 -145 55t-57 169v250q0 22 16.5 38.5t38.5 16.5t38.5 -16.5t16.5 -38.5v-244q0 -69 28.5 -102t74.5 -33q60 0 105.5 48.5t53.5 96.5v234z" />
    <glyph glyph-name="uacute" unicode="&#xfa;" horiz-adv-x="597" 
d="M344 773q24 0 41 -17t17 -41q0 -20 -13 -36l-83 -101q-12 -15 -30 -15q-21 0 -32.5 15t-2.5 36l49 121q16 38 54 38zM427 468q0 22 16.5 38.5t38.5 16.5t38.5 -16.5t16.5 -38.5v-418q0 -22 -16.5 -38.5t-38.5 -16.5t-38.5 16.5t-16.5 38.5v66q-10 -39 -56.5 -80.5
t-113.5 -41.5q-88 0 -145 55t-57 169v250q0 22 16.5 38.5t38.5 16.5t38.5 -16.5t16.5 -38.5v-244q0 -69 28.5 -102t74.5 -33q60 0 105.5 48.5t53.5 96.5v234z" />
    <glyph glyph-name="ucircumflex" unicode="&#xfb;" horiz-adv-x="597" 
d="M358 767q36 0 54 -31l41 -70q13 -23 5.5 -38.5t-33.5 -15.5q-32 0 -55 24l-76 80l-76 -80q-23 -24 -55 -24q-26 0 -33.5 15.5t5.5 38.5l41 70q18 31 54 31h128zM427 468q0 22 16.5 38.5t38.5 16.5t38.5 -16.5t16.5 -38.5v-418q0 -22 -16.5 -38.5t-38.5 -16.5t-38.5 16.5
t-16.5 38.5v66q-10 -39 -56.5 -80.5t-113.5 -41.5q-88 0 -145 55t-57 169v250q0 22 16.5 38.5t38.5 16.5t38.5 -16.5t16.5 -38.5v-244q0 -69 28.5 -102t74.5 -33q60 0 105.5 48.5t53.5 96.5v234z" />
    <glyph glyph-name="udieresis" unicode="&#xfc;" horiz-adv-x="597" 
d="M172 591q-25 0 -42.5 17.5t-17.5 42.5q0 24 17.5 41.5t42.5 17.5t42.5 -17.5t17.5 -41.5q0 -25 -17.5 -42.5t-42.5 -17.5zM420 591q-25 0 -42.5 17.5t-17.5 42.5q0 24 17.5 41.5t42.5 17.5t42.5 -17.5t17.5 -41.5q0 -25 -17.5 -42.5t-42.5 -17.5zM427 468q0 22 16.5 38.5
t38.5 16.5t38.5 -16.5t16.5 -38.5v-418q0 -22 -16.5 -38.5t-38.5 -16.5t-38.5 16.5t-16.5 38.5v66q-10 -39 -56.5 -80.5t-113.5 -41.5q-88 0 -145 55t-57 169v250q0 22 16.5 38.5t38.5 16.5t38.5 -16.5t16.5 -38.5v-244q0 -69 28.5 -102t74.5 -33q60 0 105.5 48.5t53.5 96.5
v234z" />
    <glyph glyph-name="yacute" unicode="&#xfd;" horiz-adv-x="577" 
d="M341 773q24 0 41 -17t17 -41q0 -20 -13 -36l-83 -101q-12 -15 -30 -15q-21 0 -32.5 15t-2.5 36l49 121q16 38 54 38zM445 494q13 32 46 32q21 0 36 -15t15 -36q0 -7 -4 -19l-262 -621q-14 -31 -46 -31q-21 0 -35.5 15t-14.5 35q0 7 4 19l57 142l-202 441q-4 8 -4 20
q0 20 14.5 35t35.5 15q32 0 46 -30l162 -352z" />
    <glyph glyph-name="thorn" unicode="&#xfe;" horiz-adv-x="601" 
d="M331 526q43 0 85 -17t78.5 -48.5t59 -84t22.5 -116.5q0 -65 -22.5 -117.5t-59 -84t-78.5 -48.5t-85 -17h-2h-2q-53 0 -96.5 23t-56.5 53v-20q0 -12 -4 -20v-170q0 -23 -16 -39t-39 -16t-39 16t-16 39v612q0 12 4 20v160q0 23 16 39t39 16t39 -16t16 -39v-192
q51 67 153 67h2h2zM169 260q0 -85 43 -128t103 -44q57 1 102 47t45 125q0 78 -45 124t-102 47q-61 -1 -103.5 -43.5t-42.5 -127.5z" />
    <glyph glyph-name="ydieresis" unicode="&#xff;" horiz-adv-x="577" 
d="M169 591q-25 0 -42.5 17.5t-17.5 42.5q0 24 17.5 41.5t42.5 17.5t42.5 -17.5t17.5 -41.5q0 -25 -17.5 -42.5t-42.5 -17.5zM417 591q-25 0 -42.5 17.5t-17.5 42.5q0 24 17.5 41.5t42.5 17.5t42.5 -17.5t17.5 -41.5q0 -25 -17.5 -42.5t-42.5 -17.5zM445 494q13 32 46 32
q21 0 36 -15t15 -36q0 -7 -4 -19l-262 -621q-14 -31 -46 -31q-21 0 -35.5 15t-14.5 35q0 7 4 19l57 142l-202 441q-4 8 -4 20q0 20 14.5 35t35.5 15q32 0 46 -30l162 -352z" />
    <glyph glyph-name="Amacron" unicode="&#x100;" horiz-adv-x="716" 
d="M502 880q20 0 34 -14t14 -33q0 -20 -14 -34t-34 -14h-288q-20 0 -34 14t-14 34q0 19 14 33t34 14h288zM358 703q27 0 45 -39l263 -592q5 -12 5 -23q0 -23 -16.5 -39t-38.5 -16q-36 0 -50 33l-75 169h-266l-75 -169q-14 -33 -50 -33q-22 0 -38.5 16t-16.5 39q0 11 5 23
l263 592q18 39 45 39zM358 514l-97 -222h194z" />
    <glyph glyph-name="amacron" unicode="&#x101;" horiz-adv-x="612" 
d="M467 700q20 0 34 -14t14 -33q0 -20 -14 -34t-34 -14h-288q-20 0 -34 14t-14 34q0 19 14 33t34 14h288zM285 526q109 0 157 -73v18q0 23 16 39t39 16t39 -16t16 -39v-422q0 -23 -16 -39t-39 -16t-39 16t-16 39v35q-3 -33 -50 -62t-107 -29q-43 0 -85 17t-78.5 48.5t-59 84
t-22.5 117.5q0 64 22.5 116.5t59 84t78.5 48.5t85 17zM299 431q-58 0 -103.5 -46t-45.5 -125t45.5 -125.5t103.5 -46.5q61 0 104.5 43.5t43.5 128.5q0 86 -43.5 128.5t-104.5 42.5z" />
    <glyph glyph-name="Abreve" unicode="&#x102;" horiz-adv-x="716" 
d="M481 953q23 0 35.5 -18t7.5 -38q-16 -56 -59 -92.5t-108 -36.5q-59 0 -102.5 36.5t-61.5 91.5q-6 24 7 40.5t34 16.5q31 0 41 -27q22 -57 83 -57q60 0 82 56q10 28 41 28zM358 703q27 0 45 -39l263 -592q5 -12 5 -23q0 -23 -16.5 -39t-38.5 -16q-36 0 -50 33l-75 169
h-266l-75 -169q-14 -33 -50 -33q-22 0 -38.5 16t-16.5 39q0 11 5 23l263 592q18 39 45 39zM358 514l-97 -222h194z" />
    <glyph glyph-name="abreve" unicode="&#x103;" horiz-adv-x="612" 
d="M446 773q23 0 35.5 -18t7.5 -38q-16 -56 -59 -92.5t-108 -36.5q-59 0 -102.5 36.5t-61.5 91.5q-6 24 7 40.5t34 16.5q31 0 41 -27q22 -57 83 -57q60 0 82 56q11 28 41 28zM285 526q109 0 157 -73v18q0 23 16 39t39 16t39 -16t16 -39v-422q0 -23 -16 -39t-39 -16t-39 16
t-16 39v35q-3 -33 -50 -62t-107 -29q-43 0 -85 17t-78.5 48.5t-59 84t-22.5 117.5q0 64 22.5 116.5t59 84t78.5 48.5t85 17zM299 431q-58 0 -103.5 -46t-45.5 -125t45.5 -125.5t103.5 -46.5q61 0 104.5 43.5t43.5 128.5q0 86 -43.5 128.5t-104.5 42.5z" />
    <glyph glyph-name="Aogonek" unicode="&#x104;" horiz-adv-x="716" 
d="M671 49q0 -19 -11 -33q-13 -19 -46 -40.5t-56.5 -41.5t-23.5 -42q0 -46 56 -46q28 0 36 -18q6 -13 2 -23.5t-18 -12.5q-39 -4 -79 -2t-70.5 24t-30.5 61q0 32 21.5 60.5t47 45t44 34.5t14.5 32l-66 149h-266l-75 -169q-14 -33 -50 -33q-22 0 -38.5 16t-16.5 39q0 11 5 23
l263 592q18 39 45 39t45 -39l263 -592q5 -12 5 -22v-1zM261 292h194l-97 222z" />
    <glyph glyph-name="aogonek" unicode="&#x105;" horiz-adv-x="612" 
d="M497 526q23 0 39 -16t16 -39v-422q0 -25 -18 -41q-13 -14 -44 -35.5t-50.5 -40.5t-19.5 -40q0 -46 56 -46q28 0 36 -18q6 -13 2 -23.5t-18 -12.5q-39 -4 -79 -2t-70.5 24t-30.5 61q0 33 19.5 61.5t43.5 45t43.5 35.5t19.5 33v34q-3 -33 -50 -62t-107 -29q-43 0 -85 17
t-78.5 48.5t-59 84t-22.5 117.5q0 64 22.5 116.5t59 84t78.5 48.5t85 17q109 0 157 -73v18q0 23 16 39t39 16zM299 88q61 0 104.5 43.5t43.5 128.5q0 86 -43.5 128.5t-104.5 42.5q-58 0 -103.5 -46t-45.5 -125t45.5 -125.5t103.5 -46.5z" />
    <glyph glyph-name="Cacute" unicode="&#x106;" horiz-adv-x="634" 
d="M417 953q24 0 41 -17t17 -41q0 -20 -13 -36l-83 -101q-12 -15 -30 -15q-21 0 -32.5 15t-2.5 36l49 121q16 38 54 38zM392 707q93 0 177 -53q25 -17 25 -46q0 -23 -16 -39t-39 -16q-18 0 -30 9q-58 38 -115 38q-92 0 -161.5 -72.5t-69.5 -177.5q0 -106 69.5 -178
t161.5 -72q58 0 114 38q12 9 31 9q23 0 39 -16t16 -39q0 -29 -25 -46q-82 -53 -177 -53q-136 0 -241.5 102t-105.5 254q0 102 50.5 185.5t129.5 128t167 44.5z" />
    <glyph glyph-name="cacute" unicode="&#x107;" horiz-adv-x="542" 
d="M353 773q24 0 41 -17t17 -41q0 -20 -13 -36l-83 -101q-12 -15 -30 -15q-21 0 -32.5 15t-2.5 36l49 121q16 38 54 38zM305 526q94 0 160 -58q27 -22 27 -44q0 -21 -14.5 -35.5t-35.5 -14.5t-35 14q-41 42 -102 42q-59 0 -104.5 -45t-45.5 -126q0 -80 45.5 -125t104.5 -45
q61 0 102 41q15 15 35 15q21 0 35.5 -14.5t14.5 -35.5q0 -22 -26 -43q-67 -59 -161 -59q-95 0 -177 71t-83 195q0 65 24.5 117.5t64 84t84 48.5t87.5 17z" />
    <glyph glyph-name="Cdotaccent" unicode="&#x10a;" horiz-adv-x="634" 
d="M369 824q-23 0 -40 17t-17 40t17 40t40 17t40 -17t17 -40t-17 -40t-40 -17zM392 707q93 0 177 -53q25 -17 25 -46q0 -23 -16 -39t-39 -16q-18 0 -30 9q-58 38 -115 38q-92 0 -161.5 -72.5t-69.5 -177.5q0 -106 69.5 -178t161.5 -72q58 0 114 38q12 9 31 9q23 0 39 -16
t16 -39q0 -29 -25 -46q-82 -53 -177 -53q-136 0 -241.5 102t-105.5 254q0 102 50.5 185.5t129.5 128t167 44.5z" />
    <glyph glyph-name="cdotaccent" unicode="&#x10b;" horiz-adv-x="542" 
d="M305 644q-23 0 -40 17t-17 40t17 40t40 17t40 -17t17 -40t-17 -40t-40 -17zM305 526q94 0 160 -58q27 -22 27 -44q0 -21 -14.5 -35.5t-35.5 -14.5t-35 14q-41 42 -102 42q-59 0 -104.5 -45t-45.5 -126q0 -80 45.5 -125t104.5 -45q61 0 102 41q15 15 35 15
q21 0 35.5 -14.5t14.5 -35.5q0 -22 -26 -43q-67 -59 -161 -59q-95 0 -177 71t-83 195q0 65 24.5 117.5t64 84t84 48.5t87.5 17z" />
    <glyph glyph-name="Ccaron" unicode="&#x10c;" horiz-adv-x="634" 
d="M427 802h-128q-36 0 -54 31l-41 70q-13 23 -5.5 38.5t33.5 15.5q32 0 55 -24l76 -80l76 80q23 24 55 24q26 0 33.5 -15.5t-5.5 -38.5l-41 -70q-18 -31 -54 -31zM392 707q93 0 177 -53q25 -17 25 -46q0 -23 -16 -39t-39 -16q-18 0 -30 9q-58 38 -115 38
q-92 0 -161.5 -72.5t-69.5 -177.5q0 -106 69.5 -178t161.5 -72q58 0 114 38q12 9 31 9q23 0 39 -16t16 -39q0 -29 -25 -46q-82 -53 -177 -53q-136 0 -241.5 102t-105.5 254q0 102 50.5 185.5t129.5 128t167 44.5z" />
    <glyph glyph-name="ccaron" unicode="&#x10d;" horiz-adv-x="542" 
d="M363 622h-128q-36 0 -54 31l-41 70q-13 23 -5.5 38.5t33.5 15.5q32 0 55 -24l76 -80l76 80q23 24 55 24q26 0 33.5 -15.5t-5.5 -38.5l-41 -70q-18 -31 -54 -31zM305 526q94 0 160 -58q27 -22 27 -44q0 -21 -14.5 -35.5t-35.5 -14.5t-35 14q-41 42 -102 42
q-59 0 -104.5 -45t-45.5 -126q0 -80 45.5 -125t104.5 -45q61 0 102 41q15 15 35 15q21 0 35.5 -14.5t14.5 -35.5q0 -22 -26 -43q-67 -59 -161 -59q-95 0 -177 71t-83 195q0 65 24.5 117.5t64 84t84 48.5t87.5 17z" />
    <glyph glyph-name="Dcaron" unicode="&#x10e;" horiz-adv-x="695" 
d="M408 802h-128q-36 0 -54 31l-41 70q-13 23 -5.5 38.5t33.5 15.5q32 0 55 -24l76 -80l76 80q23 24 55 24q26 0 33.5 -15.5t-5.5 -38.5l-41 -70q-18 -31 -54 -31zM295 700q144 0 247 -102t103 -246q0 -147 -102.5 -249.5t-247.5 -102.5h-163q-27 0 -44.5 17.5t-17.5 44.5
v576q0 27 17.5 44.5t44.5 17.5h163zM295 96q106 0 171.5 73t65.5 183q0 108 -66 180t-171 72h-112v-508h112z" />
    <glyph glyph-name="dcaron" unicode="&#x10f;" horiz-adv-x="874" 
d="M280 526q109 0 157 -73v198q0 23 16.5 39t38.5 16t38.5 -16t16.5 -39v-602q0 -23 -16.5 -39t-38.5 -16t-38.5 16t-16.5 39v35q-3 -33 -50 -62t-107 -29q-43 0 -85 17t-78.5 48.5t-59 84t-22.5 117.5q0 64 22.5 116.5t59 84t78.5 48.5t85 17zM716 706q24 0 41 -17t17 -41
q0 -20 -13 -36l-83 -101q-12 -15 -30 -15q-21 0 -32.5 15t-2.5 36l49 121q16 38 54 38zM294 88q61 0 104.5 43.5t43.5 128.5q0 86 -43.5 128.5t-104.5 42.5q-58 0 -103.5 -46t-45.5 -125t45.5 -125.5t103.5 -46.5z" />
    <glyph glyph-name="Dcroat" unicode="&#x110;" horiz-adv-x="792" 
d="M368 700q144 0 247 -102t103 -246q0 -147 -102.5 -249.5t-247.5 -102.5h-163q-27 0 -44.5 17.5t-17.5 44.5v238h-23q-18 0 -31.5 13t-13.5 32t13.5 32t31.5 13h23v248q0 27 17.5 44.5t44.5 17.5h163zM368 96q106 0 171.5 73t65.5 183q0 108 -66 180t-171 72h-112v-214h96
q18 0 31.5 -13t13.5 -32t-13.5 -32t-31.5 -13h-96v-204h112z" />
    <glyph glyph-name="dcroat" unicode="&#x111;" horiz-adv-x="682" 
d="M586 636q20 0 34 -14t14 -33q0 -20 -14 -34t-34 -14h-39v-492q0 -23 -16.5 -39t-38.5 -16t-38.5 16t-16.5 39v35q-3 -33 -50 -62t-107 -29q-43 0 -85 17t-78.5 48.5t-59 84t-22.5 117.5q0 64 22.5 116.5t59 84t78.5 48.5t85 17q109 0 157 -73v88h-139q-20 0 -34 14
t-14 34q0 19 14 33t34 14h139v15q0 23 16.5 39t38.5 16t38.5 -16t16.5 -39v-15h39zM294 88q61 0 104.5 43.5t43.5 128.5q0 86 -43.5 128.5t-104.5 42.5q-58 0 -103.5 -46t-45.5 -125t45.5 -125.5t103.5 -46.5z" />
    <glyph glyph-name="Emacron" unicode="&#x112;" horiz-adv-x="590" 
d="M449 880q20 0 34 -14t14 -33q0 -20 -14 -34t-34 -14h-288q-20 0 -34 14t-14 34q0 19 14 33t34 14h288zM181 99h309q20 0 35 -14.5t15 -34.5q0 -21 -15 -35.5t-35 -14.5h-363q-27 0 -44.5 17.5t-17.5 44.5v576q0 27 17.5 44.5t44.5 17.5h353q20 0 35 -14.5t15 -34.5
q0 -21 -15 -35.5t-35 -14.5h-299v-200h199q20 0 35 -14.5t15 -34.5q0 -21 -15 -35.5t-35 -14.5h-199v-203z" />
    <glyph glyph-name="emacron" unicode="&#x113;" 
d="M447 700q20 0 34 -14t14 -33q0 -20 -14 -34t-34 -14h-288q-20 0 -34 14t-14 34q0 19 14 33t34 14h288zM305 526q91 0 171.5 -69.5t80.5 -181.5q0 -58 -65 -58h-333q8 -60 52.5 -94t95.5 -34q61 0 102 30q18 12 33 12q22 0 35 -13.5t13 -35.5q0 -28 -24 -43
q-67 -46 -160 -46q-43 0 -87 16.5t-84 48t-65 84t-25 117.5q0 64 25 117t64.5 84.5t83.5 48.5t87 17zM305 430q-49 0 -92 -32t-53 -90h287q-10 58 -52 90t-90 32z" />
    <glyph glyph-name="Edotaccent" unicode="&#x116;" horiz-adv-x="590" 
d="M305 824q-23 0 -40 17t-17 40t17 40t40 17t40 -17t17 -40t-17 -40t-40 -17zM181 99h309q20 0 35 -14.5t15 -34.5q0 -21 -15 -35.5t-35 -14.5h-363q-27 0 -44.5 17.5t-17.5 44.5v576q0 27 17.5 44.5t44.5 17.5h353q20 0 35 -14.5t15 -34.5q0 -21 -15 -35.5t-35 -14.5h-299
v-200h199q20 0 35 -14.5t15 -34.5q0 -21 -15 -35.5t-35 -14.5h-199v-203z" />
    <glyph glyph-name="edotaccent" unicode="&#x117;" 
d="M303 644q-23 0 -40 17t-17 40t17 40t40 17t40 -17t17 -40t-17 -40t-40 -17zM305 526q91 0 171.5 -69.5t80.5 -181.5q0 -58 -65 -58h-333q8 -60 52.5 -94t95.5 -34q61 0 102 30q18 12 33 12q22 0 35 -13.5t13 -35.5q0 -28 -24 -43q-67 -46 -160 -46q-43 0 -87 16.5t-84 48
t-65 84t-25 117.5q0 64 25 117t64.5 84.5t83.5 48.5t87 17zM305 430q-49 0 -92 -32t-53 -90h287q-10 58 -52 90t-90 32z" />
    <glyph glyph-name="Eogonek" unicode="&#x118;" horiz-adv-x="590" 
d="M534 0q-75 -29 -103 -51t-28 -51q0 -24 16.5 -38t39.5 -14q28 0 36 -18q6 -13 2 -23.5t-18 -12.5q-39 -6 -78.5 0.5t-70.5 31t-31 64.5q0 45 36 74t96 38h-304q-27 0 -44.5 17.5t-17.5 44.5v576q0 27 17.5 44.5t44.5 17.5h353q20 0 35 -14.5t15 -34.5q0 -21 -15 -35.5
t-35 -14.5h-299v-200h199q20 0 35 -14.5t15 -34.5q0 -21 -15 -35.5t-35 -14.5h-199v-203h309q20 0 35 -14.5t15 -34.5q0 -21 -15 -35.5t-35 -14.5h44z" />
    <glyph glyph-name="eogonek" unicode="&#x119;" 
d="M305 526q91 0 171.5 -69.5t80.5 -181.5q0 -58 -65 -58h-333q8 -60 52.5 -94t95.5 -34q61 0 102 30q18 12 33 12q22 0 35 -13.5t13 -35.5q0 -28 -24 -43q-43 -30 -102 -41q-72 -28 -99.5 -50t-27.5 -50q0 -24 16.5 -38t39.5 -14q28 0 36 -18q6 -13 2 -23.5t-18 -12.5
q-39 -6 -78.5 0.5t-70.5 31t-31 64.5q0 43 33.5 71.5t89.5 38.5q-85 19 -148 86t-63 175q0 64 25 117t64.5 84.5t83.5 48.5t87 17zM160 308h287q-10 58 -52 90t-90 32q-49 0 -92 -32t-53 -90z" />
    <glyph glyph-name="Ecaron" unicode="&#x11a;" horiz-adv-x="590" 
d="M363 802h-128q-36 0 -54 31l-41 70q-13 23 -5.5 38.5t33.5 15.5q32 0 55 -24l76 -80l76 80q23 24 55 24q26 0 33.5 -15.5t-5.5 -38.5l-41 -70q-18 -31 -54 -31zM181 99h309q20 0 35 -14.5t15 -34.5q0 -21 -15 -35.5t-35 -14.5h-363q-27 0 -44.5 17.5t-17.5 44.5v576
q0 27 17.5 44.5t44.5 17.5h353q20 0 35 -14.5t15 -34.5q0 -21 -15 -35.5t-35 -14.5h-299v-200h199q20 0 35 -14.5t15 -34.5q0 -21 -15 -35.5t-35 -14.5h-199v-203z" />
    <glyph glyph-name="ecaron" unicode="&#x11b;" 
d="M361 622h-128q-36 0 -54 31l-41 70q-13 23 -5.5 38.5t33.5 15.5q32 0 55 -24l76 -80l76 80q23 24 55 24q26 0 33.5 -15.5t-5.5 -38.5l-41 -70q-18 -31 -54 -31zM305 526q91 0 171.5 -69.5t80.5 -181.5q0 -58 -65 -58h-333q8 -60 52.5 -94t95.5 -34q61 0 102 30
q18 12 33 12q22 0 35 -13.5t13 -35.5q0 -28 -24 -43q-67 -46 -160 -46q-43 0 -87 16.5t-84 48t-65 84t-25 117.5q0 64 25 117t64.5 84.5t83.5 48.5t87 17zM305 430q-49 0 -92 -32t-53 -90h287q-10 58 -52 90t-90 32z" />
    <glyph glyph-name="Gbreve" unicode="&#x11e;" horiz-adv-x="750" 
d="M515 953q23 0 35.5 -18t7.5 -38q-16 -56 -59 -92.5t-108 -36.5q-59 0 -102.5 36.5t-61.5 91.5q-6 24 7 40.5t34 16.5q31 0 41 -27q22 -57 83 -57q60 0 82 56q10 28 41 28zM641 342q32 0 49.5 -19.5t13.5 -48.5q-20 -127 -106.5 -204t-205.5 -77q-87 0 -166 44.5
t-130 127.5t-51 185t51 185t130 127.5t166 44.5q120 0 204 -60q23 -18 23 -44q0 -23 -15.5 -38.5t-38.5 -15.5q-18 0 -31 10q-59 41 -140 41q-88 0 -160 -72.5t-72 -176.5t72.5 -177.5t159.5 -73.5q64 0 114.5 38.5t73.5 103.5h-77q-20 0 -35 14.5t-15 35.5t15 35.5t35 14.5
h136z" />
    <glyph glyph-name="gbreve" unicode="&#x11f;" horiz-adv-x="592" 
d="M304 588q-59 0 -102.5 36.5t-61.5 91.5q-6 24 7 40.5t34 16.5q31 0 41 -27q22 -57 83 -57q60 0 82 56q11 28 41 28q23 0 35.5 -18t7.5 -38q-16 -56 -59 -92.5t-108 -36.5zM492 526q22 0 38.5 -16t16.5 -39v-471q0 -55 -24 -96.5t-62 -64t-78 -33.5t-78 -11q-69 0 -134 28
q-26 12 -26 41q0 19 13 32t32 13q9 0 14 -2q48 -17 101 -17q59 0 95.5 30.5t36.5 79.5v84q-3 -33 -50 -62t-107 -29q-43 0 -85 17t-78.5 48.5t-59 84t-22.5 117.5q0 64 22.5 116.5t59 84t78.5 48.5t85 17q109 0 157 -73v18q0 23 16.5 39t38.5 16zM294 88q61 0 104.5 43.5
t43.5 128.5q0 86 -43.5 128.5t-104.5 42.5q-58 0 -103.5 -46t-45.5 -125t45.5 -125.5t103.5 -46.5z" />
    <glyph glyph-name="Gdotaccent" unicode="&#x120;" horiz-adv-x="750" 
d="M392 824q-23 0 -40 17t-17 40t17 40t40 17t40 -17t17 -40t-17 -40t-40 -17zM641 342q32 0 49.5 -19.5t13.5 -48.5q-20 -127 -106.5 -204t-205.5 -77q-87 0 -166 44.5t-130 127.5t-51 185t51 185t130 127.5t166 44.5q120 0 204 -60q23 -18 23 -44q0 -23 -15.5 -38.5
t-38.5 -15.5q-18 0 -31 10q-59 41 -140 41q-88 0 -160 -72.5t-72 -176.5t72.5 -177.5t159.5 -73.5q64 0 114.5 38.5t73.5 103.5h-77q-20 0 -35 14.5t-15 35.5t15 35.5t35 14.5h136z" />
    <glyph glyph-name="gdotaccent" unicode="&#x121;" horiz-adv-x="592" 
d="M305 644q-23 0 -40 17t-17 40t17 40t40 17t40 -17t17 -40t-17 -40t-40 -17zM492 526q22 0 38.5 -16t16.5 -39v-471q0 -55 -24 -96.5t-62 -64t-78 -33.5t-78 -11q-69 0 -134 28q-26 12 -26 41q0 19 13 32t32 13q9 0 14 -2q48 -17 101 -17q59 0 95.5 30.5t36.5 79.5v84
q-3 -33 -50 -62t-107 -29q-43 0 -85 17t-78.5 48.5t-59 84t-22.5 117.5q0 64 22.5 116.5t59 84t78.5 48.5t85 17q109 0 157 -73v18q0 23 16.5 39t38.5 16zM294 88q61 0 104.5 43.5t43.5 128.5q0 86 -43.5 128.5t-104.5 42.5q-58 0 -103.5 -46t-45.5 -125t45.5 -125.5
t103.5 -46.5z" />
    <glyph glyph-name="Gcommaaccent" unicode="&#x122;" horiz-adv-x="750" 
d="M641 342q32 0 49.5 -19.5t13.5 -48.5q-20 -127 -106.5 -204t-205.5 -77q-87 0 -166 44.5t-130 127.5t-51 185t51 185t130 127.5t166 44.5q120 0 204 -60q23 -18 23 -44q0 -23 -15.5 -38.5t-38.5 -15.5q-18 0 -31 10q-59 41 -140 41q-88 0 -160 -72.5t-72 -176.5
t72.5 -177.5t159.5 -73.5q64 0 114.5 38.5t73.5 103.5h-77q-20 0 -35 14.5t-15 35.5t15 35.5t35 14.5h136zM281 -215q-23 0 -34 13.5t-4 36.5l25 85q12 39 49 39h47q27 0 36 -14.5t-4 -39.5l-48 -88q-17 -32 -53 -32h-14z" />
    <glyph glyph-name="gcommaaccent" unicode="&#x123;" horiz-adv-x="616" 
d="M288 559q-27 0 -36 14.5t4 39.5l48 88q17 32 53 32h14q23 0 34 -13.5t4 -36.5l-25 -85q-12 -39 -49 -39h-47zM492 526q22 0 38.5 -16t16.5 -39v-471q0 -55 -24 -96.5t-62 -64t-78 -33.5t-78 -11q-69 0 -134 28q-26 12 -26 41q0 19 13 32t32 13q9 0 14 -2q48 -17 101 -17
q59 0 95.5 30.5t36.5 79.5v84q-3 -33 -50 -62t-107 -29q-43 0 -85 17t-78.5 48.5t-59 84t-22.5 117.5q0 64 22.5 116.5t59 84t78.5 48.5t85 17q109 0 157 -73v18q0 23 16.5 39t38.5 16zM294 88q61 0 104.5 43.5t43.5 128.5q0 86 -43.5 128.5t-104.5 42.5q-58 0 -103.5 -46
t-45.5 -125t45.5 -125.5t103.5 -46.5z" />
    <glyph glyph-name="Hbar" unicode="&#x126;" horiz-adv-x="718" 
d="M577 703q23 0 39.5 -17t16.5 -40v-592q0 -23 -16.5 -40t-39.5 -17q-24 0 -40.5 17t-16.5 40v244h-342v-244q0 -23 -16.5 -40t-39.5 -17q-24 0 -40.5 17t-16.5 40v592q0 23 16.5 40t40.5 17q23 0 39.5 -17t16.5 -40v-86h342v86q0 23 16.5 40t40.5 17zM178 395h342v75h-342
v-75z" />
    <glyph glyph-name="hbar" unicode="&#x127;" horiz-adv-x="640" 
d="M373 525q92 0 152 -56.5t60 -171.5v-247q0 -22 -16.5 -38.5t-38.5 -16.5t-38.5 16.5t-16.5 38.5v241q0 139 -116 139q-60 0 -102.5 -46t-49.5 -85v-250q0 -23 -16.5 -39t-38.5 -16t-38.5 16t-16.5 39v475h-22q-18 0 -31.5 13t-13.5 32t13.5 32t31.5 13h22v37
q0 23 16.5 39t38.5 16t38.5 -16t16.5 -39v-37h60q18 0 31.5 -13t13.5 -32t-13.5 -32t-31.5 -13h-60v-115q5 36 50 76t116 40z" />
    <glyph glyph-name="Imacron" unicode="&#x12a;" horiz-adv-x="245" 
d="M267 880q20 0 34 -14t14 -33q0 -20 -14 -34t-34 -14h-288q-20 0 -34 14t-14 34q0 19 14 33t34 14h288zM123 703q23 0 40 -17.5t17 -40.5v-593q0 -23 -17 -40.5t-40 -17.5q-24 0 -41 17.5t-17 40.5v593q0 23 17 40.5t41 17.5z" />
    <glyph glyph-name="imacron" unicode="&#x12b;" horiz-adv-x="260" 
d="M274 700q20 0 34 -14t14 -33q0 -20 -14 -34t-34 -14h-288q-20 0 -34 14t-14 34q0 19 14 33t34 14h288zM130 523q22 0 38.5 -16.5t16.5 -38.5v-418q0 -22 -16.5 -38.5t-38.5 -16.5t-38.5 16.5t-16.5 38.5v418q0 22 16.5 38.5t38.5 16.5z" />
    <glyph glyph-name="Iogonek" unicode="&#x12e;" horiz-adv-x="246" 
d="M181 645v-593v-2q0 -22 -20.5 -44t-45.5 -37t-45.5 -35.5t-20.5 -41.5q0 -46 56 -46q28 0 36 -18q6 -13 2 -23.5t-18 -12.5q-39 -4 -79 -2t-70.5 24t-30.5 61q0 33 19 61.5t41.5 45t41.5 35.5t19 33v2v593q0 23 17 40.5t41 17.5q23 0 40 -17.5t17 -40.5z" />
    <glyph glyph-name="iogonek" unicode="&#x12f;" horiz-adv-x="237" 
d="M116 644q-23 0 -40 17t-17 40t17 40t40 17t40 -17t17 -40t-17 -40t-40 -17zM116 523q22 0 38.5 -16.5t16.5 -38.5v-418q0 -19 -13 -35q-12 -17 -43.5 -38.5t-53.5 -42t-22 -42.5q0 -46 56 -46q28 0 36 -18q6 -13 2 -23.5t-18 -12.5q-39 -4 -79 -2t-70.5 24t-30.5 61
q0 33 19.5 61.5t43.5 45t43.5 35.5t19.5 33v418q0 22 16.5 38.5t38.5 16.5z" />
    <glyph glyph-name="Idotaccent" unicode="&#x130;" horiz-adv-x="245" 
d="M123 824q-23 0 -40 17t-17 40t17 40t40 17t40 -17t17 -40t-17 -40t-40 -17zM123 703q23 0 40 -17.5t17 -40.5v-593q0 -23 -17 -40.5t-40 -17.5q-24 0 -41 17.5t-17 40.5v593q0 23 17 40.5t41 17.5z" />
    <glyph glyph-name="dotlessi" unicode="&#x131;" horiz-adv-x="260" 
d="M130 523q22 0 38.5 -16.5t16.5 -38.5v-418q0 -22 -16.5 -38.5t-38.5 -16.5t-38.5 16.5t-16.5 38.5v418q0 22 16.5 38.5t38.5 16.5z" />
    <glyph glyph-name="IJ" unicode="&#x132;" horiz-adv-x="795" 
d="M123 703q23 0 40 -17.5t17 -40.5v-593q0 -23 -17 -40.5t-40 -17.5q-24 0 -41 17.5t-17 40.5v593q0 23 17 40.5t41 17.5zM675 703q23 0 39 -16.5t16 -38.5v-383q0 -140 -69.5 -206t-175.5 -66q-88 0 -155 46q-22 17 -22 42q0 21 15 36t37 15q17 0 30 -10q40 -29 94 -29
q31 0 52.5 6.5t42 25.5t31 59t10.5 102v362q0 22 16 38.5t39 16.5z" />
    <glyph glyph-name="ij" unicode="&#x133;" horiz-adv-x="495" 
d="M121 592q-23 0 -40 17t-17 40t17 40t40 17t40 -17t17 -40t-17 -40t-40 -17zM372 592q-23 0 -40 17t-17 40t17 40t40 17t40 -17t17 -40t-17 -40t-40 -17zM121 523q23 0 39.5 -16.5t16.5 -39.5v-417q0 -23 -16.5 -39.5t-39.5 -16.5t-39.5 16.5t-16.5 39.5v417
q0 23 16.5 39.5t39.5 16.5zM370 523q22 0 38.5 -16.5t16.5 -38.5v-523q0 -150 -141 -150q-30 0 -71 12q-16 5 -26.5 19t-10.5 31q0 26 20 42t45 10q13 -4 30 -4q44 0 44 70v493q0 22 16.5 38.5t38.5 16.5z" />
    <glyph glyph-name="Kcommaaccent" unicode="&#x136;" horiz-adv-x="690" 
d="M569 706q21 0 36 -15t15 -36q0 -18 -12 -33l-226 -267l250 -277q13 -15 13 -34q0 -20 -15 -35t-36 -15q-22 0 -37 17l-240 266l-133 -157v-69q0 -23 -17 -40t-40 -17t-40 17t-17 40v598q0 23 17 40t40 17t40 -17t17 -40v-373l345 411q16 19 40 19zM275 -215
q-23 0 -34 13.5t-4 36.5l25 85q12 39 49 39h47q27 0 36 -14.5t-4 -39.5l-48 -88q-17 -32 -53 -32h-14z" />
    <glyph glyph-name="kcommaaccent" unicode="&#x137;" horiz-adv-x="598" 
d="M507 42q0 -20 -14 -34t-34 -14q-22 0 -35 15l-196 202l-55 -57v-105q0 -23 -16.5 -39t-38.5 -16t-38.5 16t-16.5 39v602q0 23 16.5 39t38.5 16t38.5 -16t16.5 -39v-354l201 213q16 16 36 16q21 0 35.5 -15t14.5 -35q0 -19 -14 -35l-153 -161l200 -204q14 -14 14 -34z
M202 -215q-23 0 -34 13.5t-4 36.5l25 85q12 39 49 39h47q27 0 36 -14.5t-4 -39.5l-48 -88q-17 -32 -53 -32h-14z" />
    <glyph glyph-name="Lacute" unicode="&#x139;" horiz-adv-x="623" 
d="M193 951q24 0 41 -17t17 -41q0 -20 -13 -36l-83 -101q-12 -15 -30 -15q-21 0 -32.5 15t-2.5 36l49 121q16 38 54 38zM183 95h303q20 0 34 -14t14 -33q0 -20 -14 -34t-34 -14h-354q-27 0 -44.5 17.5t-17.5 44.5v583q0 24 16.5 41t40.5 17q23 0 39.5 -17t16.5 -41v-550z
" />
    <glyph glyph-name="lacute" unicode="&#x13a;" horiz-adv-x="242" 
d="M169 953q24 0 41 -17t17 -41q0 -20 -13 -36l-83 -101q-12 -15 -30 -15q-21 0 -32.5 15t-2.5 36l49 121q16 38 54 38zM121 706q23 0 39.5 -16.5t16.5 -39.5v-600q0 -23 -16.5 -39.5t-39.5 -16.5t-39.5 16.5t-16.5 39.5v600q0 23 16.5 39.5t39.5 16.5z" />
    <glyph glyph-name="Lcommaaccent" unicode="&#x13b;" horiz-adv-x="574" 
d="M183 95h303q20 0 34 -14t14 -33q0 -20 -14 -34t-34 -14h-354q-27 0 -44.5 17.5t-17.5 44.5v583q0 24 16.5 41t40.5 17q23 0 39.5 -17t16.5 -41v-550zM211 -215q-23 0 -34 13.5t-4 36.5l25 85q12 39 49 39h47q27 0 36 -14.5t-4 -39.5l-48 -88q-17 -32 -53 -32h-14z" />
    <glyph glyph-name="lcommaaccent" unicode="&#x13c;" horiz-adv-x="242" 
d="M121 706q23 0 39.5 -16.5t16.5 -39.5v-600q0 -23 -16.5 -39.5t-39.5 -16.5t-39.5 16.5t-16.5 39.5v600q0 23 16.5 39.5t39.5 16.5zM25 -215q-23 0 -34 13.5t-4 36.5l25 85q12 39 49 39h47q27 0 36 -14.5t-4 -39.5l-48 -88q-17 -32 -53 -32h-14z" />
    <glyph glyph-name="Lcaron" unicode="&#x13d;" horiz-adv-x="623" 
d="M310 545q-23 0 -34 13.5t-4 36.5l25 85q12 39 49 39h47q27 0 36 -14.5t-4 -39.5l-48 -88q-17 -32 -53 -32h-14zM183 95h303q20 0 34 -14t14 -33q0 -20 -14 -34t-34 -14h-354q-27 0 -44.5 17.5t-17.5 44.5v583q0 24 16.5 41t40.5 17q23 0 39.5 -17t16.5 -41v-550z" />
    <glyph glyph-name="lcaron" unicode="&#x13e;" horiz-adv-x="469" 
d="M277 545q-23 0 -34 13.5t-4 36.5l25 85q12 39 49 39h47q27 0 36 -14.5t-4 -39.5l-48 -88q-17 -32 -53 -32h-14zM121 706q23 0 39.5 -16.5t16.5 -39.5v-600q0 -23 -16.5 -39.5t-39.5 -16.5t-39.5 16.5t-16.5 39.5v600q0 23 16.5 39.5t39.5 16.5z" />
    <glyph glyph-name="Ldot" unicode="&#x13f;" horiz-adv-x="578" 
d="M183 95h303q20 0 34 -14t14 -33q0 -20 -14 -34t-34 -14h-354q-27 0 -44.5 17.5t-17.5 44.5v583q0 24 16.5 41t40.5 17q23 0 39.5 -17t16.5 -41v-550zM374 303q-27 0 -46 19t-19 46q0 26 19 45t46 19q26 0 45 -19t19 -45q0 -27 -19 -46t-45 -19z" />
    <glyph glyph-name="ldot" unicode="&#x140;" horiz-adv-x="423" 
d="M121 706q23 0 39.5 -16.5t16.5 -39.5v-600q0 -23 -16.5 -39.5t-39.5 -16.5t-39.5 16.5t-16.5 39.5v600q0 23 16.5 39.5t39.5 16.5zM302 301q-27 0 -46 19t-19 46q0 26 19 45t46 19q26 0 45 -19t19 -45q0 -27 -19 -46t-45 -19z" />
    <glyph glyph-name="Lslash" unicode="&#x141;" horiz-adv-x="606" 
d="M518 95q20 0 34 -14t14 -33q0 -20 -14 -34t-34 -14h-354q-27 0 -44.5 17.5t-17.5 44.5v163l-8 -8q-11 -13 -29 -13q-17 0 -28.5 12t-11.5 28q0 17 11 28l66 69v304q0 24 16.5 41t40.5 17q23 0 39.5 -17t16.5 -41v-185l31 32q13 13 29 13q17 0 28.5 -11.5t11.5 -28.5
q0 -14 -11 -27l-89 -94v-249h303z" />
    <glyph glyph-name="lslash" unicode="&#x142;" horiz-adv-x="333" 
d="M303 457q0 -14 -11 -27l-69 -73v-307q0 -23 -16.5 -39.5t-39.5 -16.5t-39.5 16.5t-16.5 39.5v190l-12 -13q-11 -13 -29 -13q-16 0 -28 12t-12 28q0 17 11 28l70 73v295q0 23 16.5 39.5t39.5 16.5t39.5 -16.5t16.5 -39.5v-178l11 12q11 13 29 13q17 0 28.5 -11.5
t11.5 -28.5z" />
    <glyph glyph-name="Nacute" unicode="&#x143;" horiz-adv-x="687" 
d="M392 953q24 0 41 -17t17 -41q0 -20 -13 -36l-83 -101q-12 -15 -30 -15q-21 0 -32.5 15t-2.5 36l49 121q16 38 54 38zM565 703q23 0 40 -17.5t17 -40.5v-599q0 -24 -13.5 -38t-31.5 -14q-37 0 -61 34l-336 458v-433q0 -23 -17 -40.5t-40 -17.5q-24 0 -41 17.5t-17 40.5
v598q0 24 15 38t35 14q36 0 60 -33l332 -456v431q0 23 17 40.5t41 17.5z" />
    <glyph glyph-name="nacute" unicode="&#x144;" horiz-adv-x="603" 
d="M351 773q24 0 41 -17t17 -41q0 -20 -13 -36l-83 -101q-12 -15 -30 -15q-21 0 -32.5 15t-2.5 36l49 121q16 38 54 38zM336 525q92 0 152 -56.5t60 -171.5v-247q0 -22 -16 -38.5t-39 -16.5t-39 16.5t-16 38.5v241q0 139 -116 139q-60 0 -102.5 -46t-49.5 -85v-249
q0 -22 -16 -38.5t-39 -16.5t-39 16.5t-16 38.5v418q0 22 16 38.5t39 16.5t39 -16.5t16 -38.5v-59q5 36 50 76t116 40z" />
    <glyph glyph-name="Ncommaaccent" unicode="&#x145;" horiz-adv-x="687" 
d="M565 703q23 0 40 -17.5t17 -40.5v-599q0 -24 -13.5 -38t-31.5 -14q-37 0 -61 34l-336 458v-433q0 -23 -17 -40.5t-40 -17.5q-24 0 -41 17.5t-17 40.5v598q0 24 15 38t35 14q36 0 60 -33l332 -456v431q0 23 17 40.5t41 17.5zM248 -215q-23 0 -34 13.5t-4 36.5l25 85
q12 39 49 39h47q27 0 36 -14.5t-4 -39.5l-48 -88q-17 -32 -53 -32h-14z" />
    <glyph glyph-name="ncommaaccent" unicode="&#x146;" horiz-adv-x="603" 
d="M336 525q92 0 152 -56.5t60 -171.5v-247q0 -22 -16 -38.5t-39 -16.5t-39 16.5t-16 38.5v241q0 139 -116 139q-60 0 -102.5 -46t-49.5 -85v-249q0 -22 -16 -38.5t-39 -16.5t-39 16.5t-16 38.5v418q0 22 16 38.5t39 16.5t39 -16.5t16 -38.5v-59q5 36 50 76t116 40z
M207 -215q-23 0 -34 13.5t-4 36.5l25 85q12 39 49 39h47q27 0 36 -14.5t-4 -39.5l-48 -88q-17 -32 -53 -32h-14z" />
    <glyph glyph-name="Ncaron" unicode="&#x147;" horiz-adv-x="687" 
d="M402 802h-128q-36 0 -54 31l-41 70q-13 23 -5.5 38.5t33.5 15.5q32 0 55 -24l76 -80l76 80q23 24 55 24q26 0 33.5 -15.5t-5.5 -38.5l-41 -70q-18 -31 -54 -31zM565 703q23 0 40 -17.5t17 -40.5v-599q0 -24 -13.5 -38t-31.5 -14q-37 0 -61 34l-336 458v-433
q0 -23 -17 -40.5t-40 -17.5q-24 0 -41 17.5t-17 40.5v598q0 24 15 38t35 14q36 0 60 -33l332 -456v431q0 23 17 40.5t41 17.5z" />
    <glyph glyph-name="ncaron" unicode="&#x148;" horiz-adv-x="603" 
d="M361 622h-128q-36 0 -54 31l-41 70q-13 23 -5.5 38.5t33.5 15.5q32 0 55 -24l76 -80l76 80q23 24 55 24q26 0 33.5 -15.5t-5.5 -38.5l-41 -70q-18 -31 -54 -31zM336 525q92 0 152 -56.5t60 -171.5v-247q0 -22 -16 -38.5t-39 -16.5t-39 16.5t-16 38.5v241q0 139 -116 139
q-60 0 -102.5 -46t-49.5 -85v-249q0 -22 -16 -38.5t-39 -16.5t-39 16.5t-16 38.5v418q0 22 16 38.5t39 16.5t39 -16.5t16 -38.5v-59q5 36 50 76t116 40z" />
    <glyph glyph-name="Eng" unicode="&#x14a;" horiz-adv-x="687" 
d="M565 703q23 0 40 -17.5t17 -40.5v-599v-1q-1 -126 -70.5 -188t-174.5 -62q-88 0 -155 46q-22 17 -22 42q0 21 15 36t37 15q17 0 30 -10q40 -29 94 -29q59 0 92.5 29.5t38.5 115.5l-327 446v-433q0 -23 -17 -40.5t-40 -17.5q-24 0 -41 17.5t-17 40.5v598q0 24 15 38t35 14
q36 0 60 -33l332 -456v431q0 23 17 40.5t41 17.5z" />
    <glyph glyph-name="eng" unicode="&#x14b;" horiz-adv-x="603" 
d="M336 525q92 0 152 -56.5t60 -171.5v-352q0 -150 -141 -150q-30 0 -71 12q-16 5 -26.5 19t-10.5 31q0 26 20 42t45 10q13 -4 30 -4q44 0 44 70v316q0 139 -116 139q-60 0 -102.5 -46t-49.5 -85v-249q0 -22 -16 -38.5t-39 -16.5t-39 16.5t-16 38.5v418q0 22 16 38.5
t39 16.5t39 -16.5t16 -38.5v-59q5 36 50 76t116 40z" />
    <glyph glyph-name="Omacron" unicode="&#x14c;" horiz-adv-x="796" 
d="M542 880q20 0 34 -14t14 -33q0 -20 -14 -34t-34 -14h-288q-20 0 -34 14t-14 34q0 19 14 33t34 14h288zM398 707q88 0 167.5 -44.5t130 -127.5t50.5 -185t-50.5 -185t-130 -127.5t-167.5 -44.5t-167.5 44.5t-130 127.5t-50.5 185t50.5 185t130 127.5t167.5 44.5zM398 600
q-93 0 -161.5 -70.5t-68.5 -179.5t68.5 -179.5t161.5 -70.5t161.5 70.5t68.5 179.5t-68 179.5t-162 70.5z" />
    <glyph glyph-name="omacron" unicode="&#x14d;" horiz-adv-x="600" 
d="M444 700q20 0 34 -14t14 -33q0 -20 -14 -34t-34 -14h-288q-20 0 -34 14t-14 34q0 19 14 33t34 14h288zM300 526q43 0 87 -17t83.5 -48.5t64.5 -84.5t25 -117q0 -65 -25 -117.5t-64.5 -84t-83.5 -48t-87 -16.5t-87 16.5t-83.5 48t-64.5 84t-25 117.5q0 64 25 117
t64.5 84.5t83.5 48.5t87 17zM300 430q-58 0 -104 -45t-46 -126q0 -80 46 -125t104 -45t104 45t46 125q0 81 -46 126t-104 45z" />
    <glyph glyph-name="Ohungarumlaut" unicode="&#x150;" horiz-adv-x="796" 
d="M382 953q24 0 41 -17t17 -41q0 -20 -13 -36l-83 -101q-12 -15 -30 -15q-21 0 -32.5 15t-2.5 36l49 121q16 38 54 38zM567 953q24 0 41 -17t17 -41q0 -20 -13 -36l-83 -101q-12 -15 -30 -15q-21 0 -32.5 15t-2.5 36l49 121q16 38 54 38zM398 707q88 0 167.5 -44.5
t130 -127.5t50.5 -185t-50.5 -185t-130 -127.5t-167.5 -44.5t-167.5 44.5t-130 127.5t-50.5 185t50.5 185t130 127.5t167.5 44.5zM398 600q-93 0 -161.5 -70.5t-68.5 -179.5t68.5 -179.5t161.5 -70.5t161.5 70.5t68.5 179.5t-68 179.5t-162 70.5z" />
    <glyph glyph-name="ohungarumlaut" unicode="&#x151;" horiz-adv-x="600" 
d="M284 773q24 0 41 -17t17 -41q0 -20 -13 -36l-83 -101q-12 -15 -30 -15q-21 0 -32.5 15t-2.5 36l49 121q16 38 54 38zM469 773q24 0 41 -17t17 -41q0 -20 -13 -36l-83 -101q-12 -15 -30 -15q-21 0 -32.5 15t-2.5 36l49 121q16 38 54 38zM300 526q43 0 87 -17t83.5 -48.5
t64.5 -84.5t25 -117q0 -65 -25 -117.5t-64.5 -84t-83.5 -48t-87 -16.5t-87 16.5t-83.5 48t-64.5 84t-25 117.5q0 64 25 117t64.5 84.5t83.5 48.5t87 17zM300 430q-58 0 -104 -45t-46 -126q0 -80 46 -125t104 -45t104 45t46 125q0 81 -46 126t-104 45z" />
    <glyph glyph-name="OE" unicode="&#x152;" horiz-adv-x="1149" 
d="M1060 99q20 0 35 -14.5t15 -34.5q0 -21 -15 -35.5t-35 -14.5h-363q-27 0 -44.5 17.5t-17.5 44.5v28q-103 -97 -237 -97q-88 0 -167.5 44.5t-130 127.5t-50.5 185t50.5 185t130 127.5t167.5 44.5q134 0 237 -97v28q0 27 17.5 44.5t44.5 17.5h353q20 0 35 -14.5t15 -34.5
q0 -21 -15 -35.5t-35 -14.5h-299v-200h199q20 0 35 -14.5t15 -34.5q0 -21 -15 -35.5t-35 -14.5h-199v-203h309zM398 100q93 0 161.5 70.5t68.5 179.5t-68 179.5t-162 70.5q-93 0 -161.5 -70.5t-68.5 -179.5t68.5 -179.5t161.5 -70.5z" />
    <glyph glyph-name="oe" unicode="&#x153;" horiz-adv-x="1005" 
d="M715 526q91 0 171.5 -69.5t80.5 -181.5q0 -58 -65 -58h-333q8 -60 52.5 -94t95.5 -34q61 0 102 30q18 12 33 12q22 0 35 -13.5t13 -35.5q0 -28 -24 -43q-67 -46 -160 -46q-55 0 -112 27t-96 77q-39 -50 -96 -77t-112 -27q-43 0 -87 16.5t-83.5 48t-64.5 84t-25 117.5
q0 64 25 117t64.5 84.5t83.5 48.5t87 17q55 0 112 -27t96 -78q38 51 95 78t112 27zM300 89q58 0 104 45t46 125q0 81 -46 126t-104 45t-104 -45t-46 -126q0 -80 46 -125t104 -45zM570 308h287q-10 58 -52 90t-90 32q-49 0 -92 -32t-53 -90z" />
    <glyph glyph-name="Racute" unicode="&#x154;" horiz-adv-x="625" 
d="M293 743q-21 0 -32.5 15t-2.5 36l49 121q16 38 54 38q24 0 41 -17t17 -41q0 -20 -13 -36l-83 -101q-12 -15 -30 -15zM391 280l166 -197q13 -16 13 -35q0 -22 -16 -38t-38 -16q-27 0 -43 21l-209 257h-81v-221q0 -23 -16.5 -40t-39.5 -17q-24 0 -40.5 17t-16.5 40v587
q0 27 17.5 44.5t44.5 17.5h183q115 0 185 -60.5t70 -153.5q0 -77 -48 -132.5t-131 -73.5zM183 603v-234h127q150 0 150 117q0 59 -40 88t-110 29h-127z" />
    <glyph glyph-name="racute" unicode="&#x155;" horiz-adv-x="435" 
d="M223 563q-21 0 -32.5 15t-2.5 36l49 121q16 38 54 38q24 0 41 -17t17 -41q0 -20 -13 -36l-83 -101q-12 -15 -30 -15zM351 525q27 0 43 -14.5t16 -36.5t-16 -37t-40 -15h-17q-122 0 -167 -114v-259q0 -23 -16 -39t-39 -16t-39 16t-16 39v419q0 22 16 38.5t39 16.5
t39 -16.5t16 -38.5v-43q32 44 79.5 72t101.5 28z" />
    <glyph glyph-name="Rcommaaccent" unicode="&#x156;" horiz-adv-x="625" 
d="M391 280l166 -197q13 -16 13 -35q0 -22 -16 -38t-38 -16q-27 0 -43 21l-209 257h-81v-221q0 -23 -16.5 -40t-39.5 -17q-24 0 -40.5 17t-16.5 40v587q0 27 17.5 44.5t44.5 17.5h183q115 0 185 -60.5t70 -153.5q0 -77 -48 -132.5t-131 -73.5zM183 603v-234h127
q150 0 150 117q0 59 -40 88t-110 29h-127zM305 -41q27 0 36 -14.5t-4 -39.5l-48 -88q-17 -32 -53 -32h-14q-23 0 -34 13.5t-4 36.5l25 85q12 39 49 39h47z" />
    <glyph glyph-name="rcommaaccent" unicode="&#x157;" horiz-adv-x="435" 
d="M351 525q27 0 43 -14.5t16 -36.5t-16 -37t-40 -15h-17q-122 0 -167 -114v-259q0 -23 -16 -39t-39 -16t-39 16t-16 39v419q0 22 16 38.5t39 16.5t39 -16.5t16 -38.5v-43q32 44 79.5 72t101.5 28zM100 -41q27 0 36 -14.5t-4 -39.5l-48 -88q-17 -32 -53 -32h-14
q-23 0 -34 13.5t-4 36.5l25 85q12 39 49 39h47z" />
    <glyph glyph-name="Rcaron" unicode="&#x158;" horiz-adv-x="625" 
d="M189 833l-41 70q-13 23 -5.5 38.5t33.5 15.5q32 0 55 -24l76 -80l76 80q23 24 55 24q26 0 33.5 -15.5t-5.5 -38.5l-41 -70q-18 -31 -54 -31h-128q-36 0 -54 31zM391 280l166 -197q13 -16 13 -35q0 -22 -16 -38t-38 -16q-27 0 -43 21l-209 257h-81v-221q0 -23 -16.5 -40
t-39.5 -17q-24 0 -40.5 17t-16.5 40v587q0 27 17.5 44.5t44.5 17.5h183q115 0 185 -60.5t70 -153.5q0 -77 -48 -132.5t-131 -73.5zM183 603v-234h127q150 0 150 117q0 59 -40 88t-110 29h-127z" />
    <glyph glyph-name="rcaron" unicode="&#x159;" horiz-adv-x="435" 
d="M119 653l-41 70q-13 23 -5.5 38.5t33.5 15.5q32 0 55 -24l76 -80l76 80q23 24 55 24q26 0 33.5 -15.5t-5.5 -38.5l-41 -70q-18 -31 -54 -31h-128q-36 0 -54 31zM351 525q27 0 43 -14.5t16 -36.5t-16 -37t-40 -15h-17q-122 0 -167 -114v-259q0 -23 -16 -39t-39 -16t-39 16
t-16 39v419q0 22 16 38.5t39 16.5t39 -16.5t16 -38.5v-43q32 44 79.5 72t101.5 28z" />
    <glyph glyph-name="Sacute" unicode="&#x15a;" horiz-adv-x="570" 
d="M327 953q24 0 41 -17t17 -41q0 -20 -13 -36l-83 -101q-12 -15 -30 -15q-21 0 -32.5 15t-2.5 36l49 121q16 38 54 38zM279 707q125 0 199 -91q10 -13 10 -31q0 -20 -14 -34t-34 -14q-26 0 -40 20q-39 54 -121 54q-48 0 -80.5 -24t-32.5 -62q0 -35 22.5 -56t75.5 -41
l47 -16q110 -38 162 -91t52 -130q0 -61 -39 -108t-93.5 -68.5t-111.5 -21.5q-70 0 -129.5 30t-97.5 84q-9 13 -9 29q0 21 15 36t36 15q28 0 42 -22q23 -35 61.5 -55t81.5 -20q53 0 92.5 26t39.5 75q0 45 -30.5 72.5t-93.5 48.5l-52 17q-87 29 -135 75.5t-48 120.5
q0 80 66 131t159 51z" />
    <glyph glyph-name="sacute" unicode="&#x15b;" horiz-adv-x="479" 
d="M286 773q24 0 41 -17t17 -41q0 -20 -13 -36l-83 -101q-12 -15 -30 -15q-21 0 -32.5 15t-2.5 36l49 121q16 38 54 38zM233 526q62 0 98.5 -15t65.5 -47q14 -16 14 -35q0 -21 -15 -36t-37 -15q-23 0 -40 19q-31 35 -83 35q-33 0 -54 -16t-21 -38q0 -42 55 -57l72 -20
q73 -20 112 -54t39 -101q0 -68 -63 -110.5t-141 -42.5q-56 0 -103 19.5t-74 52.5q-18 21 -18 44q0 19 14 33.5t36 14.5q26 0 41 -20q39 -50 107 -50q37 0 62 17t25 42q0 46 -61 64l-72 20q-75 21 -109.5 56t-34.5 93q0 64 56 105.5t129 41.5z" />
    <glyph glyph-name="Scedilla" unicode="&#x15e;" horiz-adv-x="570" 
d="M525 191q0 -79 -59 -130t-139 -64l-45 -48q38 -6 63.5 -31.5t25.5 -61.5q0 -49 -46 -73t-118 -21q-13 0 -19 6t-3 14q7 18 27 19q72 9 72 55q0 20 -15 32t-34 4q-11 -5 -19 -3t-16 15q-12 20 -2 37l34 56q-113 18 -178 110q-9 13 -9 29q0 21 15 36t36 15q28 0 42 -22
q23 -35 61.5 -55t81.5 -20q53 0 92.5 26t39.5 75q0 45 -30.5 72.5t-93.5 48.5l-52 17q-87 29 -135 75.5t-48 120.5q0 80 66 131t159 51q125 0 199 -91q10 -13 10 -31q0 -20 -14 -34t-34 -14q-26 0 -40 20q-39 54 -121 54q-48 0 -80.5 -24t-32.5 -62q0 -35 22.5 -56t75.5 -41
l47 -16q110 -38 162 -91t52 -130z" />
    <glyph glyph-name="scedilla" unicode="&#x15f;" horiz-adv-x="479" 
d="M439 146q0 -55 -43 -94t-106 -53l-47 -50q38 -6 63.5 -31.5t25.5 -61.5q0 -49 -46 -73t-118 -21q-13 0 -19 6t-3 14q7 18 27 19q72 9 72 55q0 20 -15 32t-34 4q-11 -5 -19 -3t-16 15q-12 20 -2 37l33 55q-90 14 -134 69q-18 21 -18 44q0 19 14 33.5t36 14.5q26 0 41 -20
q39 -50 107 -50q37 0 62 17t25 42q0 46 -61 64l-72 20q-75 21 -109.5 56t-34.5 93q0 64 56 105.5t129 41.5q62 0 98.5 -15t65.5 -47q14 -16 14 -35q0 -21 -15 -36t-37 -15q-23 0 -40 19q-31 35 -83 35q-33 0 -54 -16t-21 -38q0 -42 55 -57l72 -20q73 -20 112 -54t39 -101z
" />
    <glyph glyph-name="Scaron" unicode="&#x160;" horiz-adv-x="570" 
d="M337 802h-128q-36 0 -54 31l-41 70q-13 23 -5.5 38.5t33.5 15.5q32 0 55 -24l76 -80l76 80q23 24 55 24q26 0 33.5 -15.5t-5.5 -38.5l-41 -70q-18 -31 -54 -31zM279 707q125 0 199 -91q10 -13 10 -31q0 -20 -14 -34t-34 -14q-26 0 -40 20q-39 54 -121 54q-48 0 -80.5 -24
t-32.5 -62q0 -35 22.5 -56t75.5 -41l47 -16q110 -38 162 -91t52 -130q0 -61 -39 -108t-93.5 -68.5t-111.5 -21.5q-70 0 -129.5 30t-97.5 84q-9 13 -9 29q0 21 15 36t36 15q28 0 42 -22q23 -35 61.5 -55t81.5 -20q53 0 92.5 26t39.5 75q0 45 -30.5 72.5t-93.5 48.5l-52 17
q-87 29 -135 75.5t-48 120.5q0 80 66 131t159 51z" />
    <glyph glyph-name="scaron" unicode="&#x161;" horiz-adv-x="479" 
d="M296 622h-128q-36 0 -54 31l-41 70q-13 23 -5.5 38.5t33.5 15.5q32 0 55 -24l76 -80l76 80q23 24 55 24q26 0 33.5 -15.5t-5.5 -38.5l-41 -70q-18 -31 -54 -31zM233 526q62 0 98.5 -15t65.5 -47q14 -16 14 -35q0 -21 -15 -36t-37 -15q-23 0 -40 19q-31 35 -83 35
q-33 0 -54 -16t-21 -38q0 -42 55 -57l72 -20q73 -20 112 -54t39 -101q0 -68 -63 -110.5t-141 -42.5q-56 0 -103 19.5t-74 52.5q-18 21 -18 44q0 19 14 33.5t36 14.5q26 0 41 -20q39 -50 107 -50q37 0 62 17t25 42q0 46 -61 64l-72 20q-75 21 -109.5 56t-34.5 93
q0 64 56 105.5t129 41.5z" />
    <glyph glyph-name="uni0162" unicode="&#x162;" horiz-adv-x="630" 
d="M535 700q20 0 35 -14.5t15 -35.5t-15 -35.5t-35 -14.5h-160v-546q0 -28 -19 -59t-38 -47q38 -6 63.5 -31.5t25.5 -61.5q0 -49 -46 -73t-118 -21q-13 0 -19 6t-3 14q7 18 27 19q72 9 72 55q0 20 -15 32t-34 4q-11 -5 -19 -3t-16 15q-9 16 -2 37q22 70 22 114v546h-161
q-20 0 -35 14.5t-15 35.5t15 35.5t35 14.5h440z" />
    <glyph glyph-name="uni0163" unicode="&#x163;" horiz-adv-x="365" 
d="M233 -51q38 -6 63.5 -31.5t25.5 -61.5q0 -49 -46 -73t-118 -21q-13 0 -19 6t-3 14q7 18 27 19q72 9 72 55q0 20 -15 32t-34 4q-11 -5 -19 -3t-16 15q-12 20 -2 37l34 56q-78 21 -78 135v293h-28q-20 0 -34 14t-14 34q0 19 14 33t34 14h28v41q0 23 16.5 39t38.5 16
t38.5 -16t16.5 -39v-41h67q20 0 34 -14t14 -33q0 -20 -14 -34t-34 -14h-67v-295q0 -43 33 -43q18 0 37 3q17 2 32 -10.5t15 -33.5q0 -41 -55 -51z" />
    <glyph glyph-name="Tcaron" unicode="&#x164;" horiz-adv-x="630" 
d="M373 802h-128q-36 0 -54 31l-41 70q-13 23 -5.5 38.5t33.5 15.5q32 0 55 -24l76 -80l76 80q23 24 55 24q26 0 33.5 -15.5t-5.5 -38.5l-41 -70q-18 -31 -54 -31zM535 700q20 0 35 -14.5t15 -35.5t-15 -35.5t-35 -14.5h-160v-546q0 -24 -17.5 -42t-41.5 -18q-25 0 -42.5 18
t-17.5 42v546h-161q-20 0 -35 14.5t-15 35.5t15 35.5t35 14.5h440z" />
    <glyph glyph-name="tcaron" unicode="&#x165;" horiz-adv-x="438" 
d="M347 760q24 0 41 -17t17 -41q0 -20 -13 -36l-83 -101q-12 -15 -30 -15q-21 0 -32.5 15t-2.5 36l49 121q16 38 54 38zM285 90q17 2 32 -10.5t15 -33.5q0 -54 -102 -54q-58 0 -91.5 30t-33.5 110v293h-28q-20 0 -34 14t-14 34q0 19 14 33t34 14h28v41q0 23 16.5 39t38.5 16
t38.5 -16t16.5 -39v-41h67q20 0 34 -14t14 -33q0 -20 -14 -34t-34 -14h-67v-295q0 -43 33 -43q18 0 37 3z" />
    <glyph glyph-name="Tbar" unicode="&#x166;" horiz-adv-x="648" 
d="M535 700q20 0 35 -14.5t15 -35.5t-15 -35.5t-35 -14.5h-160v-80h99q20 0 34 -14t14 -33q0 -20 -14 -34t-34 -14h-99v-371q0 -24 -17.5 -42t-41.5 -18q-25 0 -42.5 18t-17.5 42v371h-70q-20 0 -34 14t-14 34q0 19 14 33t34 14h70v80h-161q-20 0 -35 14.5t-15 35.5t15 35.5
t35 14.5h440z" />
    <glyph glyph-name="tbar" unicode="&#x167;" horiz-adv-x="365" 
d="M285 90q17 2 32 -10.5t15 -33.5q0 -54 -102 -54q-58 0 -91.5 30t-33.5 110v127h-70v95h70v71h-28q-20 0 -34 14t-14 34q0 19 14 33t34 14h28v41q0 23 16.5 39t38.5 16t38.5 -16t16.5 -39v-41h67q20 0 34 -14t14 -33q0 -20 -14 -34t-34 -14h-67v-71h108v-95h-108v-129
q0 -43 33 -43q18 0 37 3z" />
    <glyph glyph-name="Umacron" unicode="&#x16a;" horiz-adv-x="686" 
d="M487 880q20 0 34 -14t14 -33q0 -20 -14 -34t-34 -14h-288q-20 0 -34 14t-14 34q0 19 14 33t34 14h288zM566 703q22 0 38.5 -16.5t16.5 -38.5v-393q0 -118 -81 -190t-197 -72q-117 0 -197.5 72t-80.5 190v393q0 22 16.5 38.5t38.5 16.5t38.5 -16.5t16.5 -38.5v-392
q0 -83 47.5 -125.5t120.5 -42.5t120.5 42.5t47.5 125.5v392q0 22 16.5 38.5t38.5 16.5z" />
    <glyph glyph-name="umacron" unicode="&#x16b;" horiz-adv-x="597" 
d="M440 700q20 0 34 -14t14 -33q0 -20 -14 -34t-34 -14h-288q-20 0 -34 14t-14 34q0 19 14 33t34 14h288zM427 468q0 22 16.5 38.5t38.5 16.5t38.5 -16.5t16.5 -38.5v-418q0 -22 -16.5 -38.5t-38.5 -16.5t-38.5 16.5t-16.5 38.5v66q-10 -39 -56.5 -80.5t-113.5 -41.5
q-88 0 -145 55t-57 169v250q0 22 16.5 38.5t38.5 16.5t38.5 -16.5t16.5 -38.5v-244q0 -69 28.5 -102t74.5 -33q60 0 105.5 48.5t53.5 96.5v234z" />
    <glyph glyph-name="Ubreve" unicode="&#x16c;" horiz-adv-x="686" 
d="M466 953q23 0 35.5 -18t7.5 -38q-16 -56 -59 -92.5t-108 -36.5q-59 0 -102.5 36.5t-61.5 91.5q-6 24 7 40.5t34 16.5q31 0 41 -27q22 -57 83 -57q60 0 82 56q11 28 41 28zM566 703q22 0 38.5 -16.5t16.5 -38.5v-393q0 -118 -81 -190t-197 -72q-117 0 -197.5 72t-80.5 190
v393q0 22 16.5 38.5t38.5 16.5t38.5 -16.5t16.5 -38.5v-392q0 -83 47.5 -125.5t120.5 -42.5t120.5 42.5t47.5 125.5v392q0 22 16.5 38.5t38.5 16.5z" />
    <glyph glyph-name="ubreve" unicode="&#x16d;" horiz-adv-x="597" 
d="M419 773q23 0 35.5 -18t7.5 -38q-16 -56 -59 -92.5t-108 -36.5q-59 0 -102.5 36.5t-61.5 91.5q-6 24 7 40.5t34 16.5q31 0 41 -27q22 -57 83 -57q60 0 82 56q10 28 41 28zM427 468q0 22 16.5 38.5t38.5 16.5t38.5 -16.5t16.5 -38.5v-418q0 -22 -16.5 -38.5t-38.5 -16.5
t-38.5 16.5t-16.5 38.5v66q-10 -39 -56.5 -80.5t-113.5 -41.5q-88 0 -145 55t-57 169v250q0 22 16.5 38.5t38.5 16.5t38.5 -16.5t16.5 -38.5v-244q0 -69 28.5 -102t74.5 -33q60 0 105.5 48.5t53.5 96.5v234z" />
    <glyph glyph-name="Uring" unicode="&#x16e;" horiz-adv-x="686" 
d="M344 980q41 0 70.5 -30t29.5 -71t-30 -70.5t-70 -29.5q-43 0 -73 29.5t-30 70.5q0 42 30 71.5t73 29.5zM342 912q-13 0 -22 -9.5t-9 -22.5t9 -22t22 -9t22.5 9t9.5 22t-9.5 22.5t-22.5 9.5zM566 703q22 0 38.5 -16.5t16.5 -38.5v-393q0 -118 -81 -190t-197 -72
q-117 0 -197.5 72t-80.5 190v393q0 22 16.5 38.5t38.5 16.5t38.5 -16.5t16.5 -38.5v-392q0 -83 47.5 -125.5t120.5 -42.5t120.5 42.5t47.5 125.5v392q0 22 16.5 38.5t38.5 16.5z" />
    <glyph glyph-name="uring" unicode="&#x16f;" horiz-adv-x="597" 
d="M297 800q41 0 70.5 -30t29.5 -71t-29.5 -70.5t-70.5 -29.5q-43 0 -73 29.5t-30 70.5q0 42 30 71.5t73 29.5zM295 732q-13 0 -22 -9.5t-9 -22.5t9 -22t22 -9t22.5 9t9.5 22t-9.5 22.5t-22.5 9.5zM427 468q0 22 16.5 38.5t38.5 16.5t38.5 -16.5t16.5 -38.5v-418
q0 -22 -16.5 -38.5t-38.5 -16.5t-38.5 16.5t-16.5 38.5v66q-10 -39 -56.5 -80.5t-113.5 -41.5q-88 0 -145 55t-57 169v250q0 22 16.5 38.5t38.5 16.5t38.5 -16.5t16.5 -38.5v-244q0 -69 28.5 -102t74.5 -33q60 0 105.5 48.5t53.5 96.5v234z" />
    <glyph glyph-name="Uhungarumlaut" unicode="&#x170;" horiz-adv-x="686" 
d="M327 953q24 0 41 -17t17 -41q0 -20 -13 -36l-83 -101q-12 -15 -30 -15q-21 0 -32.5 15t-2.5 36l49 121q16 38 54 38zM512 953q24 0 41 -17t17 -41q0 -20 -13 -36l-83 -101q-12 -15 -30 -15q-21 0 -32.5 15t-2.5 36l49 121q16 38 54 38zM566 703q22 0 38.5 -16.5
t16.5 -38.5v-393q0 -118 -81 -190t-197 -72q-117 0 -197.5 72t-80.5 190v393q0 22 16.5 38.5t38.5 16.5t38.5 -16.5t16.5 -38.5v-392q0 -83 47.5 -125.5t120.5 -42.5t120.5 42.5t47.5 125.5v392q0 22 16.5 38.5t38.5 16.5z" />
    <glyph glyph-name="uhungarumlaut" unicode="&#x171;" horiz-adv-x="597" 
d="M280 773q24 0 41 -17t17 -41q0 -20 -13 -36l-83 -101q-12 -15 -30 -15q-21 0 -32.5 15t-2.5 36l49 121q16 38 54 38zM465 773q24 0 41 -17t17 -41q0 -20 -13 -36l-83 -101q-12 -15 -30 -15q-21 0 -32.5 15t-2.5 36l49 121q16 38 54 38zM427 468q0 22 16.5 38.5t38.5 16.5
t38.5 -16.5t16.5 -38.5v-418q0 -22 -16.5 -38.5t-38.5 -16.5t-38.5 16.5t-16.5 38.5v66q-10 -39 -56.5 -80.5t-113.5 -41.5q-88 0 -145 55t-57 169v250q0 22 16.5 38.5t38.5 16.5t38.5 -16.5t16.5 -38.5v-244q0 -69 28.5 -102t74.5 -33q60 0 105.5 48.5t53.5 96.5v234z" />
    <glyph glyph-name="Uogonek" unicode="&#x172;" horiz-adv-x="686" 
d="M566 703q22 0 38.5 -16.5t16.5 -38.5v-393q0 -100 -59.5 -168t-152.5 -87q-74 -29 -102 -51t-28 -51q0 -24 16.5 -38t39.5 -14q28 0 36 -18q6 -13 2 -23.5t-18 -12.5q-39 -6 -78.5 0.5t-70.5 31t-31 64.5q0 42 31.5 69.5t84.5 39.5q-99 16 -162.5 85t-63.5 173v393
q0 22 16.5 38.5t38.5 16.5t38.5 -16.5t16.5 -38.5v-392q0 -83 47.5 -125.5t120.5 -42.5t120.5 42.5t47.5 125.5v392q0 22 16.5 38.5t38.5 16.5z" />
    <glyph glyph-name="uogonek" unicode="&#x173;" horiz-adv-x="597" 
d="M537 50q0 -19 -13 -35q-12 -17 -43.5 -38.5t-53.5 -42t-22 -42.5q0 -46 56 -46q28 0 36 -18q6 -13 2 -23.5t-18 -12.5q-39 -4 -79 -2t-70.5 24t-30.5 61q0 33 19.5 61.5t43.5 45t43.5 35.5t19.5 33v66q-10 -39 -56.5 -80.5t-113.5 -41.5q-88 0 -145 55t-57 169v250
q0 22 16.5 38.5t38.5 16.5t38.5 -16.5t16.5 -38.5v-244q0 -69 28.5 -102t74.5 -33q60 0 105.5 48.5t53.5 96.5v234q0 22 16.5 38.5t38.5 16.5t38.5 -16.5t16.5 -38.5v-418z" />
    <glyph glyph-name="Wcircumflex" unicode="&#x174;" horiz-adv-x="1147" 
d="M635 947q36 0 54 -31l41 -70q13 -23 5.5 -38.5t-33.5 -15.5q-32 0 -55 24l-76 80l-76 -80q-23 -24 -55 -24q-26 0 -33.5 15.5t5.5 38.5l41 70q18 31 54 31h128zM1036 706q23 0 39.5 -16.5t16.5 -39.5q0 -9 -6 -23l-230 -590q-16 -42 -46 -42t-47 42l-190 468l-190 -468
q-17 -42 -46 -42q-31 0 -47 42l-229 590q-6 14 -6 23q0 23 16.5 39.5t39.5 16.5q16 0 30.5 -9.5t19.5 -23.5l176 -495l185 495q12 33 51 33q38 0 50 -33l187 -495l176 495q5 14 19.5 23.5t30.5 9.5z" />
    <glyph glyph-name="wcircumflex" unicode="&#x175;" horiz-adv-x="870" 
d="M497 767q36 0 54 -31l41 -70q13 -23 5.5 -38.5t-33.5 -15.5q-32 0 -55 24l-76 80l-76 -80q-23 -24 -55 -24q-26 0 -33.5 15.5t5.5 38.5l41 70q18 31 54 31h128zM783 523q22 0 37 -15t15 -37q0 -4 -7 -25l-149 -406q-16 -42 -49 -42q-32 0 -51 42l-144 317l-144 -317
q-19 -42 -51 -42q-33 0 -49 42l-149 406q-7 21 -7 25q0 22 15 37t37 15q15 0 28.5 -8.5t17.5 -21.5l114 -333l139 329q14 34 49 34t49 -34l139 -329l114 333q4 13 17.5 21.5t28.5 8.5z" />
    <glyph glyph-name="Ycircumflex" unicode="&#x176;" horiz-adv-x="634" 
d="M379 947q36 0 54 -31l41 -70q13 -23 5.5 -38.5t-33.5 -15.5q-32 0 -55 24l-76 80l-76 -80q-23 -24 -55 -24q-26 0 -33.5 15.5t5.5 38.5l41 70q18 31 54 31h128zM548 703q21 0 36 -15t15 -36q0 -16 -9 -30l-218 -299v-274q0 -23 -16 -39t-39 -16t-39 16t-16 39v274
l-218 299q-9 14 -9 30q0 21 15 36t36 15q27 0 43 -22l188 -257l188 257q16 22 43 22z" />
    <glyph glyph-name="ycircumflex" unicode="&#x177;" horiz-adv-x="577" 
d="M355 767q36 0 54 -31l41 -70q13 -23 5.5 -38.5t-33.5 -15.5q-32 0 -55 24l-76 80l-76 -80q-23 -24 -55 -24q-26 0 -33.5 15.5t5.5 38.5l41 70q18 31 54 31h128zM445 494q13 32 46 32q21 0 36 -15t15 -36q0 -7 -4 -19l-262 -621q-14 -31 -46 -31q-21 0 -35.5 15t-14.5 35
q0 7 4 19l57 142l-202 441q-4 8 -4 20q0 20 14.5 35t35.5 15q32 0 46 -30l162 -352z" />
    <glyph glyph-name="Ydieresis" unicode="&#x178;" horiz-adv-x="634" 
d="M193 771q-25 0 -42.5 17.5t-17.5 42.5q0 24 17.5 41.5t42.5 17.5t42.5 -17.5t17.5 -41.5q0 -25 -17.5 -42.5t-42.5 -17.5zM441 771q-25 0 -42.5 17.5t-17.5 42.5q0 24 17.5 41.5t42.5 17.5t42.5 -17.5t17.5 -41.5q0 -25 -17.5 -42.5t-42.5 -17.5zM548 703q21 0 36 -15
t15 -36q0 -16 -9 -30l-218 -299v-274q0 -23 -16 -39t-39 -16t-39 16t-16 39v274l-218 299q-9 14 -9 30q0 21 15 36t36 15q27 0 43 -22l188 -257l188 257q16 22 43 22z" />
    <glyph glyph-name="Zacute" unicode="&#x179;" horiz-adv-x="642" 
d="M376 953q24 0 41 -17t17 -41q0 -20 -13 -36l-83 -101q-12 -15 -30 -15q-21 0 -32.5 15t-2.5 36l49 121q16 38 54 38zM500 700q51 0 73.5 -40t-8.5 -80l-387 -485h366q20 0 34 -14t14 -33q0 -20 -14 -34t-34 -14h-405q-51 0 -73.5 40t8.5 80l387 485h-363q-20 0 -34 14
t-14 34q0 19 14 33t34 14h402z" />
    <glyph glyph-name="zacute" unicode="&#x17a;" horiz-adv-x="501" 
d="M294 773q24 0 41 -17t17 -41q0 -20 -13 -36l-83 -101q-12 -15 -30 -15q-21 0 -32.5 15t-2.5 36l49 121q16 38 54 38zM378 520q53 0 74.5 -41.5t-15.5 -83.5l-273 -300h249q20 0 34 -14t14 -33q0 -20 -14 -34t-34 -14h-291q-52 0 -72.5 41.5t16.5 84.5l272 299h-250
q-20 0 -34 14t-14 34q0 19 14 33t34 14h290z" />
    <glyph glyph-name="Zdotaccent" unicode="&#x17b;" horiz-adv-x="642" 
d="M328 824q-23 0 -40 17t-17 40t17 40t40 17t40 -17t17 -40t-17 -40t-40 -17zM500 700q51 0 73.5 -40t-8.5 -80l-387 -485h366q20 0 34 -14t14 -33q0 -20 -14 -34t-34 -14h-405q-51 0 -73.5 40t8.5 80l387 485h-363q-20 0 -34 14t-14 34q0 19 14 33t34 14h402z" />
    <glyph glyph-name="zdotaccent" unicode="&#x17c;" horiz-adv-x="501" 
d="M246 644q-23 0 -40 17t-17 40t17 40t40 17t40 -17t17 -40t-17 -40t-40 -17zM378 520q53 0 74.5 -41.5t-15.5 -83.5l-273 -300h249q20 0 34 -14t14 -33q0 -20 -14 -34t-34 -14h-291q-52 0 -72.5 41.5t16.5 84.5l272 299h-250q-20 0 -34 14t-14 34q0 19 14 33t34 14h290z
" />
    <glyph glyph-name="Zcaron" unicode="&#x17d;" horiz-adv-x="642" 
d="M386 802h-128q-36 0 -54 31l-41 70q-13 23 -5.5 38.5t33.5 15.5q32 0 55 -24l76 -80l76 80q23 24 55 24q26 0 33.5 -15.5t-5.5 -38.5l-41 -70q-18 -31 -54 -31zM500 700q51 0 73.5 -40t-8.5 -80l-387 -485h366q20 0 34 -14t14 -33q0 -20 -14 -34t-34 -14h-405
q-51 0 -73.5 40t8.5 80l387 485h-363q-20 0 -34 14t-14 34q0 19 14 33t34 14h402z" />
    <glyph glyph-name="zcaron" unicode="&#x17e;" horiz-adv-x="501" 
d="M304 622h-128q-36 0 -54 31l-41 70q-13 23 -5.5 38.5t33.5 15.5q32 0 55 -24l76 -80l76 80q23 24 55 24q26 0 33.5 -15.5t-5.5 -38.5l-41 -70q-18 -31 -54 -31zM378 520q53 0 74.5 -41.5t-15.5 -83.5l-273 -300h249q20 0 34 -14t14 -33q0 -20 -14 -34t-34 -14h-291
q-52 0 -72.5 41.5t16.5 84.5l272 299h-250q-20 0 -34 14t-14 34q0 19 14 33t34 14h290z" />
    <glyph glyph-name="florin" unicode="&#x192;" horiz-adv-x="302" 
d="M238 520q20 0 34 -14t14 -33q0 -20 -14 -34t-34 -14h-33v-440q0 -147 -135 -171q-22 -4 -39 11t-17 37q0 16 10 29t26 18q27 7 36 29t9 67v420h-22q-20 0 -34 14t-14 34q0 19 14 33t34 14h22v5q0 147 135 171q22 4 39 -11t17 -37q0 -16 -10 -29t-26 -18q-25 -6 -34.5 -25
t-10.5 -56h33z" />
    <glyph glyph-name="uni01CD" unicode="&#x1cd;" horiz-adv-x="716" 
d="M416 802h-128q-36 0 -54 31l-41 70q-13 23 -5.5 38.5t33.5 15.5q32 0 55 -24l76 -80l76 80q23 24 55 24q26 0 33.5 -15.5t-5.5 -38.5l-41 -70q-18 -31 -54 -31zM358 703q27 0 45 -39l263 -592q5 -12 5 -23q0 -23 -16.5 -39t-38.5 -16q-36 0 -50 33l-75 169h-266l-75 -169
q-14 -33 -50 -33q-22 0 -38.5 16t-16.5 39q0 11 5 23l263 592q18 39 45 39zM358 514l-97 -222h194z" />
    <glyph glyph-name="uni01CE" unicode="&#x1ce;" horiz-adv-x="612" 
d="M381 622h-128q-36 0 -54 31l-41 70q-13 23 -5.5 38.5t33.5 15.5q32 0 55 -24l76 -80l76 80q23 24 55 24q26 0 33.5 -15.5t-5.5 -38.5l-41 -70q-18 -31 -54 -31zM285 526q109 0 157 -73v18q0 23 16 39t39 16t39 -16t16 -39v-422q0 -23 -16 -39t-39 -16t-39 16t-16 39v35
q-3 -33 -50 -62t-107 -29q-43 0 -85 17t-78.5 48.5t-59 84t-22.5 117.5q0 64 22.5 116.5t59 84t78.5 48.5t85 17zM299 431q-58 0 -103.5 -46t-45.5 -125t45.5 -125.5t103.5 -46.5q61 0 104.5 43.5t43.5 128.5q0 86 -43.5 128.5t-104.5 42.5z" />
    <glyph glyph-name="uni01CF" unicode="&#x1cf;" horiz-adv-x="245" 
d="M181 802h-128q-36 0 -54 31l-41 70q-13 23 -5.5 38.5t33.5 15.5q32 0 55 -24l76 -80l76 80q23 24 55 24q26 0 33.5 -15.5t-5.5 -38.5l-41 -70q-18 -31 -54 -31zM123 703q23 0 40 -17.5t17 -40.5v-593q0 -23 -17 -40.5t-40 -17.5q-24 0 -41 17.5t-17 40.5v593
q0 23 17 40.5t41 17.5z" />
    <glyph glyph-name="uni01D0" unicode="&#x1d0;" horiz-adv-x="260" 
d="M188 622h-128q-36 0 -54 31l-41 70q-13 23 -5.5 38.5t33.5 15.5q32 0 55 -24l76 -80l76 80q23 24 55 24q26 0 33.5 -15.5t-5.5 -38.5l-41 -70q-18 -31 -54 -31zM130 523q22 0 38.5 -16.5t16.5 -38.5v-418q0 -22 -16.5 -38.5t-38.5 -16.5t-38.5 16.5t-16.5 38.5v418
q0 22 16.5 38.5t38.5 16.5z" />
    <glyph glyph-name="uni01D1" unicode="&#x1d1;" horiz-adv-x="796" 
d="M456 802h-128q-36 0 -54 31l-41 70q-13 23 -5.5 38.5t33.5 15.5q32 0 55 -24l76 -80l76 80q23 24 55 24q26 0 33.5 -15.5t-5.5 -38.5l-41 -70q-18 -31 -54 -31zM398 707q88 0 167.5 -44.5t130 -127.5t50.5 -185t-50.5 -185t-130 -127.5t-167.5 -44.5t-167.5 44.5
t-130 127.5t-50.5 185t50.5 185t130 127.5t167.5 44.5zM398 600q-93 0 -161.5 -70.5t-68.5 -179.5t68.5 -179.5t161.5 -70.5t161.5 70.5t68.5 179.5t-68 179.5t-162 70.5z" />
    <glyph glyph-name="uni01D2" unicode="&#x1d2;" horiz-adv-x="600" 
d="M358 622h-128q-36 0 -54 31l-41 70q-13 23 -5.5 38.5t33.5 15.5q32 0 55 -24l76 -80l76 80q23 24 55 24q26 0 33.5 -15.5t-5.5 -38.5l-41 -70q-18 -31 -54 -31zM300 526q43 0 87 -17t83.5 -48.5t64.5 -84.5t25 -117q0 -65 -25 -117.5t-64.5 -84t-83.5 -48t-87 -16.5
t-87 16.5t-83.5 48t-64.5 84t-25 117.5q0 64 25 117t64.5 84.5t83.5 48.5t87 17zM300 430q-58 0 -104 -45t-46 -126q0 -80 46 -125t104 -45t104 45t46 125q0 81 -46 126t-104 45z" />
    <glyph glyph-name="uni01D3" unicode="&#x1d3;" horiz-adv-x="686" 
d="M401 802h-128q-36 0 -54 31l-41 70q-13 23 -5.5 38.5t33.5 15.5q32 0 55 -24l76 -80l76 80q23 24 55 24q26 0 33.5 -15.5t-5.5 -38.5l-41 -70q-18 -31 -54 -31zM566 703q22 0 38.5 -16.5t16.5 -38.5v-393q0 -118 -81 -190t-197 -72q-117 0 -197.5 72t-80.5 190v393
q0 22 16.5 38.5t38.5 16.5t38.5 -16.5t16.5 -38.5v-392q0 -83 47.5 -125.5t120.5 -42.5t120.5 42.5t47.5 125.5v392q0 22 16.5 38.5t38.5 16.5z" />
    <glyph glyph-name="uni01D4" unicode="&#x1d4;" horiz-adv-x="597" 
d="M354 622h-128q-36 0 -54 31l-41 70q-13 23 -5.5 38.5t33.5 15.5q32 0 55 -24l76 -80l76 80q23 24 55 24q26 0 33.5 -15.5t-5.5 -38.5l-41 -70q-18 -31 -54 -31zM427 468q0 22 16.5 38.5t38.5 16.5t38.5 -16.5t16.5 -38.5v-418q0 -22 -16.5 -38.5t-38.5 -16.5t-38.5 16.5
t-16.5 38.5v66q-10 -39 -56.5 -80.5t-113.5 -41.5q-88 0 -145 55t-57 169v250q0 22 16.5 38.5t38.5 16.5t38.5 -16.5t16.5 -38.5v-244q0 -69 28.5 -102t74.5 -33q60 0 105.5 48.5t53.5 96.5v234z" />
    <glyph glyph-name="uni01EA" unicode="&#x1ea;" horiz-adv-x="794" 
d="M463 0q-74 -29 -102 -51t-28 -51q0 -24 16.5 -38t39.5 -14q28 0 36 -18q6 -13 2 -23.5t-18 -12.5q-39 -6 -78.5 0.5t-70.5 31t-31 64.5q0 42 32 70t85 39q-122 20 -209 118t-87 235q0 102 50.5 185t130 127.5t167.5 44.5t167.5 -44.5t130 -127.5t50.5 -185
q0 -134 -82.5 -230t-200.5 -120zM168 350q0 -109 68.5 -179.5t161.5 -70.5t161.5 70.5t68.5 179.5t-68 179.5t-162 70.5q-93 0 -161.5 -70.5t-68.5 -179.5z" />
    <glyph glyph-name="uni01EB" unicode="&#x1eb;" horiz-adv-x="600" 
d="M355 0q-74 -29 -102 -51t-28 -51q0 -24 16.5 -38t39.5 -14q28 0 36 -18q6 -13 2 -23.5t-18 -12.5q-39 -6 -78.5 0.5t-70.5 31t-31 64.5q0 43 34.5 72t91.5 39q-84 19 -145.5 86.5t-61.5 173.5q0 64 25 117t64.5 84.5t83.5 48.5t87 17t87 -17t83.5 -48.5t64.5 -84.5
t25 -117q0 -106 -60.5 -173t-144.5 -86zM150 259q0 -80 46 -125t104 -45t104 45t46 125q0 81 -46 126t-104 45t-104 -45t-46 -126z" />
    <glyph glyph-name="Scommaaccent" unicode="&#x218;" horiz-adv-x="570" 
d="M279 707q125 0 199 -91q10 -13 10 -31q0 -20 -14 -34t-34 -14q-26 0 -40 20q-39 54 -121 54q-48 0 -80.5 -24t-32.5 -62q0 -35 22.5 -56t75.5 -41l47 -16q110 -38 162 -91t52 -130q0 -61 -39 -108t-93.5 -68.5t-111.5 -21.5q-70 0 -129.5 30t-97.5 84q-9 13 -9 29
q0 21 15 36t36 15q28 0 42 -22q23 -35 61.5 -55t81.5 -20q53 0 92.5 26t39.5 75q0 45 -30.5 72.5t-93.5 48.5l-52 17q-87 29 -135 75.5t-48 120.5q0 80 66 131t159 51zM183 -215q-23 0 -34 13.5t-4 36.5l25 85q12 39 49 39h47q27 0 36 -14.5t-4 -39.5l-48 -88
q-17 -32 -53 -32h-14z" />
    <glyph glyph-name="scommaaccent" unicode="&#x219;" horiz-adv-x="479" 
d="M233 526q62 0 98.5 -15t65.5 -47q14 -16 14 -35q0 -21 -15 -36t-37 -15q-23 0 -40 19q-31 35 -83 35q-33 0 -54 -16t-21 -38q0 -42 55 -57l72 -20q73 -20 112 -54t39 -101q0 -68 -63 -110.5t-141 -42.5q-56 0 -103 19.5t-74 52.5q-18 21 -18 44q0 19 14 33.5t36 14.5
q26 0 41 -20q39 -50 107 -50q37 0 62 17t25 42q0 46 -61 64l-72 20q-75 21 -109.5 56t-34.5 93q0 64 56 105.5t129 41.5zM144 -215q-23 0 -34 13.5t-4 36.5l25 85q12 39 49 39h47q27 0 36 -14.5t-4 -39.5l-48 -88q-17 -32 -53 -32h-14z" />
    <glyph glyph-name="uni021A" unicode="&#x21a;" horiz-adv-x="630" 
d="M535 700q20 0 35 -14.5t15 -35.5t-15 -35.5t-35 -14.5h-160v-546q0 -24 -17.5 -42t-41.5 -18q-25 0 -42.5 18t-17.5 42v546h-161q-20 0 -35 14.5t-15 35.5t15 35.5t35 14.5h440zM219 -216q-23 0 -34 13.5t-4 36.5l25 85q12 39 49 39h47q27 0 36 -14t-4 -40l-48 -88
q-17 -32 -53 -32h-14z" />
    <glyph glyph-name="uni021B" unicode="&#x21b;" horiz-adv-x="365" 
d="M285 90q17 2 32 -10.5t15 -33.5q0 -54 -102 -54q-58 0 -91.5 30t-33.5 110v293h-28q-20 0 -34 14t-14 34q0 19 14 33t34 14h28v41q0 23 16.5 39t38.5 16t38.5 -16t16.5 -39v-41h67q20 0 34 -14t14 -33q0 -20 -14 -34t-34 -14h-67v-295q0 -43 33 -43q18 0 37 3zM217 -41
q27 0 36 -14.5t-4 -39.5l-48 -88q-17 -32 -53 -32h-14q-23 0 -34 13.5t-4 36.5l25 85q12 39 49 39h47z" />
    <glyph glyph-name="uni0237" unicode="&#x237;" horiz-adv-x="259" 
d="M179 520v-575q0 -150 -141 -150q-44 0 -102 25v108q67 -23 89 -23q44 0 44 70v545h110z" />
    <glyph glyph-name="circumflex" unicode="&#x2c6;" horiz-adv-x="334" 
d="M231 767q36 0 54 -31l41 -70q13 -23 5.5 -38.5t-33.5 -15.5q-32 0 -55 24l-76 80l-76 -80q-23 -24 -55 -24q-26 0 -33.5 15.5t5.5 38.5l41 70q18 31 54 31h128z" />
    <glyph glyph-name="caron" unicode="&#x2c7;" horiz-adv-x="335" 
d="M232 622h-128q-36 0 -54 31l-41 70q-13 23 -5.5 38.5t33.5 15.5q32 0 55 -24l76 -80l76 80q23 24 55 24q26 0 33.5 -15.5t-5.5 -38.5l-41 -70q-18 -31 -54 -31z" />
    <glyph glyph-name="breve" unicode="&#x2d8;" horiz-adv-x="349" 
d="M298 773q23 0 35.5 -18t7.5 -38q-16 -56 -59 -92.5t-108 -36.5q-59 0 -102.5 36.5t-61.5 91.5q-6 24 7 40.5t34 16.5q31 0 41 -27q22 -57 83 -57q60 0 82 56q11 28 41 28z" />
    <glyph glyph-name="dotaccent" unicode="&#x2d9;" horiz-adv-x="124" 
d="M62 644q-23 0 -40 17t-17 40t17 40t40 17t40 -17t17 -40t-17 -40t-40 -17z" />
    <glyph glyph-name="ring" unicode="&#x2da;" horiz-adv-x="203" 
d="M103 800q41 0 70.5 -30t29.5 -71t-29.5 -70.5t-70.5 -29.5q-43 0 -73 29.5t-30 70.5q0 42 30 71.5t73 29.5zM101 732q-13 0 -22 -9.5t-9 -22.5t9 -22t22 -9t22.5 9t9.5 22t-9.5 22.5t-22.5 9.5z" />
    <glyph glyph-name="ogonek" unicode="&#x2db;" horiz-adv-x="235" 
d="M235 0q-75 -29 -103 -51t-28 -51q0 -24 16.5 -38t39.5 -14q28 0 36 -18q6 -13 2 -23.5t-18 -12.5q-39 -6 -78.5 0.5t-70.5 31t-31 64.5q0 45 36 74t96 38h103z" />
    <glyph glyph-name="tilde" unicode="&#x2dc;" horiz-adv-x="399" 
d="M122 738q40 0 94.5 -33.5t77.5 -33.5q34 0 45 20q8 15 26 15q14 0 23 -11t5 -25q-10 -40 -41 -63.5t-72 -23.5q-39 0 -95 37.5t-82 37.5q-34 0 -44 -26q-7 -17 -26 -17q-14 0 -22 10.5t-5 23.5q10 40 41.5 64.5t74.5 24.5z" />
    <glyph glyph-name="hungarumlaut" unicode="&#x2dd;" horiz-adv-x="394" 
d="M111 773q24 0 41 -17t17 -41q0 -20 -13 -36l-83 -101q-12 -15 -30 -15q-21 0 -32.5 15t-2.5 36l49 121q16 38 54 38zM296 773q24 0 41 -17t17 -41q0 -20 -13 -36l-83 -101q-12 -15 -30 -15q-21 0 -32.5 15t-2.5 36l49 121q16 38 54 38z" />
    <glyph glyph-name="uni0326" unicode="&#x326;" horiz-adv-x="0" 
d="M-182 -215q-23 0 -34 13.5t-4 36.5l25 85q12 39 49 39h47q27 0 36 -14.5t-4 -39.5l-48 -88q-17 -32 -53 -32h-14z" />
    <glyph glyph-name="Delta" unicode="&#x394;" horiz-adv-x="733" 
d="M380 700l303 -700h-633l303 700h27zM367 520l-177 -425h353z" />
    <glyph glyph-name="Omega" unicode="&#x3a9;" horiz-adv-x="794" 
d="M665 105q54 0 54 -52q0 -53 -54 -53h-166v136l36 28q97 77 97 192q0 109 -70 176t-165 67t-164.5 -67t-69.5 -176q0 -116 96 -192l36 -28v-136h-166q-54 0 -54 53q0 52 54 52h36q-115 107 -115 251q0 99 51 181t130 126t166 44t166 -44t130 -126t51 -181
q0 -144 -115 -251h36z" />
    <glyph glyph-name="mu" unicode="&#x3bc;" horiz-adv-x="597" 
d="M482 523q22 0 38.5 -16.5t16.5 -38.5v-418q0 -22 -16.5 -38.5t-38.5 -16.5t-38.5 16.5t-16.5 38.5v66q-10 -39 -56.5 -80.5t-113.5 -41.5q-50 0 -92 18v-153q0 -23 -16.5 -39t-38.5 -16t-38.5 16t-16.5 39v609q0 22 16.5 38.5t38.5 16.5t38.5 -16.5t16.5 -38.5v-244
q0 -69 28.5 -102t74.5 -33q60 0 105.5 48.5t53.5 96.5v234q0 22 16.5 38.5t38.5 16.5z" />
    <glyph glyph-name="pi" unicode="&#x3c0;" horiz-adv-x="710" 
d="M591 89q8 0 22 2q20 3 36 -11t16 -34q0 -36 -36 -45q-37 -7 -68 -7q-48 0 -85 24t-37 76v331h-178v-376q0 -23 -16.5 -39t-38.5 -16t-38.5 16t-16.5 39v376h-58q-20 0 -34 14t-14 34q0 19 14 33t34 14h513q20 0 34 -14t14 -33q0 -20 -14 -34t-34 -14h-57v-281
q0 -33 9.5 -44t32.5 -11z" />
    <glyph glyph-name="uni0401" unicode="&#x401;" horiz-adv-x="590" 
d="M181 771q-25 0 -42.5 17.5t-17.5 42.5q0 24 17.5 41.5t42.5 17.5t42.5 -17.5t17.5 -41.5q0 -25 -17.5 -42.5t-42.5 -17.5zM429 771q-25 0 -42.5 17.5t-17.5 42.5q0 24 17.5 41.5t42.5 17.5t42.5 -17.5t17.5 -41.5q0 -25 -17.5 -42.5t-42.5 -17.5zM181 99h309
q20 0 35 -14.5t15 -34.5q0 -21 -15 -35.5t-35 -14.5h-363q-27 0 -44.5 17.5t-17.5 44.5v576q0 27 17.5 44.5t44.5 17.5h353q20 0 35 -14.5t15 -34.5q0 -21 -15 -35.5t-35 -14.5h-299v-200h199q20 0 35 -14.5t15 -34.5q0 -21 -15 -35.5t-35 -14.5h-199v-203z" />
    <glyph glyph-name="uni0404" unicode="&#x404;" horiz-adv-x="648" 
d="M539 147q23 0 39 -16t16 -39q0 -29 -25 -46q-82 -53 -177 -53q-136 0 -241.5 102t-105.5 254q0 102 50.5 185.5t129.5 128t167 44.5q93 0 177 -53q25 -17 25 -46q0 -23 -16 -39t-39 -16q-18 0 -30 9q-58 38 -115 38q-80 0 -145.5 -57t-81.5 -145h109q20 0 34 -14t14 -33
q0 -20 -14 -34t-34 -14h-109q16 -88 81 -145.5t146 -57.5q58 0 114 38q12 9 31 9z" />
    <glyph glyph-name="uni0407" unicode="&#x407;" horiz-adv-x="245" 
d="M-1 771q-25 0 -42.5 17.5t-17.5 42.5q0 24 17.5 41.5t42.5 17.5t42.5 -17.5t17.5 -41.5q0 -25 -17.5 -42.5t-42.5 -17.5zM247 771q-25 0 -42.5 17.5t-17.5 42.5q0 24 17.5 41.5t42.5 17.5t42.5 -17.5t17.5 -41.5q0 -25 -17.5 -42.5t-42.5 -17.5zM123 703q23 0 40 -17.5
t17 -40.5v-593q0 -23 -17 -40.5t-40 -17.5q-24 0 -41 17.5t-17 40.5v593q0 23 17 40.5t41 17.5z" />
    <glyph glyph-name="uni0410" unicode="&#x410;" horiz-adv-x="716" 
d="M358 703q27 0 45 -39l263 -592q5 -12 5 -23q0 -23 -16.5 -39t-38.5 -16q-36 0 -50 33l-75 169h-266l-75 -169q-14 -33 -50 -33q-22 0 -38.5 16t-16.5 39q0 11 5 23l263 592q18 39 45 39zM358 514l-97 -222h194z" />
    <glyph glyph-name="uni0411" unicode="&#x411;" horiz-adv-x="615" 
d="M315 428q116 0 185.5 -59.5t69.5 -154.5q0 -93 -70 -153.5t-185 -60.5h-183q-27 0 -44.5 17.5t-17.5 44.5v581v5v5q0 19 14 33t34 14h336q20 0 34 -14t14 -33q0 -20 -14 -34t-34 -14h-271v-177h132zM310 97q70 0 110 29t40 88q0 117 -150 117h-127v-234h127z" />
    <glyph glyph-name="uni0412" unicode="&#x412;" horiz-adv-x="616" 
d="M437 387q134 -52 134 -181q0 -97 -66.5 -151.5t-191.5 -54.5h-181q-27 0 -44.5 17.5t-17.5 44.5v576q0 27 17.5 44.5t44.5 17.5h173q100 0 160 -47t60 -135q0 -94 -88 -131zM182 604v-180h123q54 0 82 25.5t28 68.5q0 40 -30.5 63t-79.5 23h-123zM313 96q75 0 111.5 29.5
t36.5 80.5q0 54 -37 88t-111 34h-131v-232h131z" />
    <glyph glyph-name="uni0413" unicode="&#x413;" horiz-adv-x="572" 
d="M479 700q20 0 34 -14t14 -33q0 -20 -14 -34t-34 -14h-299v-555q0 -22 -16 -38.5t-39 -16.5t-39 16.5t-16 38.5v588q0 27 17.5 44.5t44.5 17.5h347z" />
    <glyph glyph-name="uni0414" unicode="&#x414;" horiz-adv-x="889" 
d="M729 95h63q27 0 44.5 -17.5t17.5 -44.5v-63q0 -26 -19 -45.5t-46 -19.5t-46 19.5t-19 45.5v30h-559v-30q0 -26 -19 -45.5t-46 -19.5t-46 19.5t-19 45.5v63q0 27 17.5 44.5t44.5 17.5h45q18 44 27 121t10.5 142.5t1.5 201.5v78q0 27 17.5 44.5t44.5 17.5h424
q27 0 44.5 -17.5t17.5 -44.5v-543zM250 95h369v510h-328v-45q0 -136 -1.5 -201.5t-11 -142.5t-28.5 -121z" />
    <glyph glyph-name="uni0415" unicode="&#x415;" horiz-adv-x="590" 
d="M181 99h309q20 0 35 -14.5t15 -34.5q0 -21 -15 -35.5t-35 -14.5h-363q-27 0 -44.5 17.5t-17.5 44.5v576q0 27 17.5 44.5t44.5 17.5h353q20 0 35 -14.5t15 -34.5q0 -21 -15 -35.5t-35 -14.5h-299v-200h199q20 0 35 -14.5t15 -34.5q0 -21 -15 -35.5t-35 -14.5h-199v-203z
" />
    <glyph glyph-name="uni0416" unicode="&#x416;" horiz-adv-x="1231" 
d="M1121 78q13 -15 13 -34q0 -20 -15 -35t-36 -15q-22 0 -37 17l-240 266l-133 -157v-69q0 -23 -17 -40t-40 -17h-1q-23 0 -40 17t-17 40v69l-133 157l-240 -266q-15 -17 -37 -17q-21 0 -36 15t-15 35q0 19 13 34l250 277l-226 267q-12 15 -12 33q0 21 15 36t36 15
q24 0 40 -19l345 -411v373q0 23 17 40t40 17h1q23 0 40 -17t17 -40v-373l345 411q16 19 40 19q21 0 36 -15t15 -36q0 -18 -12 -33l-226 -267z" />
    <glyph glyph-name="uni0417" unicode="&#x417;" horiz-adv-x="596" 
d="M291 707q91 0 158 -56.5t67 -132.5q0 -56 -36 -96.5t-90 -53.5q58 -4 109.5 -49.5t51.5 -114.5q0 -94 -76.5 -154t-183.5 -60q-85 0 -149.5 38t-91.5 101q-12 25 5 52t47 27q19 0 34 -11t20 -28q14 -42 53 -63t82 -21q25 0 48 5.5t45.5 18t36.5 37t14 58.5q0 95 -136 110
q-18 2 -30.5 16t-12.5 33q0 18 12.5 32t29.5 16q63 10 83 35t20 72q0 41 -36 67.5t-74 26.5q-93 0 -114 -77q-12 -42 -55 -42q-30 0 -46 23t-7 54q24 64 84.5 100.5t137.5 36.5z" />
    <glyph glyph-name="uni0418" unicode="&#x418;" horiz-adv-x="691" 
d="M126 703q24 0 41 -17.5t17 -40.5v-431l332 456q24 33 60 33q20 0 35 -14t15 -38v-598q0 -23 -17 -40.5t-41 -17.5q-23 0 -40 17.5t-17 40.5v433l-336 -458q-24 -34 -61 -34q-18 0 -31.5 14t-13.5 38v599q0 23 17 40.5t40 17.5z" />
    <glyph glyph-name="uni0419" unicode="&#x419;" horiz-adv-x="691" 
d="M485 953q23 0 35.5 -18t7.5 -38q-16 -56 -59 -92.5t-108 -36.5q-59 0 -102.5 36.5t-61.5 91.5q-6 24 7 40.5t34 16.5q31 0 41 -27q22 -57 83 -57q60 0 82 56q10 28 41 28zM126 703q24 0 41 -17.5t17 -40.5v-431l332 456q24 33 60 33q20 0 35 -14t15 -38v-598
q0 -23 -17 -40.5t-41 -17.5q-23 0 -40 17.5t-17 40.5v433l-336 -458q-24 -34 -61 -34q-18 0 -31.5 14t-13.5 38v599q0 23 17 40.5t40 17.5z" />
    <glyph glyph-name="uni041A" unicode="&#x41a;" horiz-adv-x="690" 
d="M569 706q21 0 36 -15t15 -36q0 -18 -12 -33l-226 -267l250 -277q13 -15 13 -34q0 -20 -15 -35t-36 -15q-22 0 -37 17l-240 266l-133 -157v-69q0 -23 -17 -40t-40 -17t-40 17t-17 40v598q0 23 17 40t40 17t40 -17t17 -40v-373l345 411q16 19 40 19z" />
    <glyph glyph-name="uni041B" unicode="&#x41b;" horiz-adv-x="765" 
d="M638 700q27 0 44.5 -17.5t17.5 -44.5v-588q0 -22 -16 -38.5t-39 -16.5t-39 16.5t-16 38.5v555h-348v-471q0 -80 -33.5 -110t-91.5 -30q-102 0 -102 56q0 23 16.5 35.5t37.5 9.5q12 -2 21 -2q42 0 42 45v500q0 27 17.5 44.5t44.5 17.5h444z" />
    <glyph glyph-name="uni041C" unicode="&#x41c;" horiz-adv-x="888" 
d="M768 703q20 0 35 -14t15 -38v-596q0 -23 -17 -40.5t-41 -17.5q-23 0 -40 17.5t-17 40.5v377l-208 -374q-18 -32 -51 -32t-51 32l-208 374v-377q0 -23 -17 -40.5t-40 -17.5q-24 0 -41 17.5t-17 40.5v596q0 24 15 38t35 14q38 0 60 -38l264 -472l264 472q22 38 60 38z" />
    <glyph glyph-name="uni041D" unicode="&#x41d;" horiz-adv-x="698" 
d="M520 646q0 23 16.5 40t40.5 17q23 0 39.5 -17t16.5 -40v-592q0 -23 -16.5 -40t-39.5 -17q-24 0 -40.5 17t-16.5 40v244h-342v-244q0 -23 -16.5 -40t-39.5 -17q-24 0 -40.5 17t-16.5 40v592q0 23 16.5 40t40.5 17q23 0 39.5 -17t16.5 -40v-251h342v251z" />
    <glyph glyph-name="uni041E" unicode="&#x41e;" horiz-adv-x="796" 
d="M398 707q88 0 167.5 -44.5t130 -127.5t50.5 -185t-50.5 -185t-130 -127.5t-167.5 -44.5t-167.5 44.5t-130 127.5t-50.5 185t50.5 185t130 127.5t167.5 44.5zM398 600q-93 0 -161.5 -70.5t-68.5 -179.5t68.5 -179.5t161.5 -70.5t161.5 70.5t68.5 179.5t-68 179.5
t-162 70.5z" />
    <glyph glyph-name="uni041F" unicode="&#x41f;" horiz-adv-x="698" 
d="M571 700q27 0 44.5 -17.5t17.5 -44.5v-588q0 -22 -16.5 -38.5t-38.5 -16.5t-38.5 16.5t-16.5 38.5v555h-348v-555q0 -22 -16.5 -38.5t-38.5 -16.5t-38.5 16.5t-16.5 38.5v588q0 27 17.5 44.5t44.5 17.5h444z" />
    <glyph glyph-name="uni0420" unicode="&#x420;" horiz-adv-x="620" 
d="M315 700q115 0 185 -60.5t70 -153.5q0 -95 -69.5 -154.5t-185.5 -59.5h-132v-221q0 -23 -16.5 -40t-39.5 -17q-24 0 -40.5 17t-16.5 40v587q0 27 17.5 44.5t44.5 17.5h183zM310 369q150 0 150 117q0 59 -40 88t-110 29h-127v-234h127z" />
    <glyph glyph-name="uni0421" unicode="&#x421;" horiz-adv-x="634" 
d="M392 707q93 0 177 -53q25 -17 25 -46q0 -23 -16 -39t-39 -16q-18 0 -30 9q-58 38 -115 38q-92 0 -161.5 -72.5t-69.5 -177.5q0 -106 69.5 -178t161.5 -72q58 0 114 38q12 9 31 9q23 0 39 -16t16 -39q0 -29 -25 -46q-82 -53 -177 -53q-136 0 -241.5 102t-105.5 254
q0 102 50.5 185.5t129.5 128t167 44.5z" />
    <glyph glyph-name="uni0422" unicode="&#x422;" horiz-adv-x="630" 
d="M535 700q20 0 35 -14.5t15 -35.5t-15 -35.5t-35 -14.5h-160v-546q0 -24 -17.5 -42t-41.5 -18q-25 0 -42.5 18t-17.5 42v546h-161q-20 0 -35 14.5t-15 35.5t15 35.5t35 14.5h440z" />
    <glyph glyph-name="uni0423" unicode="&#x423;" horiz-adv-x="666" 
d="M521 679q14 27 44 27q21 0 36 -15t15 -36q0 -13 -6 -25l-334 -608q-14 -27 -44 -27q-21 0 -36 15t-15 36q0 12 6 24l88 160l-219 400q-6 12 -6 25q0 21 15 36t36 15q30 0 44 -27l188 -343z" />
    <glyph glyph-name="uni0424" unicode="&#x424;" horiz-adv-x="895" 
d="M845 350q0 -121 -98.5 -201t-252.5 -84v-16q0 -23 -16 -39t-39 -16t-39 16t-16 39v16q-154 4 -251.5 84t-97.5 201t97.5 201t251.5 84v16q0 23 16 39t39 16t39 -16t16 -39v-16q154 -4 252.5 -84t98.5 -201zM494 160q125 3 183 58t58 132t-58 132t-183 58v-380zM145 350
q0 -77 57.5 -131.5t181.5 -58.5v380q-124 -4 -181.5 -58.5t-57.5 -131.5z" />
    <glyph glyph-name="uni0425" unicode="&#x425;" horiz-adv-x="629" 
d="M574 79q10 -13 10 -31q0 -22 -16 -38t-38 -16q-28 0 -44 23l-172 246l-173 -246q-16 -23 -43 -23q-22 0 -37.5 15.5t-15.5 37.5q0 18 9 30l194 278l-184 263q-10 13 -10 31q0 23 16 38.5t38 15.5q28 0 44 -23l162 -231l161 231q16 23 44 23q23 0 38.5 -15.5t15.5 -38.5
q0 -18 -10 -31l-184 -262z" />
    <glyph glyph-name="uni0426" unicode="&#x426;" horiz-adv-x="792" 
d="M685 95q27 0 44.5 -17.5t17.5 -44.5v-63q0 -23 -16 -39t-38 -16q-23 0 -39 16t-16 39v30h-511q-27 0 -44.5 17.5t-17.5 44.5v588q0 22 16.5 38.5t38.5 16.5t38.5 -16.5t16.5 -38.5v-555h348v555q0 22 16.5 38.5t38.5 16.5t38.5 -16.5t16.5 -38.5v-555h52z" />
    <glyph glyph-name="uni0427" unicode="&#x427;" horiz-adv-x="641" 
d="M466 648q0 22 16 38.5t39 16.5t39 -16.5t16 -38.5v-598q0 -22 -16 -38.5t-39 -16.5t-39 16.5t-16 38.5v268q-13 -31 -60 -62t-115 -31q-101 0 -163.5 51t-62.5 160v212q0 22 16.5 38.5t38.5 16.5t38.5 -16.5t16.5 -38.5v-212q0 -60 38 -88t96 -28t97.5 33.5t59.5 75.5
v219z" />
    <glyph glyph-name="uni0428" unicode="&#x428;" horiz-adv-x="1166" 
d="M1036 705q22 0 38.5 -16.5t16.5 -38.5v-588q0 -27 -17.5 -44.5t-44.5 -17.5h-444h-7h-7h-444q-27 0 -44.5 17.5t-17.5 44.5v588q0 22 16.5 38.5t38.5 16.5t38.5 -16.5t16.5 -38.5v-555h348v555q0 22 16.5 38.5t38.5 16.5t38.5 -16.5t16.5 -38.5v-555h348v555
q0 22 16.5 38.5t38.5 16.5z" />
    <glyph glyph-name="uni0429" unicode="&#x429;" horiz-adv-x="1250" 
d="M1143 95q27 0 44.5 -17.5t17.5 -44.5v-63q0 -23 -16 -39t-38 -16q-23 0 -39 16t-16 39v30h-511h-7h-7h-444q-27 0 -44.5 17.5t-17.5 44.5v588q0 22 16.5 38.5t38.5 16.5t38.5 -16.5t16.5 -38.5v-555h348v555q0 22 16.5 38.5t38.5 16.5t38.5 -16.5t16.5 -38.5v-555h348
v555q0 22 16.5 38.5t38.5 16.5t38.5 -16.5t16.5 -38.5v-555h52z" />
    <glyph glyph-name="uni042A" unicode="&#x42a;" horiz-adv-x="736" 
d="M436 428q116 0 185.5 -59.5t69.5 -154.5q0 -93 -70 -153.5t-185 -60.5h-183q-27 0 -44.5 17.5t-17.5 44.5v549h-118q-20 0 -34 14t-14 34q0 19 14 33t34 14h175q23 0 39.5 -17t16.5 -40v-221h132zM431 97q70 0 110 29t40 88q0 117 -150 117h-127v-234h127z" />
    <glyph glyph-name="uni042B" unicode="&#x42b;" horiz-adv-x="885" 
d="M315 0h-183q-27 0 -44.5 17.5t-17.5 44.5v587q0 23 16.5 40t40.5 17q23 0 39.5 -17t16.5 -40v-221h132q116 0 185.5 -59.5t69.5 -154.5q0 -93 -70 -153.5t-185 -60.5zM753 703q23 0 40 -17.5t17 -40.5v-593q0 -23 -17 -40.5t-40 -17.5q-24 0 -41 17.5t-17 40.5v593
q0 23 17 40.5t41 17.5zM310 331h-127v-234h127q70 0 110 29t40 88q0 117 -150 117z" />
    <glyph glyph-name="uni042C" unicode="&#x42c;" horiz-adv-x="642" 
d="M315 0h-183q-27 0 -44.5 17.5t-17.5 44.5v587q0 23 16.5 40t40.5 17q23 0 39.5 -17t16.5 -40v-221h132q116 0 185.5 -59.5t69.5 -154.5q0 -93 -70 -153.5t-185 -60.5zM310 331h-127v-234h127q70 0 110 29t40 88q0 117 -150 117z" />
    <glyph glyph-name="uni042D" unicode="&#x42d;" horiz-adv-x="648" 
d="M256 707q88 0 167 -44.5t129.5 -128t50.5 -185.5q0 -152 -105.5 -254t-241.5 -102q-95 0 -177 53q-25 17 -25 46q0 23 16 39t39 16q19 0 31 -9q56 -38 114 -38q81 0 146 57.5t81 145.5h-109q-20 0 -34 14t-14 34q0 19 14 33t34 14h109q-16 88 -81.5 145t-145.5 57
q-57 0 -115 -38q-12 -9 -30 -9q-23 0 -39 16t-16 39q0 29 25 46q84 53 177 53z" />
    <glyph glyph-name="uni042E" unicode="&#x42e;" horiz-adv-x="990" 
d="M594 707q88 0 167.5 -44.5t130 -127.5t50.5 -185t-50.5 -185t-130 -127.5t-167.5 -44.5q-125 0 -226.5 87.5t-118.5 222.5h-69v-251q0 -23 -17 -40.5t-40 -17.5q-24 0 -41 17.5t-17 40.5v593q0 23 17 40.5t41 17.5q23 0 40 -17.5t17 -40.5v-247h69q18 135 119 222t226 87
zM594 100q93 0 161.5 70.5t68.5 179.5t-68 179.5t-162 70.5q-93 0 -161.5 -70.5t-68.5 -179.5t68.5 -179.5t161.5 -70.5z" />
    <glyph glyph-name="uni042F" unicode="&#x42f;" horiz-adv-x="625" 
d="M493 700q27 0 44.5 -17.5t17.5 -44.5v-587q0 -23 -16.5 -40t-40.5 -17q-23 0 -39.5 17t-16.5 40v221h-81l-209 -257q-16 -21 -43 -21q-23 0 -38.5 16t-15.5 38q0 19 13 35l166 197q-83 18 -131 73.5t-48 132.5q0 93 70 153.5t185 60.5h183zM442 369v234h-127
q-70 0 -110 -29t-40 -88q0 -117 150 -117h127z" />
    <glyph glyph-name="uni0430" unicode="&#x430;" horiz-adv-x="612" 
d="M285 526q109 0 157 -73v18q0 23 16 39t39 16t39 -16t16 -39v-422q0 -23 -16 -39t-39 -16t-39 16t-16 39v35q-3 -33 -50 -62t-107 -29q-43 0 -85 17t-78.5 48.5t-59 84t-22.5 117.5q0 64 22.5 116.5t59 84t78.5 48.5t85 17zM299 431q-58 0 -103.5 -46t-45.5 -125
t45.5 -125.5t103.5 -46.5q61 0 104.5 43.5t43.5 128.5q0 86 -43.5 128.5t-104.5 42.5z" />
    <glyph glyph-name="uni0431" unicode="&#x431;" 
d="M327 526q43 0 85 -17t78.5 -48.5t59 -84t22.5 -116.5q0 -65 -22.5 -117.5t-59 -84t-78.5 -48.5t-85 -17q-60 0 -107 29t-50 62v-35q0 -23 -16 -39t-39 -16t-39 16t-16 39v422q0 7 1 10v39q0 92 50 136t153 44h78q48 0 67 16q13 11 29 11q19 0 32 -13.5t13 -32.5
q0 -20 -14 -34q-45 -42 -117 -42h-88q-53 0 -73 -19t-20 -66v-66q47 72 156 72zM313 88q58 0 103.5 46.5t45.5 125.5t-45.5 125t-103.5 46q-61 0 -104.5 -42.5t-43.5 -128.5q0 -85 43.5 -128.5t104.5 -43.5z" />
    <glyph glyph-name="uni0432" unicode="&#x432;" horiz-adv-x="597" 
d="M445 288q107 -39 107 -134q0 -77 -59.5 -115.5t-165.5 -38.5h-195q-27 0 -44.5 17.5t-17.5 44.5v396q0 27 17.5 44.5t44.5 17.5h195q85 0 135 -36t50 -100q0 -74 -67 -96zM180 430v-102h147q75 0 75 53q0 13 -3.5 22t-21.5 18t-50 9h-147zM327 90q115 0 115 64
q0 80 -115 80h-147v-144h147z" />
    <glyph glyph-name="uni0433" unicode="&#x433;" horiz-adv-x="539" 
d="M446 520q20 0 34 -14t14 -33q0 -20 -14 -34t-34 -14h-266v-375q0 -22 -16 -38.5t-39 -16.5t-39 16.5t-16 38.5v408q0 27 17.5 44.5t44.5 17.5h314z" />
    <glyph glyph-name="uni0434" unicode="&#x434;" horiz-adv-x="688" 
d="M608 93q45 -12 45 -60v-83q0 -22 -16.5 -38.5t-38.5 -16.5t-38.5 16.5t-16.5 38.5v45q-5 1 -15 5h-383v-50q0 -22 -16.5 -38.5t-38.5 -16.5t-38.5 16.5t-16.5 38.5v83q0 27 17.5 44.5t44.5 17.5h4q29 93 29 285v78q0 27 17.5 44.5t44.5 17.5h354q27 0 44.5 -17.5
t17.5 -44.5v-365zM240 380q0 -200 -30 -285h288v330h-258v-45z" />
    <glyph glyph-name="uni0435" unicode="&#x435;" 
d="M305 526q91 0 171.5 -69.5t80.5 -181.5q0 -58 -65 -58h-333q8 -60 52.5 -94t95.5 -34q61 0 102 30q18 12 33 12q22 0 35 -13.5t13 -35.5q0 -28 -24 -43q-67 -46 -160 -46q-43 0 -87 16.5t-84 48t-65 84t-25 117.5q0 64 25 117t64.5 84.5t83.5 48.5t87 17zM305 430
q-49 0 -92 -32t-53 -90h287q-10 58 -52 90t-90 32z" />
    <glyph glyph-name="uni0436" unicode="&#x436;" horiz-adv-x="930" 
d="M811 82q14 -14 14 -36q0 -21 -15 -36t-36 -15q-23 0 -37 16l-180 186l-37 -38v-109q0 -22 -16 -38.5t-39 -16.5t-39 16.5t-16 38.5v109l-37 38l-180 -186q-14 -16 -37 -16q-21 0 -36 15t-15 36q0 22 14 36l184 187l-165 168q-15 15 -15 35q0 21 15 36t36 15q22 0 36 -16
l200 -201v162q0 22 16 38.5t39 16.5t39 -16.5t16 -38.5v-162l200 201q14 16 36 16q21 0 36 -15t15 -36q0 -20 -15 -35l-165 -168z" />
    <glyph glyph-name="uni0437" unicode="&#x437;" horiz-adv-x="536" 
d="M259 525q83 0 144 -42t61 -99q0 -27 -8 -46t-25 -31t-26.5 -16.5t-30.5 -12.5q18 -3 35.5 -9.5t39 -19.5t34.5 -38t13 -58q0 -71 -71 -115.5t-166 -44.5q-71 0 -125.5 26t-80.5 71q-17 27 -1 54.5t48 27.5q33 0 48 -30q12 -25 43.5 -39.5t67.5 -14.5q49 0 88 17t39 48
q0 29 -27.5 48.5t-79.5 25.5q-18 2 -31 16t-13 33q0 18 12.5 32t29.5 16q77 11 77 60q0 23 -27 34.5t-68 11.5q-70 0 -91 -35q-15 -26 -44 -26q-33 0 -46.5 29.5t7.5 57.5q59 69 174 69z" />
    <glyph glyph-name="uni0438" unicode="&#x438;" horiz-adv-x="633" 
d="M430 491q23 30 56 34.5t57.5 -17.5t24.5 -60v-399q0 -23 -16 -39t-39 -16t-39 16t-16 39v315l-255 -335q-23 -30 -56 -34.5t-57.5 17.5t-24.5 60v399q0 23 16.5 39t38.5 16t38.5 -16t16.5 -39v-315z" />
    <glyph glyph-name="uni0439" unicode="&#x439;" horiz-adv-x="633" 
d="M440 773q23 0 35.5 -18t7.5 -38q-16 -56 -59 -92.5t-108 -36.5q-59 0 -102.5 36.5t-61.5 91.5q-6 24 7 40.5t34 16.5q31 0 41 -27q22 -57 83 -57q60 0 82 56q11 28 41 28zM430 491q23 30 56 34.5t57.5 -17.5t24.5 -60v-399q0 -23 -16 -39t-39 -16t-39 16t-16 39v315
l-255 -335q-23 -30 -56 -34.5t-57.5 17.5t-24.5 60v399q0 23 16.5 39t38.5 16t38.5 -16t16.5 -39v-315z" />
    <glyph glyph-name="uni043A" unicode="&#x43a;" horiz-adv-x="530" 
d="M471 82q14 -14 14 -36q0 -21 -15 -36t-36 -15q-23 0 -37 16l-180 186l-37 -38v-109q0 -22 -16 -38.5t-39 -16.5t-39 16.5t-16 38.5v418q0 22 16 38.5t39 16.5t39 -16.5t16 -38.5v-162l200 201q14 16 36 16q21 0 36 -15t15 -36q0 -20 -15 -35l-165 -168z" />
    <glyph glyph-name="uni043B" unicode="&#x43b;" horiz-adv-x="692" 
d="M565 520q27 0 44.5 -17.5t17.5 -44.5v-409q0 -23 -16.5 -39t-38.5 -16t-38.5 16t-16.5 39v376h-276v-291q0 -140 -125 -140q-101 0 -101 51q0 22 16 36t37 11q12 -2 21 -2q21 0 31.5 14t10.5 34v320q0 27 17.5 44.5t44.5 17.5h372z" />
    <glyph glyph-name="uni043C" unicode="&#x43c;" horiz-adv-x="872" 
d="M629 473q24 40 66 49t74.5 -16t32.5 -72v-384q0 -22 -16 -38.5t-39 -16.5t-39 16.5t-16 38.5v313l-202 -339q-17 -28 -54 -28t-54 28l-202 339v-313q0 -22 -16 -38.5t-39 -16.5t-39 16.5t-16 38.5v384q0 47 32.5 72t74.5 16t66 -49l193 -322z" />
    <glyph glyph-name="uni043D" unicode="&#x43d;" horiz-adv-x="608" 
d="M428 468q0 22 16 38.5t39 16.5t39 -16.5t16 -38.5v-418q0 -22 -16 -38.5t-39 -16.5t-39 16.5t-16 38.5v163h-248v-163q0 -22 -16 -38.5t-39 -16.5t-39 16.5t-16 38.5v418q0 22 16 38.5t39 16.5t39 -16.5t16 -38.5v-160h248v160z" />
    <glyph glyph-name="uni043E" unicode="&#x43e;" horiz-adv-x="600" 
d="M300 526q43 0 87 -17t83.5 -48.5t64.5 -84.5t25 -117q0 -65 -25 -117.5t-64.5 -84t-83.5 -48t-87 -16.5t-87 16.5t-83.5 48t-64.5 84t-25 117.5q0 64 25 117t64.5 84.5t83.5 48.5t87 17zM300 430q-58 0 -104 -45t-46 -126q0 -80 46 -125t104 -45t104 45t46 125
q0 81 -46 126t-104 45z" />
    <glyph glyph-name="uni043F" unicode="&#x43f;" horiz-adv-x="618" 
d="M486 520q27 0 44.5 -17.5t17.5 -44.5v-408q0 -22 -16 -38.5t-39 -16.5t-39 16.5t-16 38.5v375h-258v-375q0 -22 -16 -38.5t-39 -16.5t-39 16.5t-16 38.5v408q0 27 17.5 44.5t44.5 17.5h354z" />
    <glyph glyph-name="uni0440" unicode="&#x440;" 
d="M327 526q43 0 85 -17t78.5 -48.5t59 -84t22.5 -116.5q0 -65 -22.5 -117.5t-59 -84t-78.5 -48.5t-85 -17q-60 0 -107 29t-50 62v-225q0 -23 -16 -39t-39 -16t-39 16t-16 39v612q0 23 16 39t39 16t39 -16t16 -39v-18q48 73 157 73zM313 88q58 0 103.5 46.5t45.5 125.5
t-45.5 125t-103.5 46q-61 0 -104.5 -42.5t-43.5 -128.5q0 -85 43.5 -128.5t104.5 -43.5z" />
    <glyph glyph-name="uni0441" unicode="&#x441;" horiz-adv-x="542" 
d="M305 526q94 0 160 -58q27 -22 27 -44q0 -21 -14.5 -35.5t-35.5 -14.5t-35 14q-41 42 -102 42q-59 0 -104.5 -45t-45.5 -126q0 -80 45.5 -125t104.5 -45q61 0 102 41q15 15 35 15q21 0 35.5 -14.5t14.5 -35.5q0 -22 -26 -43q-67 -59 -161 -59q-95 0 -177 71t-83 195
q0 65 24.5 117.5t64 84t84 48.5t87.5 17z" />
    <glyph glyph-name="uni0442" unicode="&#x442;" horiz-adv-x="510" 
d="M417 520q20 0 34 -14t14 -33q0 -20 -14 -34t-34 -14h-107v-375q0 -22 -16 -38.5t-39 -16.5t-39 16.5t-16 38.5v375h-107q-20 0 -34 14t-14 34q0 19 14 33t34 14h324z" />
    <glyph glyph-name="uni0443" unicode="&#x443;" horiz-adv-x="577" 
d="M445 494q13 32 46 32q21 0 36 -15t15 -36q0 -7 -4 -19l-262 -621q-14 -31 -46 -31q-21 0 -35.5 15t-14.5 35q0 7 4 19l57 142l-202 441q-4 8 -4 20q0 20 14.5 35t35.5 15q32 0 46 -30l162 -352z" />
    <glyph glyph-name="uni0444" unicode="&#x444;" horiz-adv-x="979" 
d="M704 526q43 0 85 -17t78.5 -48.5t59 -84t22.5 -116.5q0 -65 -22.5 -117.5t-59 -84t-78.5 -48.5t-85 -17q-60 0 -107 29t-50 62v-225q0 -23 -16.5 -39t-38.5 -16t-38.5 16t-16.5 39v208q-48 -73 -157 -73q-43 0 -85 17t-78.5 48.5t-59 84t-22.5 116.5q0 65 22.5 117.5
t59 84t78.5 48.5t85 17q60 0 107 -29t50 -62v225q0 23 16.5 39t38.5 16t38.5 -16t16.5 -39v-208q48 73 157 73zM294 89q51 0 90.5 29.5t52.5 90.5v102q-13 60 -53 90.5t-90 30.5q-58 0 -103.5 -46.5t-45.5 -125.5t45.5 -125t103.5 -46zM690 88q58 0 103.5 46.5t45.5 125.5
t-45.5 125t-103.5 46q-51 0 -90.5 -29.5t-52.5 -90.5v-102q13 -60 53 -90.5t90 -30.5z" />
    <glyph glyph-name="uni0445" unicode="&#x445;" horiz-adv-x="562" 
d="M493 72q9 -12 9 -29q0 -20 -14 -34.5t-34 -14.5q-24 0 -39 20l-134 169l-134 -169q-15 -20 -39 -20q-20 0 -34 14.5t-14 34.5q0 17 9 29l150 189l-148 187q-9 10 -9 29q0 20 14 34.5t34 14.5q24 0 39 -20l132 -167l132 167q16 20 39 20q20 0 34 -14.5t14 -34.5
q0 -17 -9 -29l-148 -187z" />
    <glyph glyph-name="uni0446" unicode="&#x446;" horiz-adv-x="642" 
d="M543 95q24 -3 39 -20t15 -42v-63q0 -23 -16 -39t-38 -16q-23 0 -39 16t-16 39v30h-361q-27 0 -44.5 17.5t-17.5 44.5v408q0 22 16.5 38.5t38.5 16.5t38.5 -16.5t16.5 -38.5v-375h258v375q0 22 16.5 38.5t38.5 16.5t38.5 -16.5t16.5 -38.5v-375z" />
    <glyph glyph-name="uni0447" unicode="&#x447;" horiz-adv-x="606" 
d="M431 468q0 22 16.5 38.5t38.5 16.5t38.5 -16.5t16.5 -38.5v-418q0 -22 -16.5 -38.5t-38.5 -16.5t-38.5 16.5t-16.5 38.5v197q-5 -11 -15.5 -25t-29 -32t-47.5 -30t-62 -12q-88 0 -150 55.5t-62 155.5v109q0 22 16.5 38.5t38.5 16.5t38.5 -16.5t16.5 -38.5v-110
q0 -113 103 -113q55 0 94.5 34.5t58.5 86.5v102z" />
    <glyph glyph-name="uni0448" unicode="&#x448;" horiz-adv-x="838" 
d="M653 471q0 23 16.5 39t38.5 16t38.5 -16t16.5 -39v-409q0 -27 -17.5 -44.5t-44.5 -17.5h-574q-27 0 -44.5 17.5t-17.5 44.5v409q0 23 16.5 39t38.5 16t38.5 -16t16.5 -39v-376h184v376q0 23 16.5 39t38.5 16t38.5 -16t16.5 -39v-376h184v376z" />
    <glyph glyph-name="uni0449" unicode="&#x449;" horiz-adv-x="866" 
d="M763 95q26 -2 42 -19t16 -43v-63q0 -23 -16 -39t-38 -16q-23 0 -39 16t-16 39v30h-585q-27 0 -44.5 17.5t-17.5 44.5v409q0 23 16.5 39t38.5 16t38.5 -16t16.5 -39v-376h184v376q0 23 16.5 39t38.5 16t38.5 -16t16.5 -39v-376h184v376q0 23 16.5 39t38.5 16t38.5 -16
t16.5 -39v-376z" />
    <glyph glyph-name="uni044A" unicode="&#x44a;" horiz-adv-x="665" 
d="M415 306q94 0 149.5 -42.5t55.5 -114.5q0 -69 -55 -109t-150 -40h-218q-27 0 -44.5 17.5t-17.5 44.5v366h-52q-20 0 -34 14t-14 34q0 19 14 33t34 14h114q20 0 34 -14t14 -33v-4v-4v-162h170zM415 95q58 0 76.5 13.5t18.5 40.5q0 28 -19 45t-76 17h-170v-116h170z" />
    <glyph glyph-name="uni044B" unicode="&#x44b;" horiz-adv-x="800" 
d="M350 306q94 0 149.5 -42.5t55.5 -114.5q0 -69 -55 -109t-150 -40h-218q-27 0 -44.5 17.5t-17.5 44.5v406q0 22 16 38.5t39 16.5t39 -16.5t16 -38.5v-162h170zM675 523q23 0 39 -16.5t16 -38.5v-418q0 -22 -16 -38.5t-39 -16.5t-39 16.5t-16 38.5v418q0 22 16 38.5
t39 16.5zM350 95q58 0 76.5 13.5t18.5 40.5q0 28 -19 45t-76 17h-170v-116h170z" />
    <glyph glyph-name="uni044C" unicode="&#x44c;" horiz-adv-x="600" 
d="M350 306q94 0 149.5 -42.5t55.5 -114.5q0 -69 -55 -109t-150 -40h-218q-27 0 -44.5 17.5t-17.5 44.5v406q0 22 16 38.5t39 16.5t39 -16.5t16 -38.5v-162h170zM350 95q58 0 76.5 13.5t18.5 40.5q0 28 -19 45t-76 17h-170v-116h170z" />
    <glyph glyph-name="uni044D" unicode="&#x44d;" horiz-adv-x="542" 
d="M232 526q43 0 87.5 -17t84 -48.5t64 -84t24.5 -117.5q-1 -124 -83 -195t-177 -71q-94 0 -161 59q-26 21 -26 43q0 21 14.5 35.5t35.5 14.5q20 0 35 -15q41 -41 102 -41q48 0 89 31t55 87h-79q-20 0 -35 14.5t-15 35.5t15 35.5t35 14.5h80q-13 59 -54.5 91t-90.5 32
q-61 0 -102 -42q-14 -14 -35 -14t-35.5 14.5t-14.5 35.5q0 22 27 44q66 58 160 58z" />
    <glyph glyph-name="uni044E" unicode="&#x44e;" horiz-adv-x="828" 
d="M518 526q43 0 87 -17t83.5 -48.5t64.5 -84.5t25 -117q0 -65 -25 -117.5t-64.5 -84t-83.5 -48t-87 -16.5q-52 0 -104 22.5t-96 73t-56 118.5h-87v-157q0 -22 -16.5 -38.5t-38.5 -16.5t-38.5 16.5t-16.5 38.5v418q0 22 16.5 38.5t38.5 16.5t38.5 -16.5t16.5 -38.5v-161h87
q17 102 95 160.5t161 58.5zM518 89q58 0 104 45t46 125q0 81 -46 126t-104 45t-104 -45t-46 -126q0 -80 46 -125t104 -45z" />
    <glyph glyph-name="uni044F" unicode="&#x44f;" horiz-adv-x="610" 
d="M478 520q27 0 44.5 -17.5t17.5 -44.5v-408q0 -22 -16 -38.5t-39 -16.5t-39 16.5t-16 38.5v119h-117l-147 -158q-16 -16 -35 -16q-20 0 -34.5 14.5t-14.5 34.5q0 17 14 33l99 102q-64 19 -102 65.5t-38 106.5q0 74 60.5 121.5t154.5 47.5h208zM430 264v161h-160
q-53 0 -79 -20.5t-26 -53.5q0 -35 27 -61t78 -26h160z" />
    <glyph glyph-name="uni0451" unicode="&#x451;" 
d="M164 591q-25 0 -42.5 17.5t-17.5 42.5q0 24 17.5 41.5t42.5 17.5t42.5 -17.5t17.5 -41.5q0 -25 -17.5 -42.5t-42.5 -17.5zM412 591q-25 0 -42.5 17.5t-17.5 42.5q0 24 17.5 41.5t42.5 17.5t42.5 -17.5t17.5 -41.5q0 -25 -17.5 -42.5t-42.5 -17.5zM305 526
q91 0 171.5 -69.5t80.5 -181.5q0 -58 -65 -58h-333q8 -60 52.5 -94t95.5 -34q61 0 102 30q18 12 33 12q22 0 35 -13.5t13 -35.5q0 -28 -24 -43q-67 -46 -160 -46q-43 0 -87 16.5t-84 48t-65 84t-25 117.5q0 64 25 117t64.5 84.5t83.5 48.5t87 17zM305 430q-49 0 -92 -32
t-53 -90h287q-10 58 -52 90t-90 32z" />
    <glyph glyph-name="uni0454" unicode="&#x454;" horiz-adv-x="542" 
d="M442 145q21 0 35.5 -14.5t14.5 -35.5q0 -22 -26 -43q-67 -59 -161 -59q-95 0 -177 71t-83 195q0 65 24.5 117.5t64 84t84 48.5t87.5 17q94 0 160 -58q27 -22 27 -44q0 -21 -14.5 -35.5t-35.5 -14.5t-35 14q-41 42 -102 42q-49 0 -90.5 -32t-54.5 -91h80q20 0 35 -14.5
t15 -35.5t-15 -35.5t-35 -14.5h-79q14 -56 55 -87t89 -31q61 0 102 41q15 15 35 15z" />
    <glyph glyph-name="uni0457" unicode="&#x457;" horiz-adv-x="260" 
d="M6 591q-25 0 -42.5 17.5t-17.5 42.5q0 24 17.5 41.5t42.5 17.5t42.5 -17.5t17.5 -41.5q0 -25 -17.5 -42.5t-42.5 -17.5zM254 591q-25 0 -42.5 17.5t-17.5 42.5q0 24 17.5 41.5t42.5 17.5t42.5 -17.5t17.5 -41.5q0 -25 -17.5 -42.5t-42.5 -17.5zM130 523q22 0 38.5 -16.5
t16.5 -38.5v-418q0 -22 -16.5 -38.5t-38.5 -16.5t-38.5 16.5t-16.5 38.5v418q0 22 16.5 38.5t38.5 16.5z" />
    <glyph glyph-name="uni0490" unicode="&#x490;" horiz-adv-x="572" 
d="M527 698v-38v-4v-3q0 -20 -14 -34t-34 -14h-299v-555q0 -22 -16 -38.5t-39 -16.5t-39 16.5t-16 38.5v588q0 27 17.5 44.5t44.5 17.5h284q1 22 17 37.5t38 15.5q23 0 39.5 -16t16.5 -39z" />
    <glyph glyph-name="uni0491" unicode="&#x491;" horiz-adv-x="539" 
d="M494 518v-38v-4v-3q0 -20 -14 -34t-34 -14h-266v-375q0 -22 -16 -38.5t-39 -16.5t-39 16.5t-16 38.5v408q0 27 17.5 44.5t44.5 17.5h251q1 22 17 37.5t38 15.5q23 0 39.5 -16t16.5 -39z" />
    <glyph glyph-name="Wgrave" unicode="&#x1e80;" horiz-adv-x="1147" 
d="M515 953q38 0 54 -38l49 -121q9 -21 -2.5 -36t-32.5 -15q-18 0 -30 15l-83 101q-13 16 -13 36q0 24 17 41t41 17zM1036 706q23 0 39.5 -16.5t16.5 -39.5q0 -9 -6 -23l-230 -590q-16 -42 -46 -42t-47 42l-190 468l-190 -468q-17 -42 -46 -42q-31 0 -47 42l-229 590
q-6 14 -6 23q0 23 16.5 39.5t39.5 16.5q16 0 30.5 -9.5t19.5 -23.5l176 -495l185 495q12 33 51 33q38 0 50 -33l187 -495l176 495q5 14 19.5 23.5t30.5 9.5z" />
    <glyph glyph-name="wgrave" unicode="&#x1e81;" horiz-adv-x="870" 
d="M377 773q38 0 54 -38l49 -121q9 -21 -2.5 -36t-32.5 -15q-18 0 -30 15l-83 101q-13 16 -13 36q0 24 17 41t41 17zM783 523q22 0 37 -15t15 -37q0 -4 -7 -25l-149 -406q-16 -42 -49 -42q-32 0 -51 42l-144 317l-144 -317q-19 -42 -51 -42q-33 0 -49 42l-149 406
q-7 21 -7 25q0 22 15 37t37 15q15 0 28.5 -8.5t17.5 -21.5l114 -333l139 329q14 34 49 34t49 -34l139 -329l114 333q4 13 17.5 21.5t28.5 8.5z" />
    <glyph glyph-name="Wacute" unicode="&#x1e82;" horiz-adv-x="1147" 
d="M621 953q24 0 41 -17t17 -41q0 -20 -13 -36l-83 -101q-12 -15 -30 -15q-21 0 -32.5 15t-2.5 36l49 121q16 38 54 38zM1036 706q23 0 39.5 -16.5t16.5 -39.5q0 -9 -6 -23l-230 -590q-16 -42 -46 -42t-47 42l-190 468l-190 -468q-17 -42 -46 -42q-31 0 -47 42l-229 590
q-6 14 -6 23q0 23 16.5 39.5t39.5 16.5q16 0 30.5 -9.5t19.5 -23.5l176 -495l185 495q12 33 51 33q38 0 50 -33l187 -495l176 495q5 14 19.5 23.5t30.5 9.5z" />
    <glyph glyph-name="wacute" unicode="&#x1e83;" horiz-adv-x="870" 
d="M483 773q24 0 41 -17t17 -41q0 -20 -13 -36l-83 -101q-12 -15 -30 -15q-21 0 -32.5 15t-2.5 36l49 121q16 38 54 38zM783 523q22 0 37 -15t15 -37q0 -4 -7 -25l-149 -406q-16 -42 -49 -42q-32 0 -51 42l-144 317l-144 -317q-19 -42 -51 -42q-33 0 -49 42l-149 406
q-7 21 -7 25q0 22 15 37t37 15q15 0 28.5 -8.5t17.5 -21.5l114 -333l139 329q14 34 49 34t49 -34l139 -329l114 333q4 13 17.5 21.5t28.5 8.5z" />
    <glyph glyph-name="Wdieresis" unicode="&#x1e84;" horiz-adv-x="1147" 
d="M449 771q-25 0 -42.5 17.5t-17.5 42.5q0 24 17.5 41.5t42.5 17.5t42.5 -17.5t17.5 -41.5q0 -25 -17.5 -42.5t-42.5 -17.5zM697 771q-25 0 -42.5 17.5t-17.5 42.5q0 24 17.5 41.5t42.5 17.5t42.5 -17.5t17.5 -41.5q0 -25 -17.5 -42.5t-42.5 -17.5zM1036 706
q23 0 39.5 -16.5t16.5 -39.5q0 -9 -6 -23l-230 -590q-16 -42 -46 -42t-47 42l-190 468l-190 -468q-17 -42 -46 -42q-31 0 -47 42l-229 590q-6 14 -6 23q0 23 16.5 39.5t39.5 16.5q16 0 30.5 -9.5t19.5 -23.5l176 -495l185 495q12 33 51 33q38 0 50 -33l187 -495l176 495
q5 14 19.5 23.5t30.5 9.5z" />
    <glyph glyph-name="wdieresis" unicode="&#x1e85;" horiz-adv-x="870" 
d="M311 591q-25 0 -42.5 17.5t-17.5 42.5q0 24 17.5 41.5t42.5 17.5t42.5 -17.5t17.5 -41.5q0 -25 -17.5 -42.5t-42.5 -17.5zM559 591q-25 0 -42.5 17.5t-17.5 42.5q0 24 17.5 41.5t42.5 17.5t42.5 -17.5t17.5 -41.5q0 -25 -17.5 -42.5t-42.5 -17.5zM783 523q22 0 37 -15
t15 -37q0 -4 -7 -25l-149 -406q-16 -42 -49 -42q-32 0 -51 42l-144 317l-144 -317q-19 -42 -51 -42q-33 0 -49 42l-149 406q-7 21 -7 25q0 22 15 37t37 15q15 0 28.5 -8.5t17.5 -21.5l114 -333l139 329q14 34 49 34t49 -34l139 -329l114 333q4 13 17.5 21.5t28.5 8.5z" />
    <glyph glyph-name="Ygrave" unicode="&#x1ef2;" horiz-adv-x="634" 
d="M259 953q38 0 54 -38l49 -121q9 -21 -2.5 -36t-32.5 -15q-18 0 -30 15l-83 101q-13 16 -13 36q0 24 17 41t41 17zM548 703q21 0 36 -15t15 -36q0 -16 -9 -30l-218 -299v-274q0 -23 -16 -39t-39 -16t-39 16t-16 39v274l-218 299q-9 14 -9 30q0 21 15 36t36 15q27 0 43 -22
l188 -257l188 257q16 22 43 22z" />
    <glyph glyph-name="ygrave" unicode="&#x1ef3;" horiz-adv-x="577" 
d="M235 773q38 0 54 -38l49 -121q9 -21 -2.5 -36t-32.5 -15q-18 0 -30 15l-83 101q-13 16 -13 36q0 24 17 41t41 17zM445 494q13 32 46 32q21 0 36 -15t15 -36q0 -7 -4 -19l-262 -621q-14 -31 -46 -31q-21 0 -35.5 15t-14.5 35q0 7 4 19l57 142l-202 441q-4 8 -4 20
q0 20 14.5 35t35.5 15q32 0 46 -30l162 -352z" />
    <glyph glyph-name="endash" unicode="&#x2013;" horiz-adv-x="612" 
d="M522 322q18 0 31.5 -13t13.5 -32t-13.5 -32t-31.5 -13h-432q-18 0 -31.5 13t-13.5 32t13.5 32t31.5 13h432z" />
    <glyph glyph-name="emdash" unicode="&#x2014;" horiz-adv-x="672" 
d="M582 322q18 0 31.5 -13t13.5 -32t-13.5 -32t-31.5 -13h-492q-18 0 -31.5 13t-13.5 32t13.5 32t31.5 13h492z" />
    <glyph glyph-name="quoteleft" unicode="&#x2018;" horiz-adv-x="234" 
d="M158 700q23 0 34 -13.5t4 -36.5l-25 -85q-12 -39 -49 -39h-47q-27 0 -36 14t4 40l48 88q17 32 53 32h14z" />
    <glyph glyph-name="quoteright" unicode="&#x2019;" horiz-adv-x="208" 
d="M76 545q-23 0 -34 13.5t-4 36.5l25 85q12 39 49 39h47q27 0 36 -14.5t-4 -39.5l-48 -88q-17 -32 -53 -32h-14z" />
    <glyph glyph-name="quotesinglbase" unicode="&#x201a;" horiz-adv-x="293" 
d="M66 -135q-23 0 -34 13.5t-4 36.5l25 85q12 39 49 39h47q27 0 36 -14.5t-4 -39.5l-48 -88q-17 -32 -53 -32h-14z" />
    <glyph glyph-name="quotedblleft" unicode="&#x201c;" horiz-adv-x="475" 
d="M158 700q23 0 34 -13.5t4 -36.5l-25 -85q-12 -39 -49 -39h-47q-27 0 -36 14t4 40l48 88q17 32 53 32h14zM370 700q23 0 34 -13.5t4 -36.5l-25 -85q-12 -39 -49 -39h-47q-27 0 -36 14t4 40l48 88q17 32 53 32h14z" />
    <glyph glyph-name="quotedblright" unicode="&#x201d;" horiz-adv-x="474" 
d="M76 545q-23 0 -34 13.5t-4 36.5l25 85q12 39 49 39h47q27 0 36 -14.5t-4 -39.5l-48 -88q-17 -32 -53 -32h-14zM287 545q-23 0 -34 13.5t-4 36.5l25 85q12 39 49 39h47q27 0 36 -14.5t-4 -39.5l-48 -88q-17 -32 -53 -32h-14z" />
    <glyph glyph-name="quotedblbase" unicode="&#x201e;" horiz-adv-x="500" 
d="M66 -135q-23 0 -34 13.5t-4 36.5l25 85q12 39 49 39h47q27 0 36 -14.5t-4 -39.5l-48 -88q-17 -32 -53 -32h-14zM273 -135q-23 0 -34 13.5t-4 36.5l25 85q12 39 49 39h47q27 0 36 -14.5t-4 -39.5l-48 -88q-17 -32 -53 -32h-14z" />
    <glyph glyph-name="dagger" unicode="&#x2020;" horiz-adv-x="349" 
d="M304 565v-95h-98l-19 -158h-24l-19 158h-99v95h87l-16 135h118l-16 -135h86z" />
    <glyph glyph-name="daggerdbl" unicode="&#x2021;" horiz-adv-x="339" 
d="M211 565h88v-95h-101l-13 -96h-30l-13 96h-102v95h89l-18 135h118zM185 326l13 -96h101v-95h-88l18 -135h-118l18 135h-89v95h102l13 96h30z" />
    <glyph glyph-name="bullet" unicode="&#x2022;" horiz-adv-x="226" 
d="M113 230q-29 0 -48.5 20t-19.5 48t19.5 48t48.5 20t48.5 -20t19.5 -48t-19.5 -48t-48.5 -20z" />
    <glyph glyph-name="ellipsis" unicode="&#x2026;" horiz-adv-x="720" 
d="M103 -3q-27 0 -46 19t-19 46q0 26 19 45t46 19q26 0 45 -19t19 -45q0 -27 -19 -46t-45 -19zM350 -3q-27 0 -46 19t-19 46q0 26 19 45t46 19q26 0 45 -19t19 -45q0 -27 -19 -46t-45 -19zM597 -3q-27 0 -46 19t-19 46q0 26 19 45t46 19q26 0 45 -19t19 -45q0 -27 -19 -46
t-45 -19z" />
    <glyph glyph-name="perthousand" unicode="&#x2030;" horiz-adv-x="1024" 
d="M158 705q52 0 88 -35.5t36 -87.5q0 -51 -36 -87t-88 -36q-51 0 -87 36t-36 87q0 52 36 87.5t87 35.5zM493 665q16 23 43 23q21 0 36 -15t15 -36q0 -15 -9 -29l-383 -571q-16 -23 -43 -23q-21 0 -36 15t-15 36q0 16 8 29zM158 620q-17 0 -28.5 -11t-11.5 -27t11.5 -27.5
t28.5 -11.5q15 0 26 11.5t11 27.5t-11 27t-26 11zM539 241q52 0 88 -35.5t36 -87.5q0 -51 -36 -87t-88 -36q-51 0 -87 36t-36 87q0 52 36 87.5t87 35.5zM865 241q52 0 88 -35.5t36 -87.5q0 -51 -36 -87t-88 -36q-51 0 -87 36t-36 87q0 52 36 87.5t87 35.5zM539 156
q-17 0 -28.5 -11t-11.5 -27t11.5 -27.5t28.5 -11.5q15 0 26 11.5t11 27.5t-11 27t-26 11zM865 156q-17 0 -28.5 -11t-11.5 -27t11.5 -27.5t28.5 -11.5q15 0 26 11.5t11 27.5t-11 27t-26 11z" />
    <glyph glyph-name="guilsinglleft" unicode="&#x2039;" horiz-adv-x="215" 
d="M25 349q0 36 31 54l70 41q23 13 38.5 5.5t15.5 -33.5q0 -32 -24 -55l-80 -76l80 -76q24 -23 24 -55q0 -26 -15.5 -33.5t-38.5 5.5l-70 41q-31 18 -31 54v128z" />
    <glyph glyph-name="guilsinglright" unicode="&#x203a;" horiz-adv-x="205" 
d="M190 390v-128q0 -36 -31 -54l-70 -41q-23 -13 -38.5 -5.5t-15.5 33.5q0 32 24 55l80 76l-80 76q-24 23 -24 55q0 26 15.5 33.5t38.5 -5.5l70 -41q31 -18 31 -54z" />
    <glyph glyph-name="fraction" unicode="&#x2044;" horiz-adv-x="108" 
d="M288 700l-430 -700h-48l436 700h42z" />
    <glyph glyph-name="Euro" unicode="&#x20ac;" horiz-adv-x="685" 
d="M590 147q23 0 39 -16t16 -39q0 -29 -25 -46q-82 -53 -177 -53q-104 0 -196 64t-130 169h-40q-17 0 -29.5 12.5t-12.5 29.5t12.5 29.5t29.5 12.5h21q-2 26 -2 39q0 19 1 28h-20q-17 0 -29.5 12.5t-12.5 29.5t12.5 29.5t29.5 12.5h36q35 110 128.5 178t201.5 68
q93 0 177 -53q25 -17 25 -46q0 -23 -16 -39t-39 -16q-18 0 -30 9q-58 38 -115 38q-65 0 -121.5 -38t-85.5 -101h55q17 0 29.5 -12.5t12.5 -29.5t-12.5 -29.5t-29.5 -12.5h-78q-1 -9 -1 -27q0 -20 3 -40h76q17 0 29.5 -12.5t12.5 -29.5t-12.5 -29.5t-29.5 -12.5h-48
q31 -58 85 -92t115 -34q58 0 114 38q12 9 31 9z" />
    <glyph glyph-name="uni20B4" unicode="&#x20b4;" horiz-adv-x="600" 
d="M513 226h-331q-6 -16 -6 -35q0 -49 39.5 -75t92.5 -26q43 0 81.5 20t61.5 55q14 22 42 22q21 0 36 -15t15 -36q0 -16 -9 -29q-38 -54 -97.5 -84t-129.5 -30q-57 0 -111.5 21.5t-93.5 68.5t-39 108q0 23 4 40q-23 11 -23 37q0 17 12.5 29.5t29.5 12.5h19q31 37 88 67h-107
q-17 0 -29.5 12.5t-12.5 29.5t12.5 29.5t29.5 12.5h305q31 24 31 64q0 38 -32.5 62t-80.5 24q-82 0 -121 -54q-14 -20 -40 -20q-20 0 -34 14t-14 34q0 18 10 31q74 91 199 91q93 0 159 -51t66 -131q0 -37 -12 -65q14 -4 23 -15.5t9 -25.5q0 -17 -12.5 -29.5t-29.5 -12.5h-59
q-37 -26 -102 -48l-52 -17q-1 0 -3 -1t-3 -1h219q17 0 29.5 -12.5t12.5 -29.5t-12.5 -29.5t-29.5 -12.5z" />
    <glyph glyph-name="trademark" unicode="&#x2122;" horiz-adv-x="571" 
d="M236 700v-40h-62v-140h-47v140h-62v40h171zM506 700v-180h-45v83l-65 -83h-15l-65 83v-83h-45v180h23l94 -121l94 121h24z" />
    <glyph glyph-name="oneeighth" unicode="&#x215b;" horiz-adv-x="556" 
d="M100 701v-261h-37v221l-17 -11l-18 31l35 20h37zM503 700l-430 -700h-48l436 700h42zM439 263q36 0 57.5 -20t21.5 -47q0 -34 -30 -53q43 -21 43 -66q0 -34 -27 -56.5t-65 -22.5q-37 0 -64 22.5t-27 56.5q0 45 43 66q-30 19 -30 53q0 26 21.5 46.5t56.5 20.5zM439 232
q-20 0 -30.5 -10.5t-10.5 -25.5t12.5 -27t28.5 -12q17 0 29 11.5t12 27.5q0 36 -41 36zM439 126q-22 0 -38 -14t-16 -35q0 -20 16 -34t38 -14q24 0 39 13t15 35t-15 35.5t-39 13.5z" />
    <glyph glyph-name="threeeighths" unicode="&#x215c;" horiz-adv-x="574" 
d="M116 703q32 0 56 -20.5t24 -47.5q0 -32 -30 -53q42 -18 42 -66q0 -34 -27.5 -57t-64.5 -23q-41 0 -67.5 27t-23.5 64h38q-4 -23 12 -41t41 -18q22 0 38 13.5t16 34.5q0 55 -74 45v31q63 3 63 43q0 15 -12.5 26t-30.5 11q-22 0 -35 -15.5t-11 -41.5h-38q-3 38 22 63t62 25
zM523 700l-430 -700h-48l436 700h42zM457 263q36 0 57.5 -20t21.5 -47q0 -34 -30 -53q43 -21 43 -66q0 -34 -27 -56.5t-65 -22.5q-37 0 -64 22.5t-27 56.5q0 45 43 66q-30 19 -30 53q0 26 21.5 46.5t56.5 20.5zM457 232q-20 0 -30.5 -10.5t-10.5 -25.5t12.5 -27t28.5 -12
q17 0 29 11.5t12 27.5q0 36 -41 36zM457 126q-22 0 -38 -14t-16 -35q0 -20 16 -34t38 -14q24 0 39 13t15 35t-15 35.5t-39 13.5z" />
    <glyph glyph-name="fiveeighths" unicode="&#x215d;" horiz-adv-x="576" 
d="M186 701v-32h-104l-8 -58q22 10 45 10q35 0 63 -26.5t28 -65.5t-28 -66t-67 -27q-33 0 -58.5 18.5t-31.5 43.5l33 19q2 -20 17.5 -34.5t39.5 -14.5q23 0 40 17.5t17 43.5q0 25 -16.5 42.5t-36.5 17.5q-35 0 -57 -29l-32 8l18 133h138zM523 700l-430 -700h-48l436 700h42z
M459 263q36 0 57.5 -20t21.5 -47q0 -34 -30 -53q43 -21 43 -66q0 -34 -27 -56.5t-65 -22.5q-37 0 -64 22.5t-27 56.5q0 45 43 66q-30 19 -30 53q0 26 21.5 46.5t56.5 20.5zM459 232q-20 0 -30.5 -10.5t-10.5 -25.5t12.5 -27t28.5 -12q17 0 29 11.5t12 27.5q0 36 -41 36z
M459 126q-22 0 -38 -14t-16 -35q0 -20 16 -34t38 -14q24 0 39 13t15 35t-15 35.5t-39 13.5z" />
    <glyph glyph-name="seveneighths" unicode="&#x215e;" horiz-adv-x="556" 
d="M200 701l-102 -261h-39l89 229h-121v32h173zM503 700l-430 -700h-48l436 700h42zM439 263q36 0 57.5 -20t21.5 -47q0 -34 -30 -53q43 -21 43 -66q0 -34 -27 -56.5t-65 -22.5q-37 0 -64 22.5t-27 56.5q0 45 43 66q-30 19 -30 53q0 26 21.5 46.5t56.5 20.5zM439 232
q-20 0 -30.5 -10.5t-10.5 -25.5t12.5 -27t28.5 -12q17 0 29 11.5t12 27.5q0 36 -41 36zM439 126q-22 0 -38 -14t-16 -35q0 -20 16 -34t38 -14q24 0 39 13t15 35t-15 35.5t-39 13.5z" />
    <glyph glyph-name="partialdiff" unicode="&#x2202;" horiz-adv-x="551" 
d="M236 685l121 -169q10 -14 36.5 -49.5t37 -50t29 -45t26 -51t14 -49.5t6.5 -59q0 -92 -71.5 -157t-162.5 -65q-90 0 -160.5 65t-70.5 157q0 90 71.5 158.5t159.5 68.5q11 0 24 -3l-140 192q-10 13 -10 29q0 20 14.5 34.5t35.5 14.5q25 0 40 -21zM273 337q-51 0 -89 -37
t-38 -88q0 -53 37.5 -89.5t89.5 -36.5t90.5 36.5t38.5 89.5t-35.5 89t-93.5 36z" />
    <glyph glyph-name="product" unicode="&#x220f;" horiz-adv-x="708" 
d="M45 738q0 27 17.5 44.5t44.5 17.5h494q27 0 44.5 -17.5t17.5 -44.5v-881q0 -22 -15.5 -37.5t-36.5 -15.5q-22 0 -37.5 15.5t-15.5 37.5v843h-408v-843q0 -22 -15.5 -37.5t-36.5 -15.5q-22 0 -37.5 15.5t-15.5 37.5v881z" />
    <glyph glyph-name="summation" unicode="&#x2211;" horiz-adv-x="633" 
d="M538 800q20 0 35 -14.5t15 -35.5t-15 -35.5t-35 -14.5h-368l205 -369q14 -26 0 -52l-205 -369h368q20 0 35 -14.5t15 -35.5t-15 -35.5t-35 -14.5h-416q-47 0 -68 35t2 76l213 384l-213 384q-23 41 -2 76t68 35h416z" />
    <glyph glyph-name="minus" unicode="&#x2212;" horiz-adv-x="425" 
d="M344 322q20 0 34.5 -13t14.5 -32t-14.5 -32t-34.5 -13h-251q-20 0 -34 13t-14 32t14 32t34 13h251z" />
    <glyph glyph-name="radical" unicode="&#x221a;" horiz-adv-x="767" 
d="M671 806q25 0 40 -19.5t10 -46.5l-235 -874q-8 -27 -30 -44.5t-51 -17.5q-26 0 -47.5 15t-30.5 38l-159 395h-63q-25 0 -42.5 17.5t-17.5 42.5t17.5 42.5t42.5 17.5h98q38 0 52 -36l147 -381l218 812q5 17 18.5 28t32.5 11z" />
    <glyph glyph-name="infinity" unicode="&#x221e;" horiz-adv-x="840" 
d="M610 427q73 0 126.5 -49t53.5 -116q0 -69 -53.5 -118.5t-126.5 -49.5q-100 0 -190 93q-90 -93 -189 -93q-74 0 -127.5 49.5t-53.5 118.5q0 67 54 116t127 49q99 0 189 -92q90 92 190 92zM233 180q40 0 67 17.5t60 64.5q-33 46 -60.5 63.5t-66.5 17.5q-35 0 -58 -24.5
t-23 -56.5q0 -33 23 -57.5t58 -24.5zM607 180q35 0 58 24.5t23 57.5q0 32 -23 56.5t-58 24.5q-39 0 -66.5 -17.5t-60.5 -63.5q33 -47 60 -64.5t67 -17.5z" />
    <glyph glyph-name="integral" unicode="&#x222b;" horiz-adv-x="295" 
d="M280 800v-95q-47 0 -61 -22.5t-14 -77.5v-620q0 -175 -185 -175v95q47 0 61 22.5t14 77.5v620q0 175 185 175z" />
    <glyph glyph-name="approxequal" unicode="&#x2248;" horiz-adv-x="507" 
d="M165 432q45 0 104.5 -34.5t87.5 -34.5q34 0 50 14q2 1 7 6.5t6.5 6.5t5.5 2.5t9 1.5q29 0 24 -26q-8 -42 -38 -66.5t-78 -24.5q-44 0 -105 38.5t-92 38.5q-35 0 -51 -20q-5 -8 -7.5 -11t-7.5 -5.5t-12 -2.5q-26 0 -21 23q7 43 37.5 68.5t80.5 25.5zM165 272
q45 0 104.5 -34.5t87.5 -34.5q34 0 50 14q2 1 7 6.5t6.5 6.5t5.5 2.5t9 1.5q29 0 24 -26q-8 -42 -38 -66.5t-78 -24.5q-44 0 -105 38.5t-92 38.5q-35 0 -51 -20q-5 -8 -7.5 -11t-7.5 -5.5t-12 -2.5q-26 0 -21 23q7 43 37.5 68.5t80.5 25.5z" />
    <glyph glyph-name="notequal" unicode="&#x2260;" horiz-adv-x="438" 
d="M344 242q20 0 34.5 -13t14.5 -32t-14.5 -32t-34.5 -13h-134l-51 -130q-10 -28 -41 -28q-24 0 -36.5 20.5t-3.5 38.5l39 99h-24q-20 0 -34 13t-14 32t14 32t34 13h59l27 70h-86q-20 0 -34 13t-14 32t14 32t34 13h121l53 137q8 28 40 28q24 0 37 -20.5t4 -38.5l-41 -106h37
q20 0 34.5 -13t14.5 -32t-14.5 -32t-34.5 -13h-72l-27 -70h99z" />
    <glyph glyph-name="lessequal" unicode="&#x2264;" horiz-adv-x="423" 
d="M299 564q6 5 17 5q15 0 26.5 -12t11.5 -30q0 -24 -21 -36l-202 -116l202 -115q21 -10 21 -37q0 -17 -11.5 -29.5t-26.5 -12.5q-10 0 -18 6l-215 125q-37 22 -37 62.5t37 62.5zM352 91q20 0 34.5 -13t14.5 -32t-14.5 -32t-34.5 -13h-251q-20 0 -34 13t-14 32t14 32t34 13
h251z" />
    <glyph glyph-name="greaterequal" unicode="&#x2265;" horiz-adv-x="434" 
d="M135 564l216 -127q37 -22 37 -62.5t-37 -62.5l-215 -125q-8 -6 -18 -6q-15 0 -26.5 12.5t-11.5 29.5q0 27 21 37l202 115l-202 116q-21 12 -21 36q0 18 11.5 30t26.5 12q11 0 17 -5zM82 91h251q20 0 34 -13t14 -32t-14 -32t-34 -13h-251q-20 0 -34.5 13t-14.5 32t14.5 32
t34.5 13z" />
    <glyph glyph-name="lozenge" unicode="&#x25ca;" horiz-adv-x="544" 
d="M272 706q34 0 62 -18.5t41 -48.5l119 -268q9 -21 0 -42l-119 -268q-13 -30 -41 -48.5t-62 -18.5t-62 18.5t-41 48.5l-119 268q-9 21 0 42l119 268q13 30 41 48.5t62 18.5zM272 81l119 269l-119 269l-119 -269z" />
    <glyph glyph-name="fi" unicode="&#xfb01;" horiz-adv-x="645" 
d="M367 671q20 -13 20 -38q0 -19 -13.5 -32t-32.5 -13q-12 0 -21 5q-36 19 -72 19q-34 0 -46 -18t-12 -51v-23h77q20 0 34 -14t14 -33q0 -20 -14 -34t-34 -14h-77v-376q0 -23 -16 -39t-39 -16t-39 16t-16 39v376h-18q-20 0 -34 14t-14 34q0 19 14 33t34 14h18v28
q0 48 16.5 82t44 49.5t53 21.5t54.5 6q64 0 119 -36zM524 592q-23 0 -40 17t-17 40t17 40t40 17t40 -17t17 -40t-17 -40t-40 -17zM524 523q23 0 39.5 -16.5t16.5 -39.5v-417q0 -23 -16.5 -39.5t-39.5 -16.5t-39.5 16.5t-16.5 39.5v417q0 23 16.5 39.5t39.5 16.5z" />
    <glyph glyph-name="i.loclTRK" horiz-adv-x="260" 
d="M130 644q-23 0 -40 17t-17 40t17 40t40 17t40 -17t17 -40t-17 -40t-40 -17zM130 523q22 0 38.5 -16.5t16.5 -38.5v-418q0 -22 -16.5 -38.5t-38.5 -16.5t-38.5 16.5t-16.5 38.5v418q0 22 16.5 38.5t38.5 16.5z" />
    <glyph glyph-name="t_t" horiz-adv-x="728" 
d="M648 90q17 2 32 -10.5t15 -33.5q0 -54 -102 -54q-58 0 -91.5 30t-33.5 110v293h-253v-295q0 -43 33 -43q18 0 37 3q17 2 32 -10.5t15 -33.5q0 -54 -102 -54q-58 0 -91.5 30t-33.5 110v293h-28q-20 0 -34 14t-14 34q0 19 14 33t34 14h28v41q0 23 16.5 39t38.5 16t38.5 -16
t16.5 -39v-41h253v41q0 23 16 39t39 16t39 -16t16 -39v-41h67q20 0 34 -14t14 -33q0 -20 -14 -34t-34 -14h-67v-295q0 -43 33 -43q17 0 37 3z" />
    <glyph glyph-name="zero.tf" horiz-adv-x="700" 
d="M355 707q124 0 208 -91t84 -253v-24q0 -162 -83.5 -253t-208.5 -91q-124 0 -208 91t-84 253v24q0 161 84 252.5t208 91.5zM355 612q-62 0 -104 -36.5t-60 -91t-18 -121.5v-24q0 -105 45.5 -177t136.5 -72t136.5 72t45.5 177v24q0 67 -18 121.5t-60 91t-104 36.5z" />
    <glyph glyph-name="one.tf" horiz-adv-x="700" 
d="M339 700q27 0 44.5 -17.5t17.5 -44.5v-588q0 -22 -16.5 -38.5t-38.5 -16.5t-38.5 16.5t-16.5 38.5v555h-66q-20 0 -34 14t-14 34q0 19 14 33t34 14h114z" />
    <glyph glyph-name="two.tf" horiz-adv-x="700" 
d="M342 707q99 0 164.5 -63t65.5 -145q0 -14 -2 -27.5t-4.5 -24.5t-10 -25t-12 -22.5t-17 -24t-19 -23.5t-24.5 -27t-26.5 -27.5t-32 -31.5t-34.5 -34l-136 -137h277q20 0 34 -14t14 -33q0 -20 -14 -34t-34 -14h-322q-59 0 -81.5 47.5t18.5 89.5l129 129q21 21 50 49.5
t43 42t32.5 33.5t27 31t17.5 25.5t12 26.5t3 25q0 56 -35.5 83.5t-82.5 27.5q-39 0 -72.5 -21.5t-45.5 -66.5q-5 -17 -19.5 -29t-33.5 -12q-28 0 -44 22.5t-8 49.5q21 68 80.5 111t142.5 43z" />
    <glyph glyph-name="three.tf" horiz-adv-x="700" 
d="M482 700q50 0 73 -38.5t-8 -76.5l-140 -168q73 -14 129 -67.5t56 -135.5q0 -98 -74.5 -161t-177.5 -63q-86 0 -149 41.5t-87 110.5q-10 25 6.5 48.5t44.5 23.5q40 0 52 -39q13 -43 52 -66.5t81 -23.5q52 0 97 31.5t45 97.5q0 59 -41.5 87t-106.5 42q-41 9 -41 47
q0 24 21 49l133 166h-278q-20 0 -34 14t-14 34q0 19 14 33t34 14h313z" />
    <glyph glyph-name="four.tf" horiz-adv-x="700" 
d="M492 291h33q20 0 34 -14t14 -33q0 -20 -14 -34t-34 -14h-33v-147q0 -23 -16 -39t-39 -16t-39 16t-16 39v147h-212q-52 0 -69.5 35.5t12.5 73.5l266 361q21 29 48 34t46 -13t19 -50v-346zM382 497l-147 -206h147v206z" />
    <glyph glyph-name="five.tf" horiz-adv-x="700" 
d="M453 700q20 0 34 -14t14 -33q0 -20 -14 -34t-34 -14h-221l-19 -157q5 1 17 6t21.5 8t27.5 6t38 3q99 0 171.5 -67.5t72.5 -172.5q0 -103 -71.5 -172t-172.5 -69q-134 0 -211 97q-10 13 -10 31q0 21 14.5 36t35.5 15q25 0 40 -20q50 -64 131 -64q48 0 91 38.5t43 107.5
q0 72 -42.5 108.5t-91.5 36.5q-61 0 -102 -28q-18 -13 -41 -13q-32 0 -53.5 24.5t-17.5 56.5l29 232q3 23 19.5 37.5t39.5 14.5h262z" />
    <glyph glyph-name="six.tf" horiz-adv-x="700" 
d="M426 706q21 0 35.5 -14.5t14.5 -34.5q0 -16 -10 -29l-140 -192q13 3 24 3q88 0 159.5 -68.5t71.5 -158.5q0 -92 -70.5 -157t-160.5 -65q-91 0 -162.5 65t-71.5 157q0 30 6.5 59t14 49.5t26 51t29 45t37 50t36.5 49.5l121 169q15 21 40 21zM349 337q-58 0 -93.5 -36
t-35.5 -89t38.5 -89.5t90.5 -36.5t89.5 36.5t37.5 89.5q0 51 -38 88t-89 37z" />
    <glyph glyph-name="seven.tf" horiz-adv-x="700" 
d="M547 700q43 0 63.5 -32t2.5 -71l-262 -572q-14 -31 -47 -31q-22 0 -37.5 15.5t-15.5 37.5q0 12 5 22l252 536h-322q-20 0 -34 14t-14 34q0 19 14 33t34 14h361z" />
    <glyph glyph-name="eight.tf" horiz-adv-x="700" 
d="M486 396q92 -63 92 -182q0 -96 -71.5 -158.5t-160.5 -62.5t-161 62t-72 159q0 119 92 182q-52 54 -52 126q0 78 53.5 131.5t139.5 53.5t139 -53.5t53 -131.5q0 -71 -52 -126zM262 522q0 -34 24.5 -60t59.5 -26t59.5 26t24.5 60q0 35 -24 61t-60 26t-60 -26t-24 -61z
M346 92q46 0 81 35t35 87q0 56 -34.5 89.5t-81.5 33.5q-43 0 -79 -34t-36 -89q0 -53 33.5 -87.5t81.5 -34.5z" />
    <glyph glyph-name="nine.tf" horiz-adv-x="700" 
d="M274 -7q-21 0 -35.5 14.5t-14.5 34.5q0 16 10 29l140 192q-13 -3 -24 -3q-88 0 -159.5 68.5t-71.5 158.5q0 92 70.5 157t160.5 65q91 0 162.5 -65t71.5 -157q0 -30 -6.5 -59t-14 -49.5t-26 -51t-29 -45t-37 -50t-36.5 -49.5l-121 -169q-15 -21 -40 -21zM351 362
q58 0 93.5 36t35.5 89t-38.5 89.5t-90.5 36.5t-89.5 -36.5t-37.5 -89.5q0 -51 38 -88t89 -37z" />
    <glyph glyph-name="zero.dnom" horiz-adv-x="260" 
d="M130 263q47 0 76 -35t29 -91v-13q0 -56 -29 -91t-76 -35q-45 0 -75 35t-30 91v13q0 56 30 91t75 35zM130 232q-29 0 -48.5 -25.5t-19.5 -69.5v-13q0 -44 19.5 -69.5t48.5 -25.5q31 0 49.5 25t18.5 70v13q0 45 -18.5 70t-49.5 25z" />
    <glyph glyph-name="one.dnom" horiz-adv-x="122" 
d="M97 261v-261h-37v221l-17 -11l-18 31l35 20h37z" />
    <glyph glyph-name="two.dnom" horiz-adv-x="221" 
d="M109 264q34 0 59 -22.5t25 -52.5q0 -26 -14.5 -47t-53.5 -61l-47 -49h118v-32h-168v32l68 69q28 29 36.5 38.5t15.5 22.5t7 27q0 18 -14 31t-32 13q-19 0 -33 -13t-14 -37v-14h-37v14q0 35 24.5 58t59.5 23z" />
    <glyph glyph-name="three.dnom" horiz-adv-x="233" 
d="M116 263q32 0 56 -20.5t24 -47.5q0 -32 -30 -53q42 -18 42 -66q0 -34 -27.5 -57t-64.5 -23q-41 0 -67.5 27t-23.5 64h38q-4 -23 12 -41t41 -18q22 0 38 13.5t16 34.5q0 55 -74 45v31q63 3 63 43q0 15 -12.5 26t-30.5 11q-22 0 -35 -15.5t-11 -41.5h-38q-3 38 22 63t62 25
z" />
    <glyph glyph-name="four.dnom" horiz-adv-x="246" 
d="M194 261v-154h27v-31h-27v-76h-37v76h-132l132 185h37zM157 202l-65 -95h65v95z" />
    <glyph glyph-name="five.dnom" horiz-adv-x="235" 
d="M186 261v-32h-104l-8 -58q22 10 45 10q35 0 63 -26.5t28 -65.5t-28 -66t-67 -27q-33 0 -58.5 18.5t-31.5 43.5l33 19q2 -20 17.5 -34.5t39.5 -14.5q23 0 40 17.5t17 43.5q0 25 -16.5 42.5t-36.5 17.5q-35 0 -57 -29l-32 8l18 133h138z" />
    <glyph glyph-name="six.dnom" horiz-adv-x="223" 
d="M174 261l-68 -96h6q34 0 60 -25t26 -59q0 -35 -26 -60t-60 -25t-60.5 25t-26.5 60q0 16 5.5 31.5t10 23t18 25t16.5 21.5l57 79h42zM112 133q-22 0 -36 -14t-14 -38q0 -23 15.5 -38t34.5 -15q18 0 33.5 15t15.5 38t-15 37.5t-34 14.5z" />
    <glyph glyph-name="seven.dnom" horiz-adv-x="223" 
d="M198 261l-102 -261h-39l89 229h-121v32h173z" />
    <glyph glyph-name="eight.dnom" horiz-adv-x="233" 
d="M116 263q36 0 57.5 -20t21.5 -47q0 -34 -30 -53q43 -21 43 -66q0 -34 -27 -56.5t-65 -22.5q-37 0 -64 22.5t-27 56.5q0 45 43 66q-30 19 -30 53q0 26 21.5 46.5t56.5 20.5zM116 232q-20 0 -30.5 -10.5t-10.5 -25.5t12.5 -27t28.5 -12q18 0 29.5 11.5t11.5 27.5
q0 36 -41 36zM116 126q-22 0 -38 -14t-16 -35q0 -20 16 -34t38 -14q24 0 39 13t15 35t-15 35.5t-39 13.5z" />
    <glyph glyph-name="nine.dnom" horiz-adv-x="224" 
d="M112 264q34 0 60.5 -24.5t26.5 -59.5q0 -13 -2.5 -24t-9 -22.5t-10.5 -18t-14.5 -19.5t-14.5 -18l-56 -78h-43l68 95h-5q-35 0 -61 25.5t-26 59.5q0 35 26.5 59.5t60.5 24.5zM112 232q-19 0 -34.5 -15t-15.5 -37q0 -23 15.5 -38t34.5 -15q22 0 35.5 14.5t13.5 38.5
q0 22 -15.5 37t-33.5 15z" />
    <glyph glyph-name="zero.numr" horiz-adv-x="260" 
d="M130 703q47 0 76 -35t29 -91v-13q0 -56 -29 -91t-76 -35q-45 0 -75 35t-30 91v13q0 56 30 91t75 35zM130 672q-29 0 -48.5 -25.5t-19.5 -69.5v-13q0 -44 19.5 -69.5t48.5 -25.5q31 0 49.5 25t18.5 70v13q0 45 -18.5 70t-49.5 25z" />
    <glyph glyph-name="one.numr" horiz-adv-x="122" 
d="M97 701v-261h-37v221l-17 -11l-18 31l35 20h37z" />
    <glyph glyph-name="two.numr" horiz-adv-x="221" 
d="M109 704q34 0 59 -22.5t25 -52.5q0 -26 -14.5 -47t-53.5 -61l-47 -49h118v-32h-168v32l68 69q28 29 36.5 38.5t15.5 22.5t7 27q0 18 -14 31t-32 13q-19 0 -33 -13t-14 -37v-14h-37v14q0 35 24.5 58t59.5 23z" />
    <glyph glyph-name="three.numr" horiz-adv-x="233" 
d="M116 703q32 0 56 -20.5t24 -47.5q0 -32 -30 -53q42 -18 42 -66q0 -34 -27.5 -57t-64.5 -23q-41 0 -67.5 27t-23.5 64h38q-4 -23 12 -41t41 -18q22 0 38 13.5t16 34.5q0 55 -74 45v31q63 3 63 43q0 15 -12.5 26t-30.5 11q-22 0 -35 -15.5t-11 -41.5h-38q-3 38 22 63t62 25
z" />
    <glyph glyph-name="four.numr" horiz-adv-x="246" 
d="M194 701v-154h27v-31h-27v-76h-37v76h-132l132 185h37zM157 642l-65 -95h65v95z" />
    <glyph glyph-name="five.numr" horiz-adv-x="235" 
d="M186 701v-32h-104l-8 -58q22 10 45 10q35 0 63 -26.5t28 -65.5t-28 -66t-67 -27q-33 0 -58.5 18.5t-31.5 43.5l33 19q2 -20 17.5 -34.5t39.5 -14.5q23 0 40 17.5t17 43.5q0 25 -16.5 42.5t-36.5 17.5q-35 0 -57 -29l-32 8l18 133h138z" />
    <glyph glyph-name="six.numr" horiz-adv-x="223" 
d="M174 701l-68 -96h6q34 0 60 -25t26 -59q0 -35 -26 -60t-60 -25t-60.5 25t-26.5 60q0 16 5.5 31.5t10 23t18 25t16.5 21.5l57 79h42zM112 573q-22 0 -36 -14t-14 -38q0 -23 15.5 -38t34.5 -15q18 0 33.5 15t15.5 38t-15 37.5t-34 14.5z" />
    <glyph glyph-name="seven.numr" horiz-adv-x="223" 
d="M198 701l-102 -261h-39l89 229h-121v32h173z" />
    <glyph glyph-name="eight.numr" horiz-adv-x="233" 
d="M116 703q36 0 57.5 -20t21.5 -47q0 -34 -30 -53q43 -21 43 -66q0 -34 -27 -56.5t-65 -22.5q-37 0 -64 22.5t-27 56.5q0 45 43 66q-30 19 -30 53q0 26 21.5 46.5t56.5 20.5zM116 672q-20 0 -30.5 -10.5t-10.5 -25.5t12.5 -27t28.5 -12q18 0 29.5 11.5t11.5 27.5
q0 36 -41 36zM116 566q-22 0 -38 -14t-16 -35q0 -20 16 -34t38 -14q24 0 39 13t15 35t-15 35.5t-39 13.5z" />
    <glyph glyph-name="nine.numr" horiz-adv-x="224" 
d="M112 704q34 0 60.5 -24.5t26.5 -59.5q0 -13 -2.5 -24t-9 -22.5t-10.5 -18t-14.5 -19.5t-14.5 -18l-56 -78h-43l68 95h-5q-35 0 -61 25.5t-26 59.5q0 35 26.5 59.5t60.5 24.5zM112 672q-19 0 -34.5 -15t-15.5 -37q0 -23 15.5 -38t34.5 -15q22 0 35.5 14.5t13.5 38.5
q0 22 -15.5 37t-33.5 15z" />
    </font>
</defs>
</svg>
